STARTFONT 2.3
FONT -FontForge-Pacifico-Book-R-Normal--8-80-72-72-P-47-ISO10646-1
SIZE 8 72 72  4
FONTBOUNDINGBOX 19 17 -5 -4
COMMENT "Generated by fontforge, http://fontforge.sourceforge.net"
COMMENT "Copyright 2018 The Pacifico Project Authors (https://github.com/googlefonts/Pacifico)"
STARTPROPERTIES 41
FOUNDRY "FontForge"
FAMILY_NAME "Pacifico"
WEIGHT_NAME "Book"
SLANT "R"
SETWIDTH_NAME "Normal"
ADD_STYLE_NAME ""
PIXEL_SIZE 8
POINT_SIZE 80
RESOLUTION_X 72
RESOLUTION_Y 72
SPACING "P"
AVERAGE_WIDTH 47
CHARSET_REGISTRY "ISO10646"
CHARSET_ENCODING "1"
FONTNAME_REGISTRY ""
CHARSET_COLLECTIONS "ISO8859-2 ISO8859-5 ISO8859-9 ISO8859-4 ISO10646-1"
BITS_PER_PIXEL 4
FONT_NAME "Pacifico-Regular"
FACE_NAME "Pacifico Regular"
COPYRIGHT "Copyright 2018 The Pacifico Project Authors (https://github.com/googlefonts/Pacifico)"
FONT_VERSION "3.001"
FONT_ASCENT 6
FONT_DESCENT 2
UNDERLINE_POSITION -1
UNDERLINE_THICKNESS 1
X_HEIGHT 3
CAP_HEIGHT 6
DEFAULT_CHAR 1
RAW_ASCENT 800
RAW_DESCENT 200
NORM_SPACE 2
RELATIVE_WEIGHT 40
RELATIVE_SETWIDTH 50
SUPERSCRIPT_X 0
SUPERSCRIPT_Y 2
SUPERSCRIPT_SIZE 4
SUBSCRIPT_X 0
SUBSCRIPT_Y 0
SUBSCRIPT_SIZE 4
AVG_LOWERCASE_WIDTH 38
AVG_UPPERCASE_WIDTH 65
ENDPROPERTIES
CHARS 1514
STARTCHAR NULL.dup1
ENCODING 0
SWIDTH 0 0
DWIDTH 0 0
BBX 1 1 0 0
BITMAP
00
ENDCHAR
STARTCHAR nonmarkingreturn
ENCODING 13
SWIDTH 265 0
DWIDTH 2 0
BBX 1 1 0 0
BITMAP
00
ENDCHAR
STARTCHAR space
ENCODING 32
SWIDTH 265 0
DWIDTH 2 0
BBX 1 1 0 0
BITMAP
00
ENDCHAR
STARTCHAR exclam
ENCODING 33
SWIDTH 340 0
DWIDTH 3 0
BBX 3 7 0 0
BITMAP
03C0
0890
0B50
0D10
0700
7700
9900
ENDCHAR
STARTCHAR quotedbl
ENCODING 34
SWIDTH 510 0
DWIDTH 4 0
BBX 4 3 0 4
BITMAP
0C4D
0F5D
1C49
ENDCHAR
STARTCHAR numbersign
ENCODING 35
SWIDTH 700 0
DWIDTH 6 0
BBX 6 5 0 0
BITMAP
02C3B0
4EEEE5
0A5B40
9FEFD1
2B3A00
ENDCHAR
STARTCHAR dollar
ENCODING 36
SWIDTH 524 0
DWIDTH 4 0
BBX 4 8 0 -1
BITMAP
0040
0090
1CE8
5A97
1AD3
86AB
4DC4
0710
ENDCHAR
STARTCHAR percent
ENCODING 37
SWIDTH 896 0
DWIDTH 7 0
BBX 7 7 0 0
BITMAP
1B703700
77E1C400
86EDB000
2A694000
003B3B80
00B3A4D0
02A06C80
ENDCHAR
STARTCHAR ampersand
ENCODING 38
SWIDTH 851 0
DWIDTH 7 0
BBX 7 9 0 -1
BITMAP
00AD5000
06A3C000
0786A000
04ED2000
0BF80250
7C3E4C40
8908F800
2CECCB00
00001600
ENDCHAR
STARTCHAR quotesingle
ENCODING 39
SWIDTH 290 0
DWIDTH 2 0
BBX 3 3 0 4
BITMAP
0C30
0F20
1C00
ENDCHAR
STARTCHAR parenleft
ENCODING 40
SWIDTH 613 0
DWIDTH 5 0
BBX 6 9 0 -1
BITMAP
003CE9
01D503
07A000
0C4000
1F1000
3D0000
4D0000
2E1550
08DA10
ENDCHAR
STARTCHAR parenright
ENCODING 41
SWIDTH 613 0
DWIDTH 5 0
BBX 6 9 -1 -1
BITMAP
009EB1
0270B6
000098
0000A6
0000C4
0001F1
0006B0
213E30
6DC500
ENDCHAR
STARTCHAR asterisk
ENCODING 42
SWIDTH 520 0
DWIDTH 4 0
BBX 4 4 1 4
BITMAP
1820
8DC2
CDA0
0610
ENDCHAR
STARTCHAR plus
ENCODING 43
SWIDTH 700 0
DWIDTH 6 0
BBX 5 5 0 0
BITMAP
005700
007600
3FFFE0
00B300
00B100
ENDCHAR
STARTCHAR comma
ENCODING 44
SWIDTH 257 0
DWIDTH 2 0
BBX 2 3 0 -1
BITMAP
87
B6
B1
ENDCHAR
STARTCHAR hyphen
ENCODING 45
SWIDTH 403 0
DWIDTH 3 0
BBX 3 1 0 2
BITMAP
6EB0
ENDCHAR
STARTCHAR period
ENCODING 46
SWIDTH 257 0
DWIDTH 2 0
BBX 2 2 0 0
BITMAP
77
98
ENDCHAR
STARTCHAR slash
ENCODING 47
SWIDTH 509 0
DWIDTH 4 0
BBX 5 8 0 0
BITMAP
000750
001E10
008800
01E100
088000
1E1000
880000
B10000
ENDCHAR
STARTCHAR zero
ENCODING 48
SWIDTH 543 0
DWIDTH 4 0
BBX 4 5 0 0
BITMAP
09D7
5B1E
870E
883C
2DD4
ENDCHAR
STARTCHAR one
ENCODING 49
SWIDTH 376 0
DWIDTH 3 0
BBX 3 5 0 0
BITMAP
4C90
3B80
0A60
0C40
0C10
ENDCHAR
STARTCHAR two
ENCODING 50
SWIDTH 560 0
DWIDTH 4 0
BBX 5 5 0 0
BITMAP
0AE900
4A2F00
017A00
18B100
8FED10
ENDCHAR
STARTCHAR three
ENCODING 51
SWIDTH 520 0
DWIDTH 4 0
BBX 4 5 0 0
BITMAP
2BE8
565C
05E4
727B
6ED5
ENDCHAR
STARTCHAR four
ENCODING 52
SWIDTH 577 0
DWIDTH 5 0
BBX 5 5 0 0
BITMAP
068000
1E3C00
6A3C00
8EEF40
006700
ENDCHAR
STARTCHAR five
ENCODING 53
SWIDTH 518 0
DWIDTH 4 0
BBX 4 5 0 0
BITMAP
4EEC
2C00
3ED5
536B
5ED5
ENDCHAR
STARTCHAR six
ENCODING 54
SWIDTH 541 0
DWIDTH 4 0
BBX 5 5 0 0
BITMAP
08EA00
5B1910
8DD700
8A4C00
2DD500
ENDCHAR
STARTCHAR seven
ENCODING 55
SWIDTH 497 0
DWIDTH 4 0
BBX 5 5 0 0
BITMAP
7EEE10
01C500
089000
0D4000
0D1000
ENDCHAR
STARTCHAR eight
ENCODING 56
SWIDTH 512 0
DWIDTH 4 0
BBX 4 5 0 0
BITMAP
1BE8
5B3C
1EF5
966B
5ED5
ENDCHAR
STARTCHAR nine
ENCODING 57
SWIDTH 541 0
DWIDTH 4 0
BBX 4 5 0 0
BITMAP
1BD6
6B4E
2DCF
735C
5ED3
ENDCHAR
STARTCHAR colon
ENCODING 58
SWIDTH 257 0
DWIDTH 2 0
BBX 2 4 0 0
BITMAP
4A
5C
77
98
ENDCHAR
STARTCHAR semicolon
ENCODING 59
SWIDTH 257 0
DWIDTH 2 0
BBX 2 5 0 -1
BITMAP
4A
5C
87
B6
B1
ENDCHAR
STARTCHAR less
ENCODING 60
SWIDTH 700 0
DWIDTH 6 0
BBX 6 4 0 1
BITMAP
0028D1
2BC710
2CC610
004AB0
ENDCHAR
STARTCHAR equal
ENCODING 61
SWIDTH 700 0
DWIDTH 6 0
BBX 6 3 0 1
BITMAP
2DEED1
000000
5EEEB0
ENDCHAR
STARTCHAR greater
ENCODING 62
SWIDTH 700 0
DWIDTH 6 0
BBX 5 4 0 1
BITMAP
1D8200
028EA0
038D90
5C6100
ENDCHAR
STARTCHAR question
ENCODING 63
SWIDTH 476 0
DWIDTH 4 0
BBX 5 7 0 0
BITMAP
1BEB00
3A1F10
009900
079000
070000
4A0000
5C0000
ENDCHAR
STARTCHAR at
ENCODING 64
SWIDTH 1015 0
DWIDTH 8 0
BBX 8 8 0 -2
BITMAP
005BDD80
08C301A8
3D17D62C
884C782C
A688A688
884E9DB1
2E500261
03ADDB60
ENDCHAR
STARTCHAR A
ENCODING 65
SWIDTH 786 0
DWIDTH 6 0
BBX 8 7 0 0
BITMAP
005CEE80
06D42710
1E306B00
6C00A800
8A01E500
6D18E663
0BE87E90
ENDCHAR
STARTCHAR B
ENCODING 66
SWIDTH 827 0
DWIDTH 7 0
BBX 7 8 0 -1
BITMAP
28CDEC40
875007D0
06B029A0
0979F900
0C504E00
0E307D00
1FEEB300
06000000
ENDCHAR
STARTCHAR C
ENCODING 67
SWIDTH 686 0
DWIDTH 5 0
BBX 7 7 0 0
BITMAP
01AED300
0B808800
3E005500
6B000000
7C000000
2F500430
04CEDA20
ENDCHAR
STARTCHAR D
ENCODING 68
SWIDTH 836 0
DWIDTH 7 0
BBX 7 7 0 0
BITMAP
29DEC500
66405F30
07A00B70
0A600B70
0D401E40
1F22AB00
1EED8100
ENDCHAR
STARTCHAR E
ENCODING 69
SWIDTH 686 0
DWIDTH 5 0
BBX 7 7 0 0
BITMAP
02BED300
0C707A00
0D604600
08FA0000
8B200000
AA001430
2BEEDA20
ENDCHAR
STARTCHAR F
ENCODING 70
SWIDTH 712 0
DWIDTH 6 0
BBX 8 7 0 0
BITMAP
06BDEDC4
3C0D4000
280E3000
00BFEC00
003E0000
907A0000
7EC20000
ENDCHAR
STARTCHAR G
ENCODING 71
SWIDTH 811 0
DWIDTH 6 0
BBX 8 11 0 -4
BITMAP
019ED500
0B905C00
3E003800
6B000000
7B02DE00
2F402D53
05DEDF91
0001C900
000AA500
0048C100
003E6000
ENDCHAR
STARTCHAR H
ENCODING 72
SWIDTH 873 0
DWIDTH 7 0
BBX 9 8 -1 0
BITMAP
0000002D50
05DC00B690
191F21E460
001F04DB10
02EFDDB100
007A089000
00A706B090
00B301BD50
ENDCHAR
STARTCHAR I
ENCODING 73
SWIDTH 495 0
DWIDTH 4 0
BBX 6 7 -1 0
BITMAP
01DFE4
002F10
004D00
006B00
008900
00B700
1CFE50
ENDCHAR
STARTCHAR J
ENCODING 74
SWIDTH 743 0
DWIDTH 6 0
BBX 7 8 0 -1
BITMAP
08DDDC10
5B108900
39009800
0006E500
01B9E200
0883D000
0C4A6000
06E90000
ENDCHAR
STARTCHAR K
ENCODING 75
SWIDTH 937 0
DWIDTH 8 0
BBX 9 7 0 0
BITMAP
1AEE806900
6A1C51D400
370F4B8000
008FF60000
004C7D0000
A2890E6460
5EC205EB10
ENDCHAR
STARTCHAR L
ENCODING 76
SWIDTH 673 0
DWIDTH 5 0
BBX 8 7 -1 0
BITMAP
0007DE60
005D14C0
00A80270
00B60000
00C40000
1BF93055
3EA8DE90
ENDCHAR
STARTCHAR M
ENCODING 77
SWIDTH 1232 0
DWIDTH 10 0
BBX 11 7 0 0
BITMAP
3DA3DC2BE300
A2DA1DB2C600
03F50E70D400
05E01F21F100
07B04E04D000
09806C05C180
09506802DD40
ENDCHAR
STARTCHAR N
ENCODING 78
SWIDTH 884 0
DWIDTH 7 0
BBX 9 7 0 0
BITMAP
3DC2BE5000
A2E9299000
03F50A7000
05E00D4000
07B01F1000
09802F1810
09500BD700
ENDCHAR
STARTCHAR O
ENCODING 79
SWIDTH 816 0
DWIDTH 7 0
BBX 7 7 0 0
BITMAP
01AED500
0B804F20
3E000D50
6B000D50
7B001F20
3E20AA00
07ED9000
ENDCHAR
STARTCHAR P
ENCODING 80
SWIDTH 805 0
DWIDTH 6 0
BBX 7 9 0 -2
BITMAP
007DEA10
08801D70
2C1D0A80
674D2E30
86DEC500
94980000
77C50000
1DE10000
00100000
ENDCHAR
STARTCHAR Q
ENCODING 81
SWIDTH 816 0
DWIDTH 7 0
BBX 7 10 0 -3
BITMAP
019ED500
0B904F20
3E100D50
6B000D50
7B001F30
4E108C00
0ADCD200
003E5000
0007D180
0001BD50
ENDCHAR
STARTCHAR R
ENCODING 82
SWIDTH 880 0
DWIDTH 7 0
BBX 8 7 0 0
BITMAP
019DEB10
0B771D60
3A4C3E30
76DFE300
8598C700
68C55D1A
0BE10BE5
ENDCHAR
STARTCHAR S
ENCODING 83
SWIDTH 693 0
DWIDTH 6 0
BBX 6 7 0 0
BITMAP
06CEB2
1F2098
1F5043
05DC40
5205F2
A601E2
3CED60
ENDCHAR
STARTCHAR T
ENCODING 84
SWIDTH 697 0
DWIDTH 6 0
BBX 8 7 0 0
BITMAP
19CEEED1
970C5000
840F2000
003E0000
005C0000
007A0000
00870000
ENDCHAR
STARTCHAR U
ENCODING 85
SWIDTH 890 0
DWIDTH 7 0
BBX 9 7 0 0
BITMAP
3DD1069000
B3F2099000
02F00C7000
05C01F4000
08907F2000
0A949F4810
06EB1BE700
ENDCHAR
STARTCHAR V
ENCODING 86
SWIDTH 763 0
DWIDTH 6 0
BBX 7 7 1 0
BITMAP
B40BE200
E439A500
F21CD200
F207ED20
E30C4000
B88A0000
4EA10000
ENDCHAR
STARTCHAR W
ENCODING 87
SWIDTH 1217 0
DWIDTH 10 0
BBX 10 7 1 0
BITMAP
B401E13DA0
D404F085E0
E207E06BB0
F20CD00CEB
E23AD02D00
C7B3D4B500
5E707E7000
ENDCHAR
STARTCHAR X
ENCODING 88
SWIDTH 712 0
DWIDTH 6 0
BBX 7 7 0 0
BITMAP
5DC13D10
60C7D500
007F7000
009E0000
07CE3000
5E2A8170
D403DC20
ENDCHAR
STARTCHAR Y
ENCODING 89
SWIDTH 851 0
DWIDTH 7 0
BBX 8 10 0 -3
BITMAP
4DD10590
A1F20990
02F00C70
05C03F40
07B1AE20
02DC4FC8
0007ED30
00995A00
00E1B500
00AD8000
ENDCHAR
STARTCHAR Z
ENCODING 90
SWIDTH 721 0
DWIDTH 6 0
BBX 7 7 0 0
BITMAP
19DEEB10
7900B900
4605D100
001E4000
00BA0000
7DF61290
AD8BEC30
ENDCHAR
STARTCHAR bracketleft
ENCODING 91
SWIDTH 405 0
DWIDTH 3 0
BBX 4 9 0 -1
BITMAP
06EC
0A60
0C50
0E30
0F10
2E00
4D00
6B00
5ED0
ENDCHAR
STARTCHAR backslash
ENCODING 92
SWIDTH 509 0
DWIDTH 4 0
BBX 4 8 0 0
BITMAP
1C00
0E20
0A60
06A0
02E0
00D3
0097
0058
ENDCHAR
STARTCHAR bracketright
ENCODING 93
SWIDTH 405 0
DWIDTH 3 0
BBX 4 9 -1 -1
BITMAP
05EE
002E
004D
005B
0079
0097
00B5
00D3
4ED1
ENDCHAR
STARTCHAR asciicircum
ENCODING 94
SWIDTH 700 0
DWIDTH 6 0
BBX 5 5 0 0
BITMAP
002300
00BB00
04AC10
0B3850
390380
ENDCHAR
STARTCHAR underscore
ENCODING 95
SWIDTH 354 0
DWIDTH 3 0
BBX 4 1 -1 -1
BITMAP
1DE7
ENDCHAR
STARTCHAR grave
ENCODING 96
SWIDTH 600 0
DWIDTH 5 0
BBX 2 3 1 5
BITMAP
50
C3
28
ENDCHAR
STARTCHAR a
ENCODING 97
SWIDTH 470 0
DWIDTH 4 0
BBX 5 4 0 0
BITMAP
0AD400
7A9500
A5D480
6E9D30
ENDCHAR
STARTCHAR b
ENCODING 98
SWIDTH 473 0
DWIDTH 4 0
BBX 5 8 0 0
BITMAP
04E300
0C7500
2B9200
5BA000
7DD600
878E90
787600
2DB100
ENDCHAR
STARTCHAR c
ENCODING 99
SWIDTH 368 0
DWIDTH 3 0
BBX 4 4 0 0
BITMAP
2DB0
9690
B619
4ED4
ENDCHAR
STARTCHAR d
ENCODING 100
SWIDTH 515 0
DWIDTH 4 0
BBX 6 8 0 0
BITMAP
000AA0
002AB0
0068A0
008960
0AFD10
79B900
A5B581
6E9E70
ENDCHAR
STARTCHAR e
ENCODING 101
SWIDTH 393 0
DWIDTH 3 0
BBX 5 4 0 0
BITMAP
2CD000
97C000
AC4910
4DD600
ENDCHAR
STARTCHAR f
ENCODING 102
SWIDTH 371 0
DWIDTH 3 0
BBX 4 11 0 -3
BITMAP
01C7
077A
0D58
2D82
5D70
7B00
8BD8
9B50
8970
7A70
2D30
ENDCHAR
STARTCHAR g
ENCODING 103
SWIDTH 479 0
DWIDTH 4 0
BBX 5 8 0 -4
BITMAP
0AD400
7A9500
A5D780
6DEB10
08D000
79A000
B85000
CB0000
ENDCHAR
STARTCHAR h
ENCODING 104
SWIDTH 502 0
DWIDTH 4 0
BBX 5 8 0 0
BITMAP
04D300
0C7600
2C9200
5C9000
6DBA00
8CB900
8C8790
866E50
ENDCHAR
STARTCHAR i
ENCODING 105
SWIDTH 246 0
DWIDTH 2 0
BBX 3 6 0 0
BITMAP
1C10
0000
4900
8700
9690
5E50
ENDCHAR
STARTCHAR j
ENCODING 106
SWIDTH 254 0
DWIDTH 2 0
BBX 5 10 -2 -4
BITMAP
004B00
000000
004900
007800
008890
00AC30
05F100
3AD000
A68000
9D1000
ENDCHAR
STARTCHAR k
ENCODING 107
SWIDTH 525 0
DWIDTH 4 0
BBX 6 8 0 0
BITMAP
04E300
0C7600
2C9200
5C8000
6CAD00
8C6E00
8CC572
678E80
ENDCHAR
STARTCHAR l
ENCODING 108
SWIDTH 326 0
DWIDTH 3 0
BBX 4 8 0 0
BITMAP
04D3
0C76
2C74
59B1
7B90
8E20
7927
2DC2
ENDCHAR
STARTCHAR m
ENCODING 109
SWIDTH 744 0
DWIDTH 6 0
BBX 7 4 0 0
BITMAP
49A8A900
8DBDB800
9C8C8690
76766E50
ENDCHAR
STARTCHAR n
ENCODING 110
SWIDTH 496 0
DWIDTH 4 0
BBX 5 4 0 0
BITMAP
49A900
8DB800
9C8690
766E50
ENDCHAR
STARTCHAR o
ENCODING 111
SWIDTH 451 0
DWIDTH 4 0
BBX 5 4 0 0
BITMAP
2DD300
96BE70
A6A300
4DA000
ENDCHAR
STARTCHAR p
ENCODING 112
SWIDTH 481 0
DWIDTH 4 0
BBX 6 8 -1 -4
BITMAP
06BE40
079880
098B58
2EEDD4
7B6000
A94000
BB1000
B90000
ENDCHAR
STARTCHAR q
ENCODING 113
SWIDTH 500 0
DWIDTH 4 0
BBX 5 8 0 -3
BITMAP
001500
0AEA00
7A9600
A5D9D0
6DE900
02D900
02D900
00E700
ENDCHAR
STARTCHAR r
ENCODING 114
SWIDTH 455 0
DWIDTH 4 0
BBX 5 4 0 0
BITMAP
49A900
8CC940
9C4E60
770000
ENDCHAR
STARTCHAR s
ENCODING 115
SWIDTH 427 0
DWIDTH 3 0
BBX 5 4 0 0
BITMAP
086000
1E7000
A6F760
5CFB10
ENDCHAR
STARTCHAR t
ENCODING 116
SWIDTH 393 0
DWIDTH 3 0
BBX 5 8 0 0
BITMAP
01C400
098700
0D8400
1EB000
DFD600
4A0000
3C0810
0AE700
ENDCHAR
STARTCHAR u
ENCODING 117
SWIDTH 462 0
DWIDTH 4 0
BBX 5 4 0 0
BITMAP
396700
77B400
9AF380
6CAC20
ENDCHAR
STARTCHAR v
ENCODING 118
SWIDTH 449 0
DWIDTH 4 0
BBX 5 4 0 0
BITMAP
85B600
96EF80
8C9100
5D1000
ENDCHAR
STARTCHAR w
ENCODING 119
SWIDTH 700 0
DWIDTH 6 0
BBX 7 4 0 0
BITMAP
8585B600
97E6DF80
8DCC9100
5D4D1000
ENDCHAR
STARTCHAR x
ENCODING 120
SWIDTH 529 0
DWIDTH 4 0
BBX 6 4 0 0
BITMAP
3E9D40
25F410
A5F173
ADAE80
ENDCHAR
STARTCHAR y
ENCODING 121
SWIDTH 479 0
DWIDTH 4 0
BBX 5 8 0 -4
BITMAP
396700
77B500
9AF780
6CDA10
08D000
799000
B94000
CB0000
ENDCHAR
STARTCHAR z
ENCODING 122
SWIDTH 445 0
DWIDTH 4 0
BBX 5 4 0 0
BITMAP
6EFA00
1A9100
6B0570
2DEA10
ENDCHAR
STARTCHAR braceleft
ENCODING 123
SWIDTH 490 0
DWIDTH 4 0
BBX 5 9 0 -1
BITMAP
006E70
00E300
01F000
04D000
6F6000
089000
088000
098000
04D900
ENDCHAR
STARTCHAR bar
ENCODING 124
SWIDTH 326 0
DWIDTH 3 0
BBX 3 11 0 -3
BITMAP
0670
0960
0B40
0D20
0F00
2D00
4B00
7800
9600
A500
5100
ENDCHAR
STARTCHAR braceright
ENCODING 125
SWIDTH 490 0
DWIDTH 4 0
BBX 5 9 -1 -1
BITMAP
05E700
003D00
003D00
004D00
002EB0
008900
00B600
00D300
3DA000
ENDCHAR
STARTCHAR asciitilde
ENCODING 126
SWIDTH 700 0
DWIDTH 6 0
BBX 5 2 0 2
BITMAP
1CB2C0
585D80
ENDCHAR
STARTCHAR uni00A0
ENCODING 160
SWIDTH 265 0
DWIDTH 2 0
BBX 1 1 0 0
BITMAP
00
ENDCHAR
STARTCHAR exclamdown
ENCODING 161
SWIDTH 340 0
DWIDTH 3 0
BBX 4 8 -1 -4
BITMAP
00C5
00B3
0070
04A0
0870
0D40
2F10
1300
ENDCHAR
STARTCHAR cent
ENCODING 162
SWIDTH 466 0
DWIDTH 4 0
BBX 4 6 0 -1
BITMAP
0080
1AD2
7BB4
9A43
3EC3
0800
ENDCHAR
STARTCHAR sterling
ENCODING 163
SWIDTH 525 0
DWIDTH 4 0
BBX 5 5 0 0
BITMAP
07DB00
2E1610
AFE200
5A0000
BFED00
ENDCHAR
STARTCHAR currency
ENCODING 164
SWIDTH 700 0
DWIDTH 6 0
BBX 4 4 1 0
BITMAP
BDC8
A266
A266
BDC8
ENDCHAR
STARTCHAR yen
ENCODING 165
SWIDTH 497 0
DWIDTH 4 0
BBX 5 5 0 0
BITMAP
861C20
1DB400
7EF800
8EE700
095000
ENDCHAR
STARTCHAR brokenbar
ENCODING 166
SWIDTH 326 0
DWIDTH 3 0
BBX 3 11 0 -3
BITMAP
0670
0960
0B40
0D20
0700
0000
4A00
6900
8700
A500
5100
ENDCHAR
STARTCHAR section
ENCODING 167
SWIDTH 607 0
DWIDTH 5 0
BBX 5 7 0 0
BITMAP
04DD30
0A4760
0AD700
1E2C30
07DC10
582E00
2DE800
ENDCHAR
STARTCHAR dieresis
ENCODING 168
SWIDTH 600 0
DWIDTH 5 0
BBX 3 1 1 5
BITMAP
A4A0
ENDCHAR
STARTCHAR copyright
ENCODING 169
SWIDTH 647 0
DWIDTH 5 0
BBX 6 5 0 3
BITMAP
039930
297791
577354
2A8791
039930
ENDCHAR
STARTCHAR ordfeminine
ENCODING 170
SWIDTH 393 0
DWIDTH 3 0
BBX 4 3 0 4
BITMAP
09C4
49A4
2AA2
ENDCHAR
STARTCHAR guillemotleft
ENCODING 171
SWIDTH 615 0
DWIDTH 5 0
BBX 5 3 0 0
BITMAP
2B5A60
A89A00
1B4A50
ENDCHAR
STARTCHAR logicalnot
ENCODING 172
SWIDTH 700 0
DWIDTH 6 0
BBX 5 3 0 0
BITMAP
3EEED0
0001E0
000040
ENDCHAR
STARTCHAR uni00AD
ENCODING 173
SWIDTH 403 0
DWIDTH 3 0
BBX 3 1 0 2
BITMAP
6EB0
ENDCHAR
STARTCHAR registered
ENCODING 174
SWIDTH 647 0
DWIDTH 5 0
BBX 6 5 0 3
BITMAP
039830
268861
55B654
2A56A1
039930
ENDCHAR
STARTCHAR macron
ENCODING 175
SWIDTH 600 0
DWIDTH 5 0
BBX 3 1 1 4
BITMAP
AE80
ENDCHAR
STARTCHAR degree
ENCODING 176
SWIDTH 385 0
DWIDTH 3 0
BBX 4 3 0 4
BITMAP
0BB0
2992
0CB0
ENDCHAR
STARTCHAR plusminus
ENCODING 177
SWIDTH 700 0
DWIDTH 6 0
BBX 5 5 0 0
BITMAP
005700
0CFFA0
00A400
005100
2EFF50
ENDCHAR
STARTCHAR uni00B2
ENCODING 178
SWIDTH 450 0
DWIDTH 4 0
BBX 4 4 0 3
BITMAP
1BC4
2587
05B1
6FC6
ENDCHAR
STARTCHAR uni00B3
ENCODING 179
SWIDTH 450 0
DWIDTH 4 0
BBX 4 4 0 3
BITMAP
1BC6
14A5
23B5
4CC4
ENDCHAR
STARTCHAR acute
ENCODING 180
SWIDTH 600 0
DWIDTH 5 0
BBX 2 3 2 5
BITMAP
05
6A
91
ENDCHAR
STARTCHAR uni00B5
ENCODING 181
SWIDTH 462 0
DWIDTH 4 0
BBX 5 6 0 -2
BITMAP
496700
87B400
AAF380
BDAC20
B30000
B20000
ENDCHAR
STARTCHAR paragraph
ENCODING 182
SWIDTH 739 0
DWIDTH 6 0
BBX 6 7 0 0
BITMAP
07DFD5
2FFB98
0DF8B6
00B6D3
00D4F1
00F5E0
01D4B0
ENDCHAR
STARTCHAR periodcentered
ENCODING 183
SWIDTH 257 0
DWIDTH 2 0
BBX 2 2 0 1
BITMAP
59
7A
ENDCHAR
STARTCHAR cedilla
ENCODING 184
SWIDTH 600 0
DWIDTH 5 0
BBX 3 3 0 -2
BITMAP
0D70
02B0
6D40
ENDCHAR
STARTCHAR uni00B9
ENCODING 185
SWIDTH 450 0
DWIDTH 4 0
BBX 3 4 0 3
BITMAP
1AE0
02D0
03B0
0490
ENDCHAR
STARTCHAR ordmasculine
ENCODING 186
SWIDTH 408 0
DWIDTH 3 0
BBX 4 3 0 4
BITMAP
1BC2
4985
1BA1
ENDCHAR
STARTCHAR guillemotright
ENCODING 187
SWIDTH 615 0
DWIDTH 5 0
BBX 5 3 0 0
BITMAP
6A5B10
0B8990
7A6B20
ENDCHAR
STARTCHAR onequarter
ENCODING 188
SWIDTH 955 0
DWIDTH 8 0
BBX 8 7 0 0
BITMAP
1AE01300
02D09600
03B3C000
049B4B50
004B49D0
00937CE4
000001A0
ENDCHAR
STARTCHAR onehalf
ENCODING 189
SWIDTH 1024 0
DWIDTH 8 0
BBX 8 7 0 0
BITMAP
1AE01300
02D09600
03B3C000
049B49C7
004B075A
009303C2
00003FD9
ENDCHAR
STARTCHAR threequarters
ENCODING 190
SWIDTH 1035 0
DWIDTH 8 0
BBX 8 7 0 0
BITMAP
1BC60410
14A51D10
23B58700
4CC6D3B3
000A6A7A
001C0CDC
00000075
ENDCHAR
STARTCHAR questiondown
ENCODING 191
SWIDTH 476 0
DWIDTH 4 0
BBX 5 8 -1 -4
BITMAP
001E30
001B20
001500
008600
06D100
2E3300
5D1D00
1BD700
ENDCHAR
STARTCHAR Agrave
ENCODING 192
SWIDTH 786 0
DWIDTH 6 0
BBX 8 10 0 0
BITMAP
004C1000
0006B000
00000000
005CEE80
06D42710
1E306B00
6C00A800
8A01E500
6D18E663
0BE87E90
ENDCHAR
STARTCHAR Aacute
ENCODING 193
SWIDTH 786 0
DWIDTH 6 0
BBX 8 10 0 0
BITMAP
000006B0
00005A20
00000000
005CEE80
06D42710
1E306B00
6C00A800
8A01E500
6D18E663
0BE87E90
ENDCHAR
STARTCHAR Acircumflex
ENCODING 194
SWIDTH 786 0
DWIDTH 6 0
BBX 8 11 0 0
BITMAP
00003400
0001DD00
00077A20
00000000
005CEE80
06D42710
1E306B00
6C00A800
8A01E500
6D18E663
0BE87E90
ENDCHAR
STARTCHAR Atilde
ENCODING 195
SWIDTH 786 0
DWIDTH 6 0
BBX 8 10 0 0
BITMAP
00025140
000A8C50
00000000
005CEE80
06D42710
1E306B00
6C00A800
8A01E500
6D18E663
0BE87E90
ENDCHAR
STARTCHAR Adieresis
ENCODING 196
SWIDTH 786 0
DWIDTH 6 0
BBX 8 9 0 0
BITMAP
00057A30
00000000
005CEE80
06D42710
1E306B00
6C00A800
8A01E500
6D18E663
0BE87E90
ENDCHAR
STARTCHAR Aring
ENCODING 197
SWIDTH 786 0
DWIDTH 6 0
BBX 8 10 0 0
BITMAP
0000BA00
0001AB00
0000C900
005CEE80
06D42710
1E306B00
6C00A800
8A01E500
6D18E663
0BE87E90
ENDCHAR
STARTCHAR AE
ENCODING 198
SWIDTH 1015 0
DWIDTH 8 0
BBX 10 7 0 0
BITMAP
006CAAEE70
07D42F0000
2E205C0000
6B009EED00
8A00E70000
6C07EA0061
0AEA2BED80
ENDCHAR
STARTCHAR Ccedilla
ENCODING 199
SWIDTH 686 0
DWIDTH 5 0
BBX 7 9 0 -2
BITMAP
01AED300
0B808800
3E005500
6B000000
7C000000
3F500430
05EEEA20
004D0000
04D80000
ENDCHAR
STARTCHAR Egrave
ENCODING 200
SWIDTH 686 0
DWIDTH 5 0
BBX 7 10 0 0
BITMAP
04B10000
006A0000
00000000
02BED300
0C707A00
0D604600
08FA0000
8B200000
AA001430
2BEEDA20
ENDCHAR
STARTCHAR Eacute
ENCODING 201
SWIDTH 686 0
DWIDTH 5 0
BBX 7 10 0 0
BITMAP
00006B00
0005A200
00000000
02BED300
0C707A00
0D604600
08FA0000
8B200000
AA001430
2BEEDA20
ENDCHAR
STARTCHAR Ecircumflex
ENCODING 202
SWIDTH 686 0
DWIDTH 5 0
BBX 7 11 0 0
BITMAP
00034000
001DD000
0076B100
00000000
02BED300
0C707A00
0D604600
08FA0000
8B200000
AA001430
2BEEDA20
ENDCHAR
STARTCHAR Edieresis
ENCODING 203
SWIDTH 686 0
DWIDTH 5 0
BBX 7 9 0 0
BITMAP
0067A200
00000000
02BED300
0C707A00
0D604600
08FA0000
8B200000
AA001430
2BEEDA20
ENDCHAR
STARTCHAR Igrave
ENCODING 204
SWIDTH 495 0
DWIDTH 4 0
BBX 6 10 -1 0
BITMAP
04B100
006A00
000000
01DFE4
002F10
004D00
006B00
008900
00B700
1CFE50
ENDCHAR
STARTCHAR Iacute
ENCODING 205
SWIDTH 495 0
DWIDTH 4 0
BBX 6 10 -1 0
BITMAP
00006B
0005A2
000000
01DFE4
002F10
004D00
006B00
008900
00B700
1CFE50
ENDCHAR
STARTCHAR Icircumflex
ENCODING 206
SWIDTH 495 0
DWIDTH 4 0
BBX 6 11 -1 0
BITMAP
000430
001DD0
0076B1
000000
01DFE4
002F10
004D00
006B00
008900
00B700
1CFE50
ENDCHAR
STARTCHAR Idieresis
ENCODING 207
SWIDTH 495 0
DWIDTH 4 0
BBX 6 9 -1 0
BITMAP
0066A2
000000
01DFE4
002F10
004D00
006B00
008900
00B700
1CFE50
ENDCHAR
STARTCHAR Eth
ENCODING 208
SWIDTH 821 0
DWIDTH 7 0
BBX 7 7 0 0
BITMAP
01DEC400
05C05E20
09800C60
AFEC0C50
0F201F20
2E02B900
3EED7000
ENDCHAR
STARTCHAR Ntilde
ENCODING 209
SWIDTH 884 0
DWIDTH 7 0
BBX 9 10 0 0
BITMAP
0004332000
001BAC1000
0000000000
3DC2BE5000
A2E9299000
03F50A7000
05E00D4000
07B01F1000
09802F1810
09500BD700
ENDCHAR
STARTCHAR Ograve
ENCODING 210
SWIDTH 816 0
DWIDTH 7 0
BBX 7 10 0 0
BITMAP
03C20000
005B0000
00000000
01AED500
0B804F20
3E000D50
6B000D50
7B001F20
3E20AA00
07ED9000
ENDCHAR
STARTCHAR Oacute
ENCODING 211
SWIDTH 816 0
DWIDTH 7 0
BBX 7 10 0 0
BITMAP
00004C00
0003B300
00000000
01AED500
0B804F20
3E000D50
6B000D50
7B001F20
3E20AA00
07ED9000
ENDCHAR
STARTCHAR Ocircumflex
ENCODING 212
SWIDTH 816 0
DWIDTH 7 0
BBX 7 11 0 0
BITMAP
00034000
000DD100
00589300
00000000
01AED500
0B804F20
3E000D50
6B000D50
7B001F20
3E20AA00
07ED9000
ENDCHAR
STARTCHAR Otilde
ENCODING 213
SWIDTH 816 0
DWIDTH 7 0
BBX 7 10 0 0
BITMAP
00160500
0098C700
00000000
01AED500
0B804F20
3E000D50
6B000D50
7B001F20
3E20AA00
07ED9000
ENDCHAR
STARTCHAR Odieresis
ENCODING 214
SWIDTH 816 0
DWIDTH 7 0
BBX 7 9 0 0
BITMAP
00488400
00000000
01AED500
0B804F20
3E000D50
6B000D50
7B001F20
3E20AA00
07ED9000
ENDCHAR
STARTCHAR multiply
ENCODING 215
SWIDTH 700 0
DWIDTH 6 0
BBX 5 4 0 1
BITMAP
0A54A0
03ED20
05ED10
1C2960
ENDCHAR
STARTCHAR Oslash
ENCODING 216
SWIDTH 816 0
DWIDTH 7 0
BBX 7 9 0 -1
BITMAP
0000B000
01AEE600
0B879F20
3E0B2D50
6C0C0D50
7B391F20
3E969A00
07FE9000
00C00000
ENDCHAR
STARTCHAR Ugrave
ENCODING 217
SWIDTH 890 0
DWIDTH 7 0
BBX 9 10 0 0
BITMAP
00B6000000
002A500000
0000000000
3DD1069000
B3F2099000
02F00C7000
05C01F4000
08907F2000
0A949F4810
06EB1BE700
ENDCHAR
STARTCHAR Uacute
ENCODING 218
SWIDTH 890 0
DWIDTH 7 0
BBX 9 10 0 0
BITMAP
00001B4000
0000A60000
0000000000
3DD1069000
B3F2099000
02F00C7000
05C01F4000
08907F2000
0A949F4810
06EB1BE700
ENDCHAR
STARTCHAR Ucircumflex
ENCODING 219
SWIDTH 890 0
DWIDTH 7 0
BBX 9 11 0 0
BITMAP
0000610000
0007E60000
000C490000
0000000000
3DD1069000
B3F2099000
02F00C7000
05C01F4000
08907F2000
0A949F4810
06EB1BE700
ENDCHAR
STARTCHAR Udieresis
ENCODING 220
SWIDTH 890 0
DWIDTH 7 0
BBX 9 9 0 0
BITMAP
000B490000
0000000000
3DD1069000
B3F2099000
02F00C7000
05C01F4000
08907F2000
0A949F4810
06EB1BE700
ENDCHAR
STARTCHAR Yacute
ENCODING 221
SWIDTH 851 0
DWIDTH 7 0
BBX 8 13 0 -3
BITMAP
00001A60
00009700
00000000
4DD10590
A1F20990
02F00C70
05C03F40
07B1AE20
02DC4FC8
0007ED30
00995A00
00E1B500
00AD8000
ENDCHAR
STARTCHAR Thorn
ENCODING 222
SWIDTH 776 0
DWIDTH 6 0
BBX 7 10 0 -2
BITMAP
001E1000
003F0000
04DFD700
1DAB3F20
68891F20
96CBC900
95E83000
76F10000
2EC00000
01000000
ENDCHAR
STARTCHAR germandbls
ENCODING 223
SWIDTH 596 0
DWIDTH 5 0
BBX 6 9 0 -2
BITMAP
03CD30
0D3780
4B3C30
78C500
87BD94
9AB8A4
98DD40
A60000
950000
ENDCHAR
STARTCHAR agrave
ENCODING 224
SWIDTH 470 0
DWIDTH 4 0
BBX 5 8 0 0
BITMAP
050000
0B4000
029000
000000
0AD400
7A9500
A5D480
6E9D30
ENDCHAR
STARTCHAR aacute
ENCODING 225
SWIDTH 470 0
DWIDTH 4 0
BBX 5 8 0 0
BITMAP
000500
005B00
009100
000000
0AD400
7A9500
A5D480
6E9D30
ENDCHAR
STARTCHAR acircumflex
ENCODING 226
SWIDTH 470 0
DWIDTH 4 0
BBX 5 8 0 0
BITMAP
00C500
06A900
0B2A00
000000
0AD400
7A9500
A5D480
6E9D30
ENDCHAR
STARTCHAR atilde
ENCODING 227
SWIDTH 470 0
DWIDTH 4 0
BBX 5 7 0 0
BITMAP
043320
1BAC10
000000
0AD400
7A9500
A5D480
6E9D30
ENDCHAR
STARTCHAR adieresis
ENCODING 228
SWIDTH 470 0
DWIDTH 4 0
BBX 5 6 0 0
BITMAP
094B00
000000
0AD400
7A9500
A5D480
6E9D30
ENDCHAR
STARTCHAR aring
ENCODING 229
SWIDTH 470 0
DWIDTH 4 0
BBX 5 7 0 0
BITMAP
02D500
067A00
03D500
0AD400
7A9500
A5D480
6E9D30
ENDCHAR
STARTCHAR ae
ENCODING 230
SWIDTH 653 0
DWIDTH 5 0
BBX 7 4 0 0
BITMAP
0AECD100
7988C100
A5DC4830
6E7DE700
ENDCHAR
STARTCHAR ccedilla
ENCODING 231
SWIDTH 368 0
DWIDTH 3 0
BBX 4 6 0 -2
BITMAP
2DB0
9690
A62A
3FC2
02B0
6D50
ENDCHAR
STARTCHAR egrave
ENCODING 232
SWIDTH 393 0
DWIDTH 3 0
BBX 5 8 0 0
BITMAP
140000
2D0000
065000
000000
2CD000
97C000
AC4910
4DD600
ENDCHAR
STARTCHAR eacute
ENCODING 233
SWIDTH 393 0
DWIDTH 3 0
BBX 5 8 0 0
BITMAP
002300
00A600
019000
000000
2CD000
97C000
AC4910
4DD600
ENDCHAR
STARTCHAR ecircumflex
ENCODING 234
SWIDTH 393 0
DWIDTH 3 0
BBX 5 8 0 0
BITMAP
03D100
0BA400
2A6600
000000
2CD000
97C000
AC4910
4DD600
ENDCHAR
STARTCHAR edieresis
ENCODING 235
SWIDTH 393 0
DWIDTH 3 0
BBX 5 6 0 0
BITMAP
1A5700
000000
2CD000
97C000
AC4910
4DD600
ENDCHAR
STARTCHAR igrave
ENCODING 236
SWIDTH 246 0
DWIDTH 2 0
BBX 3 8 0 0
BITMAP
5000
D200
3700
0000
4900
8700
9690
5E50
ENDCHAR
STARTCHAR iacute
ENCODING 237
SWIDTH 246 0
DWIDTH 2 0
BBX 3 8 0 0
BITMAP
0150
0690
0A10
0000
4900
8700
9690
5E50
ENDCHAR
STARTCHAR icircumflex
ENCODING 238
SWIDTH 246 0
DWIDTH 2 0
BBX 3 8 0 0
BITMAP
1D30
8A70
C390
0000
4900
8700
9690
5E50
ENDCHAR
STARTCHAR idieresis
ENCODING 239
SWIDTH 246 0
DWIDTH 2 0
BBX 3 6 0 0
BITMAP
B490
0000
4900
8700
9690
5E50
ENDCHAR
STARTCHAR eth
ENCODING 240
SWIDTH 451 0
DWIDTH 4 0
BBX 5 8 0 0
BITMAP
0A4510
04FA00
0AC500
007800
2DE900
967800
A5A500
4DB000
ENDCHAR
STARTCHAR ntilde
ENCODING 241
SWIDTH 496 0
DWIDTH 4 0
BBX 5 7 0 0
BITMAP
044220
0B9C20
000000
49A900
8DB800
9C8690
766E50
ENDCHAR
STARTCHAR ograve
ENCODING 242
SWIDTH 451 0
DWIDTH 4 0
BBX 5 8 0 0
BITMAP
140000
2D0000
064000
000000
2DD300
96BE70
A6A300
4DA000
ENDCHAR
STARTCHAR oacute
ENCODING 243
SWIDTH 451 0
DWIDTH 4 0
BBX 5 8 0 0
BITMAP
002300
00A500
019000
000000
2DD300
96BE70
A6A300
4DA000
ENDCHAR
STARTCHAR ocircumflex
ENCODING 244
SWIDTH 451 0
DWIDTH 4 0
BBX 5 8 0 0
BITMAP
03D000
0BA400
2A6500
000000
2DD300
96BE70
A6A300
4DA000
ENDCHAR
STARTCHAR otilde
ENCODING 245
SWIDTH 451 0
DWIDTH 4 0
BBX 5 7 0 0
BITMAP
061400
68B900
000000
2DD300
96BE70
A6A300
4DA000
ENDCHAR
STARTCHAR odieresis
ENCODING 246
SWIDTH 451 0
DWIDTH 4 0
BBX 5 6 0 0
BITMAP
2A6600
000000
2DD300
96BE70
A6A300
4DA000
ENDCHAR
STARTCHAR divide
ENCODING 247
SWIDTH 700 0
DWIDTH 6 0
BBX 5 5 0 0
BITMAP
006600
000000
3EEEC0
000000
00B100
ENDCHAR
STARTCHAR oslash
ENCODING 248
SWIDTH 459 0
DWIDTH 4 0
BBX 5 6 0 -1
BITMAP
009000
2DE200
9ABB60
ABA930
4EC100
090000
ENDCHAR
STARTCHAR ugrave
ENCODING 249
SWIDTH 462 0
DWIDTH 4 0
BBX 5 8 0 0
BITMAP
050000
0D3000
038000
000000
396700
77B400
9AF380
6CAC20
ENDCHAR
STARTCHAR uacute
ENCODING 250
SWIDTH 462 0
DWIDTH 4 0
BBX 5 8 0 0
BITMAP
001500
006900
009100
000000
396700
77B400
9AF380
6CAC20
ENDCHAR
STARTCHAR ucircumflex
ENCODING 251
SWIDTH 462 0
DWIDTH 4 0
BBX 5 8 0 0
BITMAP
01D300
07A700
0B3900
000000
396700
77B400
9AF380
6CAC20
ENDCHAR
STARTCHAR udieresis
ENCODING 252
SWIDTH 462 0
DWIDTH 4 0
BBX 5 6 0 0
BITMAP
0A4900
000000
396700
77B400
9AF380
6CAC20
ENDCHAR
STARTCHAR yacute
ENCODING 253
SWIDTH 479 0
DWIDTH 4 0
BBX 5 12 0 -4
BITMAP
001500
006900
009100
000000
396700
77B500
9AF780
6CDA10
08D000
799000
B94000
CB0000
ENDCHAR
STARTCHAR thorn
ENCODING 254
SWIDTH 508 0
DWIDTH 4 0
BBX 5 10 0 -3
BITMAP
060000
1E0000
4B0000
6AD800
8D5B00
989790
BECE60
B30000
C30000
B20000
ENDCHAR
STARTCHAR ydieresis
ENCODING 255
SWIDTH 479 0
DWIDTH 4 0
BBX 5 10 0 -4
BITMAP
0A4900
000000
396700
77B500
9AF780
6CDA10
08D000
799000
B94000
CB0000
ENDCHAR
STARTCHAR Amacron
ENCODING 256
SWIDTH 786 0
DWIDTH 6 0
BBX 8 8 0 0
BITMAP
0005ED00
005CEE80
06D42710
1E306B00
6C00A800
8A01E500
6D18E663
0BE87E90
ENDCHAR
STARTCHAR amacron
ENCODING 257
SWIDTH 470 0
DWIDTH 4 0
BBX 5 5 0 0
BITMAP
09E900
0AD400
7A9500
A5D480
6E9D30
ENDCHAR
STARTCHAR Abreve
ENCODING 258
SWIDTH 786 0
DWIDTH 6 0
BBX 8 9 0 0
BITMAP
00052240
0005DC30
005CEE80
06D42710
1E306B00
6C00A800
8A01E500
6D18E663
0BE87E90
ENDCHAR
STARTCHAR abreve
ENCODING 259
SWIDTH 470 0
DWIDTH 4 0
BBX 5 6 0 0
BITMAP
0D1A20
08D800
0AD400
7A9500
A5D480
6E9D30
ENDCHAR
STARTCHAR Aogonek
ENCODING 260
SWIDTH 786 0
DWIDTH 6 0
BBX 8 9 0 -2
BITMAP
005CDE80
06D32700
1E207B00
6C00A800
8A00E500
6C07F553
0BE87F80
00006700
00004C60
ENDCHAR
STARTCHAR aogonek
ENCODING 261
SWIDTH 470 0
DWIDTH 4 0
BBX 5 6 0 -2
BITMAP
0AD400
7A9500
A5D480
6EBC20
00C000
00BD10
ENDCHAR
STARTCHAR Cacute
ENCODING 262
SWIDTH 686 0
DWIDTH 5 0
BBX 7 10 0 0
BITMAP
00005C00
0003B300
00000000
01AED300
0B808800
3E005500
6B000000
7C000000
2F500430
04CEDA20
ENDCHAR
STARTCHAR cacute
ENCODING 263
SWIDTH 368 0
DWIDTH 3 0
BBX 4 8 0 0
BITMAP
0023
00A5
0190
0000
2DB0
9690
B619
4ED4
ENDCHAR
STARTCHAR Ccircumflex
ENCODING 264
SWIDTH 686 0
DWIDTH 5 0
BBX 7 11 0 0
BITMAP
00034000
001DD000
00689300
00000000
01AED300
0B808800
3E005500
6B000000
7C000000
2F500430
04CEDA20
ENDCHAR
STARTCHAR ccircumflex
ENCODING 265
SWIDTH 368 0
DWIDTH 3 0
BBX 4 8 0 0
BITMAP
03D0
0BA3
2965
0000
2DB0
9690
B619
4ED4
ENDCHAR
STARTCHAR Cdotaccent
ENCODING 266
SWIDTH 686 0
DWIDTH 5 0
BBX 7 9 0 0
BITMAP
00087000
00000000
01AED300
0B808800
3E005500
6B000000
7C000000
2F500430
04CEDA20
ENDCHAR
STARTCHAR cdotaccent
ENCODING 267
SWIDTH 368 0
DWIDTH 3 0
BBX 4 6 0 0
BITMAP
0590
0000
2DB0
9690
B619
4ED4
ENDCHAR
STARTCHAR Ccaron
ENCODING 268
SWIDTH 686 0
DWIDTH 5 0
BBX 7 10 0 0
BITMAP
00298500
000A9000
00000000
01AED300
0B808800
3E005500
6B000000
7C000000
2F500430
04CEDA20
ENDCHAR
STARTCHAR ccaron
ENCODING 269
SWIDTH 368 0
DWIDTH 3 0
BBX 4 8 0 0
BITMAP
0B2A
0BA4
06B0
0000
2DB0
9690
B619
4ED4
ENDCHAR
STARTCHAR Dcaron
ENCODING 270
SWIDTH 836 0
DWIDTH 7 0
BBX 7 10 0 0
BITMAP
0065B100
001D6000
00000000
29DEC500
66405F30
07A00B70
0A600B70
0D401E40
1F22AB00
1EED8100
ENDCHAR
STARTCHAR dcaron
ENCODING 271
SWIDTH 470 0
DWIDTH 4 0
BBX 6 8 0 0
BITMAP
000073
000DA1
002E00
004B00
0AE800
7A9500
A5D480
6E9D30
ENDCHAR
STARTCHAR Dcroat
ENCODING 272
SWIDTH 821 0
DWIDTH 7 0
BBX 7 7 0 0
BITMAP
01DEC400
05C05E20
09800C60
AFEC0C50
0F201F20
2E02B900
3EED7000
ENDCHAR
STARTCHAR dcroat
ENCODING 273
SWIDTH 470 0
DWIDTH 4 0
BBX 5 7 0 0
BITMAP
000E10
09EF40
004A00
0AE800
7A9500
A5D480
6E9D30
ENDCHAR
STARTCHAR Emacron
ENCODING 274
SWIDTH 686 0
DWIDTH 5 0
BBX 7 8 0 0
BITMAP
005ED000
02BED300
0C707A00
0D604600
08FA0000
8B200000
AA001430
2BEEDA20
ENDCHAR
STARTCHAR emacron
ENCODING 275
SWIDTH 393 0
DWIDTH 3 0
BBX 5 5 0 0
BITMAP
1DE400
2CD000
97C000
AC4910
4DD600
ENDCHAR
STARTCHAR Ebreve
ENCODING 276
SWIDTH 686 0
DWIDTH 5 0
BBX 7 9 0 0
BITMAP
00513400
005DC200
02BED300
0C707A00
0D604600
08FA0000
8B200000
AA001430
2BEEDA20
ENDCHAR
STARTCHAR ebreve
ENCODING 277
SWIDTH 393 0
DWIDTH 3 0
BBX 5 6 0 0
BITMAP
592B00
1BD400
2CD000
97C000
AC4910
4DD600
ENDCHAR
STARTCHAR Edotaccent
ENCODING 278
SWIDTH 686 0
DWIDTH 5 0
BBX 7 9 0 0
BITMAP
00095000
00000000
02BED300
0C707A00
0D604600
08FA0000
8B200000
AA001430
2BEEDA20
ENDCHAR
STARTCHAR edotaccent
ENCODING 279
SWIDTH 393 0
DWIDTH 3 0
BBX 5 6 0 0
BITMAP
05A000
000000
2CD000
97C000
AC4910
4DD600
ENDCHAR
STARTCHAR Eogonek
ENCODING 280
SWIDTH 686 0
DWIDTH 5 0
BBX 7 9 0 -2
BITMAP
02BED300
0C707A00
0D604600
08FA0000
8B200000
AA001430
3BEEC920
00490000
002D9000
ENDCHAR
STARTCHAR eogonek
ENCODING 281
SWIDTH 393 0
DWIDTH 3 0
BBX 5 6 0 -2
BITMAP
2CD000
97C000
AC4910
3DD500
0A2000
07C300
ENDCHAR
STARTCHAR Ecaron
ENCODING 282
SWIDTH 686 0
DWIDTH 5 0
BBX 7 10 0 0
BITMAP
00489300
000B8000
00000000
02BED300
0C707A00
0D604600
08FA0000
8B200000
AA001430
2BEEDA20
ENDCHAR
STARTCHAR ecaron
ENCODING 283
SWIDTH 393 0
DWIDTH 3 0
BBX 5 8 0 0
BITMAP
0B2A00
0AA500
06B000
000000
2CD000
97C000
AC4910
4DD600
ENDCHAR
STARTCHAR Gcircumflex
ENCODING 284
SWIDTH 811 0
DWIDTH 6 0
BBX 8 15 0 -4
BITMAP
00025000
000CE200
004A7500
00000000
019ED500
0B905C00
3E003800
6B000000
7B02DE00
2F402D53
05DEDF91
0001C900
000AA500
0048C100
003E6000
ENDCHAR
STARTCHAR gcircumflex
ENCODING 285
SWIDTH 479 0
DWIDTH 4 0
BBX 5 12 0 -4
BITMAP
00C500
06A900
0B2A00
000000
0AD400
7A9500
A5D780
6DEB10
08D000
79A000
B85000
CB0000
ENDCHAR
STARTCHAR Gbreve
ENCODING 286
SWIDTH 811 0
DWIDTH 6 0
BBX 8 13 0 -4
BITMAP
00431500
003DD500
019ED500
0B905C00
3E003800
6B000000
7B02DE00
2F402D53
05DEDF91
0001C900
000AA500
0048C100
003E6000
ENDCHAR
STARTCHAR gbreve
ENCODING 287
SWIDTH 479 0
DWIDTH 4 0
BBX 5 10 0 -4
BITMAP
0D1A20
08D800
0AD400
7A9500
A5D780
6DEB10
08D000
79A000
B85000
CB0000
ENDCHAR
STARTCHAR Gdotaccent
ENCODING 288
SWIDTH 811 0
DWIDTH 6 0
BBX 8 13 0 -4
BITMAP
00069000
00000000
019ED500
0B905C00
3E003800
6B000000
7B02DE00
2F402D53
05DEDF91
0001C900
000AA500
0048C100
003E6000
ENDCHAR
STARTCHAR gdotaccent
ENCODING 289
SWIDTH 479 0
DWIDTH 4 0
BBX 5 10 0 -4
BITMAP
01C200
000000
0AD400
7A9500
A5D780
6DEB10
08D000
79A000
B85000
CB0000
ENDCHAR
STARTCHAR uni0122
ENCODING 290
SWIDTH 811 0
DWIDTH 6 0
BBX 8 11 0 -4
BITMAP
019ED500
0B905C00
3E003800
6B000000
7B02DE00
2F402D53
05DEDF91
0371C900
056AA500
0048C100
003E6000
ENDCHAR
STARTCHAR uni0123
ENCODING 291
SWIDTH 479 0
DWIDTH 4 0
BBX 5 11 0 -4
BITMAP
00A200
00A000
000000
0AD400
7A9500
A5D780
6DEB10
08D000
79A000
B85000
CB0000
ENDCHAR
STARTCHAR Hcircumflex
ENCODING 292
SWIDTH 873 0
DWIDTH 7 0
BBX 9 11 -1 0
BITMAP
0000060000
00008E6000
0000C49000
0000002D50
05DC00B690
191F21E460
001F04DB10
02EFDDB100
007A089000
00A706B090
00B301BD50
ENDCHAR
STARTCHAR hcircumflex
ENCODING 293
SWIDTH 502 0
DWIDTH 4 0
BBX 5 12 0 0
BITMAP
004300
02DC00
085C00
000000
04D300
0C7600
2C9200
5C9000
6DBA00
8CB900
8C8790
866E50
ENDCHAR
STARTCHAR Hbar
ENCODING 294
SWIDTH 856 0
DWIDTH 7 0
BBX 7 7 0 0
BITMAP
05A00A50
2EEDDFC0
0A700F20
6FEEEF90
0E205C00
2F007A00
2C007700
ENDCHAR
STARTCHAR hbar
ENCODING 295
SWIDTH 502 0
DWIDTH 4 0
BBX 5 7 0 0
BITMAP
0A4000
6FE600
3D0000
5AAA00
7DB900
8C8790
776E60
ENDCHAR
STARTCHAR Itilde
ENCODING 296
SWIDTH 495 0
DWIDTH 4 0
BBX 6 10 -1 0
BITMAP
002514
00B8C5
000000
01DFE4
002F10
004D00
006B00
008900
00B700
1CFE50
ENDCHAR
STARTCHAR itilde
ENCODING 297
SWIDTH 246 0
DWIDTH 2 0
BBX 5 7 -1 0
BITMAP
052310
2AAB00
000000
049000
087000
096900
05E500
ENDCHAR
STARTCHAR Imacron
ENCODING 298
SWIDTH 495 0
DWIDTH 4 0
BBX 6 8 -1 0
BITMAP
005ED0
01DFE4
002F10
004D00
006B00
008900
00B700
1CFE50
ENDCHAR
STARTCHAR imacron
ENCODING 299
SWIDTH 246 0
DWIDTH 2 0
BBX 3 5 0 0
BITMAP
BE70
4900
8700
9690
5E50
ENDCHAR
STARTCHAR Ibreve
ENCODING 300
SWIDTH 495 0
DWIDTH 4 0
BBX 6 9 -1 0
BITMAP
005134
006DC2
01DFE4
002F10
004D00
006B00
008900
00B700
1CFE50
ENDCHAR
STARTCHAR ibreve
ENCODING 301
SWIDTH 246 0
DWIDTH 2 0
BBX 5 6 -1 0
BITMAP
2C1C10
09D700
049000
087000
096900
05E500
ENDCHAR
STARTCHAR Iogonek
ENCODING 302
SWIDTH 495 0
DWIDTH 4 0
BBX 6 9 -1 -2
BITMAP
01DFE4
002F10
004D00
006B00
008900
00B700
1CFE50
02B000
01CB00
ENDCHAR
STARTCHAR iogonek
ENCODING 303
SWIDTH 246 0
DWIDTH 2 0
BBX 3 8 0 -2
BITMAP
2C00
0000
4900
8700
97A0
6D30
B200
7C20
ENDCHAR
STARTCHAR Idotaccent
ENCODING 304
SWIDTH 495 0
DWIDTH 4 0
BBX 6 9 -1 0
BITMAP
000950
000000
01DFE4
002F10
004D00
006B00
008900
00B700
1CFE50
ENDCHAR
STARTCHAR dotlessi
ENCODING 305
SWIDTH 246 0
DWIDTH 2 0
BBX 3 4 0 0
BITMAP
4900
8700
9690
5E50
ENDCHAR
STARTCHAR Jcircumflex
ENCODING 308
SWIDTH 743 0
DWIDTH 6 0
BBX 7 12 0 -1
BITMAP
00052000
004EA000
00A4C000
00000000
08DDDC10
5B108900
39009800
0006E500
01B9E200
0883D000
0C4A6000
06E90000
ENDCHAR
STARTCHAR jcircumflex
ENCODING 309
SWIDTH 254 0
DWIDTH 2 0
BBX 5 12 -2 -4
BITMAP
001D30
008A70
00C390
000000
004900
007800
008890
00AC30
05F100
3AD000
A68000
9D1000
ENDCHAR
STARTCHAR uni0136
ENCODING 310
SWIDTH 937 0
DWIDTH 8 0
BBX 9 9 0 -2
BITMAP
1AEE806900
6A1C51D400
370F4B8000
008FF60000
004C7D0000
A2890E6460
5EC205EB10
0005500000
0007400000
ENDCHAR
STARTCHAR uni0137
ENCODING 311
SWIDTH 525 0
DWIDTH 4 0
BBX 6 11 0 -3
BITMAP
04E300
0C7600
2C9200
5C8000
6CAD00
8C6E00
8CC572
678E80
000000
094000
091000
ENDCHAR
STARTCHAR kgreenlandic
ENCODING 312
SWIDTH 465 0
DWIDTH 4 0
BBX 5 4 0 0
BITMAP
49BC00
8D8900
9F7280
78CD30
ENDCHAR
STARTCHAR Lacute
ENCODING 313
SWIDTH 673 0
DWIDTH 5 0
BBX 8 10 -1 0
BITMAP
000003D1
00001B40
00000000
0007DE60
005D14C0
00A80270
00B60000
00C40000
1BF93055
3EA8DE90
ENDCHAR
STARTCHAR lacute
ENCODING 314
SWIDTH 326 0
DWIDTH 3 0
BBX 5 11 0 0
BITMAP
000790
006910
000000
04D300
0C7600
2C7400
59B100
7B9000
8E2000
792700
2DC200
ENDCHAR
STARTCHAR uni013B
ENCODING 315
SWIDTH 673 0
DWIDTH 5 0
BBX 8 9 -1 -2
BITMAP
0007DE60
005D14C0
00A80270
00B60000
00C40000
1BF93055
3EA8DE90
000A0000
000B0000
ENDCHAR
STARTCHAR uni013C
ENCODING 316
SWIDTH 326 0
DWIDTH 3 0
BBX 4 11 0 -3
BITMAP
04D3
0C76
2C74
59B1
7B90
8E20
7927
2DC2
0000
1C00
1900
ENDCHAR
STARTCHAR Lcaron
ENCODING 317
SWIDTH 673 0
DWIDTH 5 0
BBX 9 7 -1 0
BITMAP
0007DE6910
005D14CA00
00A8027000
00B6000000
00C4000000
1BF9305500
3EA8DE9000
ENDCHAR
STARTCHAR lcaron
ENCODING 318
SWIDTH 237 0
DWIDTH 2 0
BBX 4 8 0 0
BITMAP
0055
0BA3
0F10
3D00
6900
8700
9690
6E40
ENDCHAR
STARTCHAR Ldot
ENCODING 319
SWIDTH 673 0
DWIDTH 5 0
BBX 8 7 -1 0
BITMAP
0007DE60
005D14C0
00A80270
00B69500
00C40000
1BF93055
3EA8DE90
ENDCHAR
STARTCHAR ldot
ENCODING 320
SWIDTH 363 0
DWIDTH 3 0
BBX 4 8 0 0
BITMAP
0760
0C40
1F10
3CE2
6920
8700
981A
3DD3
ENDCHAR
STARTCHAR Lslash
ENCODING 321
SWIDTH 673 0
DWIDTH 5 0
BBX 8 9 -1 0
BITMAP
0006CDB0
00093000
0007DE50
005D14C0
00A80280
00B60000
00C40000
1BF93055
3EA8DE90
ENDCHAR
STARTCHAR lslash
ENCODING 322
SWIDTH 326 0
DWIDTH 3 0
BBX 5 9 0 0
BITMAP
03BD70
0C5000
05E400
0D6600
4A8300
69A000
8E3000
792600
2DC200
ENDCHAR
STARTCHAR Nacute
ENCODING 323
SWIDTH 884 0
DWIDTH 7 0
BBX 9 10 0 0
BITMAP
00000A7000
0000971000
0000000000
3DC2BE5000
A2E9299000
03F50A7000
05E00D4000
07B01F1000
09802F1810
09500BD700
ENDCHAR
STARTCHAR nacute
ENCODING 324
SWIDTH 496 0
DWIDTH 4 0
BBX 5 8 0 0
BITMAP
000500
004B00
008200
000000
49A900
8DB800
9C8690
766E50
ENDCHAR
STARTCHAR uni0145
ENCODING 325
SWIDTH 884 0
DWIDTH 7 0
BBX 9 9 0 -2
BITMAP
3DC2BE5000
A2E9299000
03F50A7000
05E00D4000
07B01F1000
09802F1810
09500BD700
0019000000
0019000000
ENDCHAR
STARTCHAR uni0146
ENCODING 326
SWIDTH 496 0
DWIDTH 4 0
BBX 5 7 0 -3
BITMAP
49A900
8DB800
9C8690
766E50
000000
094000
091000
ENDCHAR
STARTCHAR Ncaron
ENCODING 327
SWIDTH 884 0
DWIDTH 7 0
BBX 9 10 0 0
BITMAP
00084B0000
0002D40000
0000000000
3DC2BE5000
A2E9299000
03F50A7000
05E00D4000
07B01F1000
09802F1810
09500BD700
ENDCHAR
STARTCHAR ncaron
ENCODING 328
SWIDTH 496 0
DWIDTH 4 0
BBX 5 8 0 0
BITMAP
065A20
04AA00
01D300
000000
49A900
8DB800
9C8690
766E50
ENDCHAR
STARTCHAR napostrophe
ENCODING 329
SWIDTH 496 0
DWIDTH 4 0
BBX 5 7 0 0
BITMAP
C00000
A00000
000000
49A900
8DB800
9C8690
766E50
ENDCHAR
STARTCHAR Eng
ENCODING 330
SWIDTH 884 0
DWIDTH 7 0
BBX 9 10 0 -3
BITMAP
3DB2BE4000
A2E9298000
03F50A7000
05E00D4000
07B01F1000
09804D0710
09508ED700
0000B40000
0643D00000
03CD300000
ENDCHAR
STARTCHAR eng
ENCODING 331
SWIDTH 495 0
DWIDTH 4 0
BBX 5 7 0 -3
BITMAP
49A900
8DB800
9C8690
76BE50
00C000
658000
6B1000
ENDCHAR
STARTCHAR Omacron
ENCODING 332
SWIDTH 816 0
DWIDTH 7 0
BBX 7 8 0 0
BITMAP
003ED200
01AED500
0B804F20
3E000D50
6B000D50
7B001F20
3E20AA00
07ED9000
ENDCHAR
STARTCHAR omacron
ENCODING 333
SWIDTH 451 0
DWIDTH 4 0
BBX 5 5 0 0
BITMAP
1DE400
2DD300
96BE70
A6A300
4DA000
ENDCHAR
STARTCHAR Obreve
ENCODING 334
SWIDTH 816 0
DWIDTH 7 0
BBX 7 9 0 0
BITMAP
00422500
004DC400
01AED500
0B804F20
3E000D50
6B000D50
7B001F20
3E20AA00
07ED9000
ENDCHAR
STARTCHAR obreve
ENCODING 335
SWIDTH 451 0
DWIDTH 4 0
BBX 5 6 0 0
BITMAP
582B00
1BD400
2DD300
96BE70
A6A300
4DA000
ENDCHAR
STARTCHAR Ohungarumlaut
ENCODING 336
SWIDTH 816 0
DWIDTH 7 0
BBX 7 10 0 0
BITMAP
000B6700
001A8300
00000000
01AED500
0B804F20
3E000D50
6B000D50
7B001F20
3E20AA00
07ED9000
ENDCHAR
STARTCHAR ohungarumlaut
ENCODING 337
SWIDTH 451 0
DWIDTH 4 0
BBX 5 8 0 0
BITMAP
023500
088D00
0A6400
000000
2DD300
96BE70
A6A300
4DA000
ENDCHAR
STARTCHAR OE
ENCODING 338
SWIDTH 1124 0
DWIDTH 9 0
BBX 10 7 0 0
BITMAP
01AED5CEE5
0B804FD000
3E000DA000
6B000DEEB0
7B001F5000
3E20AF8016
07EE83CED7
ENDCHAR
STARTCHAR oe
ENCODING 339
SWIDTH 668 0
DWIDTH 5 0
BBX 7 4 0 0
BITMAP
2DCAD200
9699B300
A5AD5740
4DACE800
ENDCHAR
STARTCHAR Racute
ENCODING 340
SWIDTH 880 0
DWIDTH 7 0
BBX 8 10 0 0
BITMAP
00002D20
0001B500
00000000
019DEB10
0B771D60
3A4C3E30
76DFE300
8598C700
68C55D1A
0BE10BE5
ENDCHAR
STARTCHAR racute
ENCODING 341
SWIDTH 455 0
DWIDTH 4 0
BBX 5 8 0 0
BITMAP
001500
006900
00A100
000000
49A900
8CC940
9C4E60
770000
ENDCHAR
STARTCHAR uni0156
ENCODING 342
SWIDTH 880 0
DWIDTH 7 0
BBX 8 9 0 -2
BITMAP
019DEB10
0B771D60
3A4C3E30
76DFE300
8598C700
68C55D1A
0BE10BE5
00064000
00082000
ENDCHAR
STARTCHAR uni0157
ENCODING 343
SWIDTH 455 0
DWIDTH 4 0
BBX 5 7 0 -3
BITMAP
49A900
8CC940
9C4E60
770000
000000
940000
910000
ENDCHAR
STARTCHAR Rcaron
ENCODING 344
SWIDTH 880 0
DWIDTH 7 0
BBX 8 10 0 0
BITMAP
000B4800
0006C100
00000000
019DEB10
0B771D60
3A4C3E30
76DFE300
8598C700
68C55D1A
0BE10BE5
ENDCHAR
STARTCHAR rcaron
ENCODING 345
SWIDTH 455 0
DWIDTH 4 0
BBX 5 8 0 0
BITMAP
083B00
07A800
03D100
000000
49A900
8CC940
9C4E60
770000
ENDCHAR
STARTCHAR Sacute
ENCODING 346
SWIDTH 693 0
DWIDTH 6 0
BBX 6 10 0 0
BITMAP
0000A6
000970
000000
06CEB2
1F2098
1F5043
05DC40
5205F2
A601E2
3CED60
ENDCHAR
STARTCHAR sacute
ENCODING 347
SWIDTH 427 0
DWIDTH 3 0
BBX 5 8 0 0
BITMAP
002300
00A500
019000
000000
086000
1E7000
A6F760
5CFB10
ENDCHAR
STARTCHAR Scircumflex
ENCODING 348
SWIDTH 693 0
DWIDTH 6 0
BBX 6 11 0 0
BITMAP
000610
005E80
00B3B0
000000
06CEB2
1F2098
1F5043
05DC40
5205F2
A601E2
3CED60
ENDCHAR
STARTCHAR scircumflex
ENCODING 349
SWIDTH 427 0
DWIDTH 3 0
BBX 5 8 0 0
BITMAP
03D100
0BA400
2A6600
000000
086000
1E7000
A6F760
5CFB10
ENDCHAR
STARTCHAR Scedilla
ENCODING 350
SWIDTH 693 0
DWIDTH 6 0
BBX 6 9 0 -2
BITMAP
06CEB2
1F2097
1F6043
04DD50
5305F2
A702E2
2AFB40
006700
0AD200
ENDCHAR
STARTCHAR scedilla
ENCODING 351
SWIDTH 427 0
DWIDTH 3 0
BBX 5 6 0 -2
BITMAP
086000
1E6000
96E450
6CFB10
02A000
5C5000
ENDCHAR
STARTCHAR Scaron
ENCODING 352
SWIDTH 693 0
DWIDTH 6 0
BBX 6 10 0 0
BITMAP
0084B0
003D40
000000
06CEB2
1F2098
1F5043
05DC40
5205F2
A601E2
3CED60
ENDCHAR
STARTCHAR scaron
ENCODING 353
SWIDTH 427 0
DWIDTH 3 0
BBX 5 8 0 0
BITMAP
0B2A00
0AA400
06B000
000000
086000
1E7000
A6F760
5CFB10
ENDCHAR
STARTCHAR uni0162
ENCODING 354
SWIDTH 697 0
DWIDTH 6 0
BBX 8 9 0 -2
BITMAP
19CEEED1
970C5000
950F2000
002F0000
005D0000
007B0000
00890000
00DA0000
05D80000
ENDCHAR
STARTCHAR uni0163
ENCODING 355
SWIDTH 393 0
DWIDTH 3 0
BBX 5 9 0 -2
BITMAP
03D500
0B8600
1DA100
DFD600
4A0000
3D1910
0DE600
03B000
5D6000
ENDCHAR
STARTCHAR Tcaron
ENCODING 356
SWIDTH 697 0
DWIDTH 6 0
BBX 8 10 0 0
BITMAP
000B5700
0008B100
00000000
19CEEED1
970C5000
840F2000
003E0000
005C0000
007A0000
00870000
ENDCHAR
STARTCHAR tcaron
ENCODING 357
SWIDTH 343 0
DWIDTH 3 0
BBX 4 8 0 0
BITMAP
0028
0466
0C40
0F10
BFC1
5A00
6917
2DC3
ENDCHAR
STARTCHAR Tbar
ENCODING 358
SWIDTH 697 0
DWIDTH 6 0
BBX 8 7 0 0
BITMAP
29CEEED1
A70C5000
741F2000
06EFD300
005C0000
007A0000
00870000
ENDCHAR
STARTCHAR tbar
ENCODING 359
SWIDTH 343 0
DWIDTH 3 0
BBX 4 7 0 0
BITMAP
0420
0C40
1F10
BFD1
EEA0
6929
2DC3
ENDCHAR
STARTCHAR Utilde
ENCODING 360
SWIDTH 890 0
DWIDTH 7 0
BBX 9 10 0 0
BITMAP
0005241000
003AAB0000
0000000000
3DD1069000
B3F2099000
02F00C7000
05C01F4000
08907F2000
0A949F4810
06EB1BE700
ENDCHAR
STARTCHAR utilde
ENCODING 361
SWIDTH 462 0
DWIDTH 4 0
BBX 5 7 0 0
BITMAP
052310
2AAB00
000000
396700
77B400
9AF380
6CAC20
ENDCHAR
STARTCHAR Umacron
ENCODING 362
SWIDTH 890 0
DWIDTH 7 0
BBX 9 8 0 0
BITMAP
000BE70000
3DD1069000
B3F2099000
02F00C7000
05C01F4000
08907F2000
0A949F4810
06EB1BE700
ENDCHAR
STARTCHAR umacron
ENCODING 363
SWIDTH 462 0
DWIDTH 4 0
BBX 5 5 0 0
BITMAP
0BE700
396700
77B400
9AF380
6CAC20
ENDCHAR
STARTCHAR Ubreve
ENCODING 364
SWIDTH 890 0
DWIDTH 7 0
BBX 9 9 0 0
BITMAP
0016060000
000BD90000
3DD1069000
B3F2099000
02F00C7000
05C01F4000
08907F2000
0A949F4810
06EB1BE700
ENDCHAR
STARTCHAR ubreve
ENCODING 365
SWIDTH 462 0
DWIDTH 4 0
BBX 5 6 0 0
BITMAP
1C1C10
09D700
396700
77B400
9AF380
6CAC20
ENDCHAR
STARTCHAR Uring
ENCODING 366
SWIDTH 890 0
DWIDTH 7 0
BBX 9 10 0 0
BITMAP
0004D40000
0009780000
0005D30000
3DD1069000
B3F2099000
02F00C7000
05C01F4000
08907F2000
0A949F4810
06EB1BE700
ENDCHAR
STARTCHAR uring
ENCODING 367
SWIDTH 462 0
DWIDTH 4 0
BBX 5 7 0 0
BITMAP
03D400
087800
04D300
396700
77B400
9AF380
6CAC20
ENDCHAR
STARTCHAR Uhungarumlaut
ENCODING 368
SWIDTH 890 0
DWIDTH 7 0
BBX 9 10 0 0
BITMAP
00057C0000
0008580000
0000000000
3DD1069000
B3F2099000
02F00C7000
05C01F4000
08907F2000
0A949F4810
06EB1BE700
ENDCHAR
STARTCHAR uhungarumlaut
ENCODING 369
SWIDTH 462 0
DWIDTH 4 0
BBX 5 8 0 0
BITMAP
005410
04AC20
084800
000000
396700
77B400
9AF380
6CAC20
ENDCHAR
STARTCHAR Uogonek
ENCODING 370
SWIDTH 890 0
DWIDTH 7 0
BBX 9 9 0 -2
BITMAP
4DD1068000
A1F2099000
02F10C7000
05C01F4000
08906F2000
0A829F2710
06EB1AE700
0000058000
000003C700
ENDCHAR
STARTCHAR uogonek
ENCODING 371
SWIDTH 462 0
DWIDTH 4 0
BBX 5 6 0 -2
BITMAP
396700
77B400
9AF480
6CBB10
00C000
00AB00
ENDCHAR
STARTCHAR Wcircumflex
ENCODING 372
SWIDTH 1217 0
DWIDTH 10 0
BBX 10 11 1 0
BITMAP
0000430000
0003DB0000
00095C0000
0000000000
B401E13DA0
D404F085E0
E207E06BB0
F20CD00CEB
E23AD02D00
C7B3D4B500
5E707E7000
ENDCHAR
STARTCHAR wcircumflex
ENCODING 373
SWIDTH 700 0
DWIDTH 6 0
BBX 7 8 0 0
BITMAP
004D0000
00CB3000
03974000
00000000
8585B600
97E6DF80
8DCC9100
5D4D1000
ENDCHAR
STARTCHAR Ycircumflex
ENCODING 374
SWIDTH 851 0
DWIDTH 7 0
BBX 8 14 0 -3
BITMAP
00006100
0006E800
000C3A00
00000000
4DD10590
A1F20990
02F00C70
05C03F40
07B1AE20
02DC4FC8
0007ED30
00995A00
00E1B500
00AD8000
ENDCHAR
STARTCHAR ycircumflex
ENCODING 375
SWIDTH 479 0
DWIDTH 4 0
BBX 5 12 0 -4
BITMAP
01D300
07A700
0B3900
000000
396700
77B500
9AF780
6CDA10
08D000
799000
B94000
CB0000
ENDCHAR
STARTCHAR Ydieresis
ENCODING 376
SWIDTH 851 0
DWIDTH 7 0
BBX 8 12 0 -3
BITMAP
000A4A00
00000000
4DD10590
A1F20990
02F00C70
05C03F40
07B1AE20
02DC4FC8
0007ED30
00995A00
00E1B500
00AD8000
ENDCHAR
STARTCHAR Zacute
ENCODING 377
SWIDTH 721 0
DWIDTH 6 0
BBX 7 10 0 0
BITMAP
00007900
00069100
00000000
19DEEB10
7900B900
4605D100
001E4000
00BA0000
7DF61290
AD8BEC30
ENDCHAR
STARTCHAR zacute
ENCODING 378
SWIDTH 445 0
DWIDTH 4 0
BBX 5 8 0 0
BITMAP
001400
007800
00A000
000000
6EFA00
1A9100
6B0570
2DEA10
ENDCHAR
STARTCHAR Zdotaccent
ENCODING 379
SWIDTH 721 0
DWIDTH 6 0
BBX 7 9 0 0
BITMAP
000B4000
00000000
19DEEB10
7900B900
4605D100
001E4000
00BA0000
7DF61290
AD8BEC30
ENDCHAR
STARTCHAR zdotaccent
ENCODING 380
SWIDTH 445 0
DWIDTH 4 0
BBX 5 6 0 0
BITMAP
03B000
000000
6EFA00
1A9100
6B0570
2DEA10
ENDCHAR
STARTCHAR Zcaron
ENCODING 381
SWIDTH 721 0
DWIDTH 6 0
BBX 7 10 0 0
BITMAP
0056B200
001C6000
00000000
19DEEB10
7900B900
4605D100
001E4000
00BA0000
7DF61290
AD8BEC30
ENDCHAR
STARTCHAR zcaron
ENCODING 382
SWIDTH 445 0
DWIDTH 4 0
BBX 5 8 0 0
BITMAP
093B00
08A700
03D100
000000
6EFA00
1A9100
6B0570
2DEA10
ENDCHAR
STARTCHAR uni018F
ENCODING 399
SWIDTH 792 0
DWIDTH 6 0
BBX 7 7 0 0
BITMAP
04CEC300
08206D00
00000F20
5EEEEF20
7B005E00
4E21C700
07ED7000
ENDCHAR
STARTCHAR florin
ENCODING 402
SWIDTH 478 0
DWIDTH 4 0
BBX 6 9 -1 -2
BITMAP
0009D2
004D00
006A00
08EEB0
009700
00B500
00D300
01F100
5E7000
ENDCHAR
STARTCHAR Ohorn
ENCODING 416
SWIDTH 816 0
DWIDTH 7 0
BBX 7 9 0 0
BITMAP
00000050
000004C0
01AEFF40
0B804F20
3E000D50
6B000D50
7B001F20
3E20A900
07ED9000
ENDCHAR
STARTCHAR ohorn
ENCODING 417
SWIDTH 451 0
DWIDTH 4 0
BBX 5 5 0 0
BITMAP
000B00
2DF800
96BE70
A6A300
4DA000
ENDCHAR
STARTCHAR Uhorn
ENCODING 431
SWIDTH 890 0
DWIDTH 7 0
BBX 9 9 0 0
BITMAP
0000000500
0000003C00
3DD106D300
B3F2098000
02F00C6000
05C01F4000
08907F2000
0A949F4810
06EB1BE700
ENDCHAR
STARTCHAR uhorn
ENCODING 432
SWIDTH 512 0
DWIDTH 4 0
BBX 6 5 0 0
BITMAP
000560
396C20
77B400
9AF291
6C9E60
ENDCHAR
STARTCHAR uni01C4
ENCODING 452
SWIDTH 1531 0
DWIDTH 12 0
BBX 14 10 0 0
BITMAP
000000000B4800
0000000007C100
00000000000000
07DEC305CDED70
04307E1E204E20
0A700E4A00D600
0D300E4008C000
1F102F104E2000
4D03C82BEC2073
4EEC603EA9DD80
ENDCHAR
STARTCHAR uni01C5
ENCODING 453
SWIDTH 1191 0
DWIDTH 10 0
BBX 10 8 0 0
BITMAP
000000084B
07DEC306A9
04307E12D2
0A700E4000
0D300E8EF9
1F102F19A1
4D03C86B00
4EEC60AEE9
ENDCHAR
STARTCHAR uni01C6
ENCODING 454
SWIDTH 895 0
DWIDTH 7 0
BBX 9 7 0 0
BITMAP
000D2B6700
002E0CC100
004B043000
0AE8DFF400
7AA53B5000
A6D5D52A20
6E9D9EE600
ENDCHAR
STARTCHAR uni01C7
ENCODING 455
SWIDTH 1276 0
DWIDTH 10 0
BBX 12 8 -1 -1
BITMAP
0008ED25CEE3
006C198E23D0
00A8043A05C0
00B600002B90
00C400069B60
1BF9304B0E20
3EA9DEE86A00
0000003DC200
ENDCHAR
STARTCHAR uni01C8
ENCODING 456
SWIDTH 927 0
DWIDTH 7 0
BBX 10 11 -1 -4
BITMAP
0007DE6000
005D14CB30
00A8012000
00B6000D00
00C4001E00
1BF9305C73
3EA8DEDE70
000001C700
00000AB400
000057C000
00004E6000
ENDCHAR
STARTCHAR uni01C9
ENCODING 457
SWIDTH 610 0
DWIDTH 5 0
BBX 6 12 0 -4
BITMAP
04D300
0C7600
2C7A90
59B100
7B9670
8E2960
792E78
2DCEB1
007E00
069B00
0B8600
0BC000
ENDCHAR
STARTCHAR uni01CA
ENCODING 458
SWIDTH 1497 0
DWIDTH 12 0
BBX 13 8 0 -1
BITMAP
4DC2BE53BDDC10
92EA299B507A00
03F50A79309800
05E00D4006E600
07B01F11B9E200
09802F1982D000
09500BEE597000
00000006EA0000
ENDCHAR
STARTCHAR uni01CB
ENCODING 459
SWIDTH 1138 0
DWIDTH 9 0
BBX 10 11 0 -4
BITMAP
5DC3CE5000
62EC2993B0
03F50A7000
05E00D43A0
07B01F1690
09802F1989
09500BEED4
0000004E30
0000039D00
00000A6900
000008D200
ENDCHAR
STARTCHAR uni01CC
ENCODING 460
SWIDTH 750 0
DWIDTH 6 0
BBX 7 10 0 -4
BITMAP
00004A00
00000000
49A95900
8DB87800
9C86B890
766EEC20
0006F100
0049C000
00B67000
009D1000
ENDCHAR
STARTCHAR Gcaron
ENCODING 486
SWIDTH 811 0
DWIDTH 6 0
BBX 8 14 0 -4
BITMAP
001B6600
0009B000
00000000
019ED500
0B905C00
3E003800
6B000000
7B02DE00
2F402D53
05DEDF91
0001C900
000AA500
0048C100
003E6000
ENDCHAR
STARTCHAR gcaron
ENCODING 487
SWIDTH 479 0
DWIDTH 4 0
BBX 5 12 0 -4
BITMAP
075B10
05AA00
01D200
000000
0AD400
7A9500
A5D780
6DEB10
08D000
79A000
B85000
CB0000
ENDCHAR
STARTCHAR uni01EA
ENCODING 490
SWIDTH 816 0
DWIDTH 7 0
BBX 7 9 0 -2
BITMAP
01AED600
0B803F20
3E000D50
6B000E50
7B002F10
3E53B800
05CE7000
00660000
003C6000
ENDCHAR
STARTCHAR uni01EB
ENCODING 491
SWIDTH 451 0
DWIDTH 4 0
BBX 5 6 0 -2
BITMAP
2DC100
96E500
A4AE70
5CC200
0C1000
0AB000
ENDCHAR
STARTCHAR Aringacute
ENCODING 506
SWIDTH 786 0
DWIDTH 6 0
BBX 8 11 0 0
BITMAP
0000004A
0000CB72
0001CA00
00000000
005CEE80
06D42710
1E306B00
6C00A800
8A01E500
6D18E663
0BE87E90
ENDCHAR
STARTCHAR aringacute
ENCODING 507
SWIDTH 470 0
DWIDTH 4 0
BBX 6 8 0 0
BITMAP
0000A3
02D780
066A00
03D500
0AD400
7A9500
A5D480
6E9D30
ENDCHAR
STARTCHAR AEacute
ENCODING 508
SWIDTH 1015 0
DWIDTH 8 0
BBX 10 10 0 0
BITMAP
0000007A00
0000069100
0000000000
006CAAEE70
07D42F0000
2E205C0000
6B009EED00
8A00E70000
6C07EA0061
0AEA2BED80
ENDCHAR
STARTCHAR aeacute
ENCODING 509
SWIDTH 653 0
DWIDTH 5 0
BBX 7 8 0 0
BITMAP
00005000
0004B000
00092000
00000000
0AECD100
7988C100
A5DC4830
6E7DE700
ENDCHAR
STARTCHAR Oslashacute
ENCODING 510
SWIDTH 816 0
DWIDTH 7 0
BBX 7 11 0 -1
BITMAP
0002C300
000B5000
0000B000
01AEE600
0B879F20
3E0B2D50
6C0C0D50
7B391F20
3E969A00
07FE9000
00C00000
ENDCHAR
STARTCHAR oslashacute
ENCODING 511
SWIDTH 459 0
DWIDTH 4 0
BBX 5 9 0 -1
BITMAP
005000
069000
091000
009000
2DE200
9ABB60
ABA930
4EC100
090000
ENDCHAR
STARTCHAR uni0200
ENCODING 512
SWIDTH 786 0
DWIDTH 6 0
BBX 8 10 0 0
BITMAP
000B6800
00066A00
00000000
005CEE80
06D42710
1E306B00
6C00A800
8A01E500
6D18E663
0BE87E90
ENDCHAR
STARTCHAR uni0201
ENCODING 513
SWIDTH 470 0
DWIDTH 4 0
BBX 5 8 0 0
BITMAP
235000
4BC200
0A4600
000000
0AD400
7A9500
A5D480
6E9D30
ENDCHAR
STARTCHAR uni0202
ENCODING 514
SWIDTH 786 0
DWIDTH 6 0
BBX 8 9 0 0
BITMAP
0003CC20
00093570
005CEE80
06D42710
1E306B00
6C00A800
8A01E500
6D18E663
0BE87E90
ENDCHAR
STARTCHAR uni0203
ENCODING 515
SWIDTH 470 0
DWIDTH 4 0
BBX 5 7 0 0
BITMAP
07DA00
0B1A20
000000
0AD400
7A9500
A5D480
6E9D30
ENDCHAR
STARTCHAR uni0204
ENCODING 516
SWIDTH 686 0
DWIDTH 5 0
BBX 7 10 0 0
BITMAP
00B68000
0065A000
00000000
02BED300
0C707A00
0D604600
08FA0000
8B200000
AA001430
2BEEDA20
ENDCHAR
STARTCHAR uni0205
ENCODING 517
SWIDTH 393 0
DWIDTH 3 0
BBX 5 8 0 0
BITMAP
524000
98C000
189100
000000
2CD000
97C000
AC4910
4DD600
ENDCHAR
STARTCHAR uni0206
ENCODING 518
SWIDTH 686 0
DWIDTH 5 0
BBX 7 9 0 0
BITMAP
003CC200
00935700
02BED300
0C707A00
0D604600
08FA0000
8B200000
AA001430
2BEEDA20
ENDCHAR
STARTCHAR uni0207
ENCODING 519
SWIDTH 393 0
DWIDTH 3 0
BBX 5 7 0 0
BITMAP
1AD600
472A00
000000
2CD000
97C000
AC4910
4DD600
ENDCHAR
STARTCHAR uni0208
ENCODING 520
SWIDTH 495 0
DWIDTH 4 0
BBX 6 10 -1 0
BITMAP
00B670
0065A0
000000
01DFE4
002F10
004D00
006B00
008900
00B700
1CFE50
ENDCHAR
STARTCHAR uni0209
ENCODING 521
SWIDTH 246 0
DWIDTH 2 0
BBX 4 8 -1 0
BITMAP
3250
69D1
0A54
0000
0490
0870
0969
05E5
ENDCHAR
STARTCHAR uni020A
ENCODING 522
SWIDTH 495 0
DWIDTH 4 0
BBX 6 9 -1 0
BITMAP
003CC2
009366
01DFE4
002F10
004D00
006B00
008900
00B700
1CFE50
ENDCHAR
STARTCHAR uni020B
ENCODING 523
SWIDTH 246 0
DWIDTH 2 0
BBX 5 7 -1 0
BITMAP
08D800
1A1B10
000000
049000
087000
096900
05E500
ENDCHAR
STARTCHAR uni020C
ENCODING 524
SWIDTH 816 0
DWIDTH 7 0
BBX 7 10 0 0
BITMAP
00969000
0047A000
00000000
01AED500
0B804F20
3E000D50
6B000D50
7B001F20
3E20AA00
07ED9000
ENDCHAR
STARTCHAR uni020D
ENCODING 525
SWIDTH 451 0
DWIDTH 4 0
BBX 5 8 0 0
BITMAP
524000
98C000
289100
000000
2DD300
96BE70
A6A300
4DA000
ENDCHAR
STARTCHAR uni020E
ENCODING 526
SWIDTH 816 0
DWIDTH 7 0
BBX 7 9 0 0
BITMAP
002CD400
00744800
01AED500
0B804F20
3E000D50
6B000D50
7B001F20
3E20AA00
07ED9000
ENDCHAR
STARTCHAR uni020F
ENCODING 527
SWIDTH 451 0
DWIDTH 4 0
BBX 5 7 0 0
BITMAP
1BD500
572A00
000000
2DD300
96BE70
A6A300
4DA000
ENDCHAR
STARTCHAR uni0210
ENCODING 528
SWIDTH 880 0
DWIDTH 7 0
BBX 8 10 0 0
BITMAP
0066C000
00199200
00000000
019DEB10
0B771D60
3A4C3E30
76DFE300
8598C700
68C55D1A
0BE10BE5
ENDCHAR
STARTCHAR uni0211
ENCODING 529
SWIDTH 455 0
DWIDTH 4 0
BBX 5 8 0 0
BITMAP
325000
69D100
0A5400
000000
49A900
8CC940
9C4E60
770000
ENDCHAR
STARTCHAR uni0212
ENCODING 530
SWIDTH 880 0
DWIDTH 7 0
BBX 8 9 0 0
BITMAP
001AD600
00471B00
019DEB10
0B771D60
3A4C3E30
76DFE300
8598C700
68C55D1A
0BE10BE5
ENDCHAR
STARTCHAR uni0213
ENCODING 531
SWIDTH 455 0
DWIDTH 4 0
BBX 5 7 0 0
BITMAP
08D800
1A1B10
000000
49A900
8CC940
9C4E60
770000
ENDCHAR
STARTCHAR uni0214
ENCODING 532
SWIDTH 890 0
DWIDTH 7 0
BBX 9 10 0 0
BITMAP
0039B10000
000A650000
0000000000
3DD1069000
B3F2099000
02F00C7000
05C01F4000
08907F2000
0A949F4810
06EB1BE700
ENDCHAR
STARTCHAR uni0215
ENCODING 533
SWIDTH 462 0
DWIDTH 4 0
BBX 5 8 0 0
BITMAP
325000
59D100
0A5500
000000
396700
77B400
9AF380
6CAC20
ENDCHAR
STARTCHAR uni0216
ENCODING 534
SWIDTH 890 0
DWIDTH 7 0
BBX 9 9 0 0
BITMAP
0008D80000
002A1B1000
3DD1069000
B3F2099000
02F00C7000
05C01F4000
08907F2000
0A949F4810
06EB1BE700
ENDCHAR
STARTCHAR uni0217
ENCODING 535
SWIDTH 462 0
DWIDTH 4 0
BBX 5 7 0 0
BITMAP
08D900
1A1B10
000000
396700
77B400
9AF380
6CAC20
ENDCHAR
STARTCHAR uni0218
ENCODING 536
SWIDTH 693 0
DWIDTH 6 0
BBX 6 9 0 -2
BITMAP
06CEB2
1F2098
1F5043
05DC40
5205F2
A601E2
3CED60
00A000
00B000
ENDCHAR
STARTCHAR uni0219
ENCODING 537
SWIDTH 427 0
DWIDTH 3 0
BBX 5 7 0 -3
BITMAP
086000
1E7000
A6F760
5CFB10
000000
093000
0A0000
ENDCHAR
STARTCHAR uni021A
ENCODING 538
SWIDTH 697 0
DWIDTH 6 0
BBX 8 9 0 -2
BITMAP
19CEEED1
970C5000
840F2000
003E0000
005C0000
007A0000
00870000
00730000
00920000
ENDCHAR
STARTCHAR uni021B
ENCODING 539
SWIDTH 393 0
DWIDTH 3 0
BBX 5 11 0 -3
BITMAP
01C400
098700
0D8400
1EB000
DFD600
4A0000
3C0810
0AE700
000000
084000
091000
ENDCHAR
STARTCHAR uni022A
ENCODING 554
SWIDTH 816 0
DWIDTH 7 0
BBX 7 10 0 0
BITMAP
001DE500
00488400
00000000
01AED500
0B804F20
3E000D50
6B000D50
7B001F20
3E20AA00
07ED9000
ENDCHAR
STARTCHAR uni022B
ENCODING 555
SWIDTH 451 0
DWIDTH 4 0
BBX 5 7 0 0
BITMAP
0BE700
2A6600
000000
2DD300
96BE70
A6A300
4DA000
ENDCHAR
STARTCHAR uni022C
ENCODING 556
SWIDTH 816 0
DWIDTH 7 0
BBX 7 10 0 0
BITMAP
002FEA00
0098C700
00000000
01AED500
0B804F20
3E000D50
6B000D50
7B001F20
3E20AA00
07ED9000
ENDCHAR
STARTCHAR uni022D
ENCODING 557
SWIDTH 451 0
DWIDTH 4 0
BBX 5 7 0 0
BITMAP
0FFC00
68B900
000000
2DD300
96BE70
A6A300
4DA000
ENDCHAR
STARTCHAR uni0230
ENCODING 560
SWIDTH 816 0
DWIDTH 7 0
BBX 7 10 0 0
BITMAP
001DE500
00077000
00000000
01AED500
0B804F20
3E000D50
6B000D50
7B001F20
3E20AA00
07ED9000
ENDCHAR
STARTCHAR uni0231
ENCODING 561
SWIDTH 451 0
DWIDTH 4 0
BBX 5 7 0 0
BITMAP
0BE700
059000
000000
2DD300
96BE70
A6A300
4DA000
ENDCHAR
STARTCHAR uni0232
ENCODING 562
SWIDTH 851 0
DWIDTH 7 0
BBX 8 11 0 -3
BITMAP
000AE900
4DD10590
A1F20990
02F00C70
05C03F40
07B1AE20
02DC4FC8
0007ED30
00995A00
00E1B500
00AD8000
ENDCHAR
STARTCHAR uni0233
ENCODING 563
SWIDTH 479 0
DWIDTH 4 0
BBX 5 9 0 -4
BITMAP
0BE700
396700
77B500
9AF780
6CDA10
08D000
799000
B94000
CB0000
ENDCHAR
STARTCHAR uni0237
ENCODING 567
SWIDTH 254 0
DWIDTH 2 0
BBX 5 8 -2 -4
BITMAP
004900
007800
008890
00AC30
05F100
3AD000
A68000
9D1000
ENDCHAR
STARTCHAR uni0259
ENCODING 601
SWIDTH 458 0
DWIDTH 4 0
BBX 4 4 0 0
BITMAP
5DC1
0097
8EE6
5DB1
ENDCHAR
STARTCHAR uni02BC
ENCODING 700
SWIDTH 600 0
DWIDTH 5 0
BBX 2 2 2 5
BITMAP
B1
A0
ENDCHAR
STARTCHAR circumflex
ENCODING 710
SWIDTH 600 0
DWIDTH 5 0
BBX 3 3 1 5
BITMAP
0C40
6A80
B2A0
ENDCHAR
STARTCHAR caron
ENCODING 711
SWIDTH 600 0
DWIDTH 5 0
BBX 3 3 1 5
BITMAP
84B0
6A90
2D20
ENDCHAR
STARTCHAR uni02C9
ENCODING 713
SWIDTH 600 0
DWIDTH 5 0
BBX 3 1 1 4
BITMAP
AE80
ENDCHAR
STARTCHAR breve
ENCODING 728
SWIDTH 600 0
DWIDTH 5 0
BBX 5 2 0 4
BITMAP
1C1B10
08D800
ENDCHAR
STARTCHAR dotaccent
ENCODING 729
SWIDTH 600 0
DWIDTH 5 0
BBX 3 1 1 5
BITMAP
1C10
ENDCHAR
STARTCHAR ring
ENCODING 730
SWIDTH 600 0
DWIDTH 5 0
BBX 3 3 1 4
BITMAP
3D50
7790
4D40
ENDCHAR
STARTCHAR ogonek
ENCODING 731
SWIDTH 600 0
DWIDTH 5 0
BBX 3 3 1 -2
BITMAP
5300
C000
9D10
ENDCHAR
STARTCHAR tilde
ENCODING 732
SWIDTH 600 0
DWIDTH 5 0
BBX 5 2 0 5
BITMAP
053310
2AAB10
ENDCHAR
STARTCHAR hungarumlaut
ENCODING 733
SWIDTH 600 0
DWIDTH 5 0
BBX 4 3 1 5
BITMAP
0542
4BC3
7490
ENDCHAR
STARTCHAR gravecomb
ENCODING 768
SWIDTH 0 0
DWIDTH 0 0
BBX 2 3 -4 5
BITMAP
51
96
19
ENDCHAR
STARTCHAR acutecomb
ENCODING 769
SWIDTH 0 0
DWIDTH 0 0
BBX 2 3 -3 5
BITMAP
05
2D
73
ENDCHAR
STARTCHAR uni0302
ENCODING 770
SWIDTH 0 0
DWIDTH 0 0
BBX 3 3 -4 5
BITMAP
0A70
3AB0
93B0
ENDCHAR
STARTCHAR tildecomb
ENCODING 771
SWIDTH 0 0
DWIDTH 0 0
BBX 4 2 -4 5
BITMAP
3423
B8C2
ENDCHAR
STARTCHAR uni0304
ENCODING 772
SWIDTH 0 0
DWIDTH 0 0
BBX 3 1 -4 4
BITMAP
7EB0
ENDCHAR
STARTCHAR uni0306
ENCODING 774
SWIDTH 0 0
DWIDTH 0 0
BBX 4 2 -4 4
BITMAP
C294
6DA0
ENDCHAR
STARTCHAR uni0307
ENCODING 775
SWIDTH 0 0
DWIDTH 0 0
BBX 2 1 -3 5
BITMAP
B3
ENDCHAR
STARTCHAR uni0308
ENCODING 776
SWIDTH 0 0
DWIDTH 0 0
BBX 3 1 -4 5
BITMAP
84B0
ENDCHAR
STARTCHAR hookabovecomb
ENCODING 777
SWIDTH 0 0
DWIDTH 0 0
BBX 2 3 -3 4
BITMAP
D7
0B
A6
ENDCHAR
STARTCHAR uni030A
ENCODING 778
SWIDTH 0 0
DWIDTH 0 0
BBX 3 3 -4 4
BITMAP
1C70
47B0
2D60
ENDCHAR
STARTCHAR uni030B
ENCODING 779
SWIDTH 0 0
DWIDTH 0 0
BBX 4 3 -4 5
BITMAP
0533
1D96
45A0
ENDCHAR
STARTCHAR uni030C
ENCODING 780
SWIDTH 0 0
DWIDTH 0 0
BBX 4 3 -4 5
BITMAP
5793
3AB0
0D40
ENDCHAR
STARTCHAR uni030F
ENCODING 783
SWIDTH 0 0
DWIDTH 0 0
BBX 4 3 -5 5
BITMAP
1450
2CA5
0848
ENDCHAR
STARTCHAR uni0311
ENCODING 785
SWIDTH 0 0
DWIDTH 0 0
BBX 4 2 -4 5
BITMAP
5DB1
A184
ENDCHAR
STARTCHAR uni0312
ENCODING 786
SWIDTH 0 0
DWIDTH 0 0
BBX 2 2 -3 5
BITMAP
84
91
ENDCHAR
STARTCHAR uni031B
ENCODING 795
SWIDTH 0 0
DWIDTH 0 0
BBX 2 2 -3 3
BITMAP
0B
77
ENDCHAR
STARTCHAR dotbelowcomb
ENCODING 803
SWIDTH 0 0
DWIDTH 0 0
BBX 2 1 -4 -2
BITMAP
87
ENDCHAR
STARTCHAR uni0324
ENCODING 804
SWIDTH 0 0
DWIDTH 0 0
BBX 4 1 -5 -2
BITMAP
4893
ENDCHAR
STARTCHAR uni0326
ENCODING 806
SWIDTH 0 0
DWIDTH 0 0
BBX 2 2 -4 -3
BITMAP
66
73
ENDCHAR
STARTCHAR uni0327
ENCODING 807
SWIDTH 0 0
DWIDTH 0 0
BBX 3 3 -5 -2
BITMAP
0B90
00C0
3D70
ENDCHAR
STARTCHAR uni0328
ENCODING 808
SWIDTH 0 0
DWIDTH 0 0
BBX 3 3 -4 -2
BITMAP
3500
A300
6E40
ENDCHAR
STARTCHAR uni032E
ENCODING 814
SWIDTH 0 0
DWIDTH 0 0
BBX 4 2 -5 -3
BITMAP
A467
4DB1
ENDCHAR
STARTCHAR uni0331
ENCODING 817
SWIDTH 0 0
DWIDTH 0 0
BBX 4 1 -5 -1
BITMAP
3EE2
ENDCHAR
STARTCHAR uni0394
ENCODING 916
SWIDTH 700 0
DWIDTH 6 0
BBX 5 7 0 0
BITMAP
003C00
009E10
01DA40
077760
0D2590
5A02C0
AEEEE0
ENDCHAR
STARTCHAR uni03A9
ENCODING 937
SWIDTH 816 0
DWIDTH 7 0
BBX 8 7 -1 0
BITMAP
001AED50
00B914F2
03E000D5
06B000D5
07B001F2
03E20A90
1EF85FE4
ENDCHAR
STARTCHAR uni03BC
ENCODING 956
SWIDTH 462 0
DWIDTH 4 0
BBX 5 6 0 -2
BITMAP
496700
87B400
A9F380
BCAC20
B30000
B20000
ENDCHAR
STARTCHAR pi
ENCODING 960
SWIDTH 496 0
DWIDTH 4 0
BBX 5 4 0 0
BITMAP
AEDE30
797800
969680
A45E60
ENDCHAR
STARTCHAR uni0400
ENCODING 1024
SWIDTH 686 0
DWIDTH 5 0
BBX 7 10 0 0
BITMAP
04B10000
006A0000
00000000
02BED300
0C707A00
0D604600
08FA0000
8B200000
AA001430
2BEEDA20
ENDCHAR
STARTCHAR uni0401
ENCODING 1025
SWIDTH 686 0
DWIDTH 5 0
BBX 7 9 0 0
BITMAP
0067A200
00000000
02BED300
0C707A00
0D604600
08FA0000
8B200000
AA001430
2BEEDA20
ENDCHAR
STARTCHAR uni0402
ENCODING 1026
SWIDTH 974 0
DWIDTH 8 0
BBX 9 11 0 -4
BITMAP
19CEEED100
970C500000
840F200000
003E8EC100
005F50E400
007B00EA90
008701FA10
00001DD000
0000CB9000
0003AB4000
0002E90000
ENDCHAR
STARTCHAR uni0403
ENCODING 1027
SWIDTH 635 0
DWIDTH 5 0
BBX 7 10 0 0
BITMAP
0001B500
000A6000
00000000
1ADEED90
97890000
85B60000
00E40000
01F10000
03E00000
04B00000
ENDCHAR
STARTCHAR uni0404
ENCODING 1028
SWIDTH 687 0
DWIDTH 6 0
BBX 7 7 0 0
BITMAP
01AED300
0B908800
3E103200
6FEE4000
7C000000
2F500430
04CEDA20
ENDCHAR
STARTCHAR uni0405
ENCODING 1029
SWIDTH 693 0
DWIDTH 6 0
BBX 6 7 0 0
BITMAP
06CEB2
1F2098
1F5043
05DC40
5205F2
A601E2
3CED60
ENDCHAR
STARTCHAR uni0406
ENCODING 1030
SWIDTH 495 0
DWIDTH 4 0
BBX 6 7 -1 0
BITMAP
01DFE4
002F10
004D00
006B00
008900
00B700
1CFE50
ENDCHAR
STARTCHAR uni0407
ENCODING 1031
SWIDTH 495 0
DWIDTH 4 0
BBX 6 9 -1 0
BITMAP
0066A2
000000
01DFE4
002F10
004D00
006B00
008900
00B700
1CFE50
ENDCHAR
STARTCHAR uni0408
ENCODING 1032
SWIDTH 743 0
DWIDTH 6 0
BBX 7 8 0 -1
BITMAP
08DDDC10
5B108900
39009800
0006E500
01B9E200
0883D000
0C4A6000
06E90000
ENDCHAR
STARTCHAR uni0409
ENCODING 1033
SWIDTH 1158 0
DWIDTH 9 0
BBX 10 7 0 0
BITMAP
00008A0000
0000EA0000
0004DDCE70
000AAB13F1
102D6A01F2
D1A64D16C0
6EA009EC30
ENDCHAR
STARTCHAR uni040A
ENCODING 1034
SWIDTH 1182 0
DWIDTH 9 0
BBX 11 7 -1 0
BITMAP
06DC00B40000
170F21E10000
001F14EDEA00
02EFDDB11E40
007A07900D50
00A705C04E10
00B300BEC400
ENDCHAR
STARTCHAR uni040B
ENCODING 1035
SWIDTH 979 0
DWIDTH 8 0
BBX 9 7 0 0
BITMAP
19CEEED100
970C500000
840F200000
003E8EC100
005F50E400
007B00E380
008700DD30
ENDCHAR
STARTCHAR uni040C
ENCODING 1036
SWIDTH 937 0
DWIDTH 8 0
BBX 9 10 0 0
BITMAP
000002C300
00000B5000
0000000000
1AEE806900
6A1C51D400
370F4B8000
008FF60000
004C7D0000
A2890E6460
5EC205EB10
ENDCHAR
STARTCHAR uni040D
ENCODING 1037
SWIDTH 890 0
DWIDTH 7 0
BBX 9 10 0 0
BITMAP
00B5000000
002A400000
0000000000
3DD1069000
B3F2099000
02F00C7000
05C01F4000
08907F2000
0A949F4810
06EB1BE700
ENDCHAR
STARTCHAR uni040E
ENCODING 1038
SWIDTH 824 0
DWIDTH 7 0
BBX 8 11 0 -2
BITMAP
00051500
000CE700
4CD00690
52F10B80
03E01E60
05C1AE30
01CD5F53
0004AE94
00896A00
01E1B500
00BD8000
ENDCHAR
STARTCHAR uni040F
ENCODING 1039
SWIDTH 890 0
DWIDTH 7 0
BBX 9 9 0 -2
BITMAP
3DD1069000
B3F2099000
02F00C7000
05C01F4000
08907F2000
0A949F4810
05FB1BE700
00E2000000
0060000000
ENDCHAR
STARTCHAR uni0410
ENCODING 1040
SWIDTH 786 0
DWIDTH 6 0
BBX 8 7 0 0
BITMAP
005CEE80
06D42710
1E306B00
6C00A800
8A01E500
6D18E663
0BE87E90
ENDCHAR
STARTCHAR uni0411
ENCODING 1041
SWIDTH 917 0
DWIDTH 7 0
BBX 8 8 0 -1
BITMAP
1ADFED90
964D0000
957B0000
02CEDE80
02D602F2
00D402F1
00F37D70
00515200
ENDCHAR
STARTCHAR uni0412
ENCODING 1042
SWIDTH 827 0
DWIDTH 7 0
BBX 7 8 0 -1
BITMAP
28CDEC40
875007D0
06B029A0
0979F900
0C504E00
0E307D00
1FEEB300
06000000
ENDCHAR
STARTCHAR uni0413
ENCODING 1043
SWIDTH 635 0
DWIDTH 5 0
BBX 7 7 0 0
BITMAP
1ADEED90
97890000
85B60000
00E40000
01F10000
03E00000
04B00000
ENDCHAR
STARTCHAR uni0414
ENCODING 1044
SWIDTH 964 0
DWIDTH 8 0
BBX 8 7 0 0
BITMAP
029DEC40
065404E2
005B00B6
00A700A7
00D300D5
9DF305E1
AD79ED30
ENDCHAR
STARTCHAR uni0415
ENCODING 1045
SWIDTH 686 0
DWIDTH 5 0
BBX 7 7 0 0
BITMAP
02BED300
0C707A00
0D604600
08FA0000
8B200000
AA001430
2BEEDA20
ENDCHAR
STARTCHAR uni0416
ENCODING 1046
SWIDTH 1234 0
DWIDTH 10 0
BBX 11 7 0 0
BITMAP
07E80860BE40
031E2B56A220
00097D7D2000
0005FFE40000
004D5D6C0000
72C55B0E5260
7E906905EB10
ENDCHAR
STARTCHAR uni0417
ENCODING 1047
SWIDTH 725 0
DWIDTH 6 0
BBX 6 7 0 0
BITMAP
04CEB0
0D40E2
0503C0
00ABC2
3400B7
7A03E4
1BED60
ENDCHAR
STARTCHAR uni0418
ENCODING 1048
SWIDTH 890 0
DWIDTH 7 0
BBX 9 7 0 0
BITMAP
3DD1069000
B3F2099000
02F00C7000
05C01F4000
08907F2000
0A949F4810
06EB1BE700
ENDCHAR
STARTCHAR uni0419
ENCODING 1049
SWIDTH 890 0
DWIDTH 7 0
BBX 9 9 0 0
BITMAP
0006160000
000BE80000
3DD1069000
B3F2099000
02F00C7000
05C01F4000
08907F2000
0A949F4810
06EB1BE700
ENDCHAR
STARTCHAR uni041A
ENCODING 1050
SWIDTH 937 0
DWIDTH 8 0
BBX 9 7 0 0
BITMAP
1AEE806900
6A1C51D400
370F4B8000
008FF60000
004C7D0000
A2890E6460
5EC205EB10
ENDCHAR
STARTCHAR uni041B
ENCODING 1051
SWIDTH 861 0
DWIDTH 7 0
BBX 8 7 0 0
BITMAP
00008900
0000EA00
0004F900
000AC900
001E7A00
B1A84D08
7EA00BD5
ENDCHAR
STARTCHAR uni041C
ENCODING 1052
SWIDTH 1133 0
DWIDTH 9 0
BBX 10 7 0 0
BITMAP
0007C04E10
000BD0BF00
000DD2DE00
003CE7AE00
0078EC5E00
A2D3CC1F28
8E808709E6
ENDCHAR
STARTCHAR uni041D
ENCODING 1053
SWIDTH 873 0
DWIDTH 7 0
BBX 9 8 -1 0
BITMAP
0000002D50
05DC00B690
191F21E460
001F04DB10
02EFDDB100
007A089000
00A706B090
00B301BD50
ENDCHAR
STARTCHAR uni041E
ENCODING 1054
SWIDTH 816 0
DWIDTH 7 0
BBX 7 7 0 0
BITMAP
01AED500
0B804F20
3E000D50
6B000D50
7B001F20
3E20AA00
07ED9000
ENDCHAR
STARTCHAR uni041F
ENCODING 1055
SWIDTH 892 0
DWIDTH 7 0
BBX 9 7 0 0
BITMAP
19DEDDDC10
977A06A100
84A7098000
00C50C5000
00F20F2000
02F01F1710
03D00AE800
ENDCHAR
STARTCHAR uni0420
ENCODING 1056
SWIDTH 805 0
DWIDTH 6 0
BBX 7 9 0 -2
BITMAP
007DEA10
08801D70
2C1D0A80
674D2E30
86DEC500
94980000
77C50000
1DE10000
00100000
ENDCHAR
STARTCHAR uni0421
ENCODING 1057
SWIDTH 686 0
DWIDTH 5 0
BBX 7 7 0 0
BITMAP
01AED300
0B808800
3E005500
6B000000
7C000000
2F500430
04CEDA20
ENDCHAR
STARTCHAR uni0422
ENCODING 1058
SWIDTH 697 0
DWIDTH 6 0
BBX 8 7 0 0
BITMAP
19CEEED1
970C5000
840F2000
003E0000
005C0000
007A0000
00870000
ENDCHAR
STARTCHAR uni0423
ENCODING 1059
SWIDTH 824 0
DWIDTH 7 0
BBX 8 9 0 -2
BITMAP
4CD00690
52F10B80
03E01E60
05C1AE30
01CD5F53
0004AE94
00896A00
01E1B500
00BD8000
ENDCHAR
STARTCHAR uni0424
ENCODING 1060
SWIDTH 977 0
DWIDTH 8 0
BBX 8 11 0 -2
BITMAP
04200000
06DEE600
0000E000
06DCD8D4
3E26F58A
7A079099
894E81E4
3EACCE80
010E1000
1D4B0000
08D30000
ENDCHAR
STARTCHAR uni0425
ENCODING 1061
SWIDTH 712 0
DWIDTH 6 0
BBX 7 7 0 0
BITMAP
5DC13D10
60C7D500
007F7000
009E0000
07CE3000
5E2A8170
D403DC20
ENDCHAR
STARTCHAR uni0426
ENCODING 1062
SWIDTH 890 0
DWIDTH 7 0
BBX 9 10 0 -3
BITMAP
3DD1068000
A1F2099000
02F10C7000
05C01F4000
08906F2000
0A829F4100
06EB1DEC10
000019C000
0000D78000
0001CC1000
ENDCHAR
STARTCHAR uni0427
ENCODING 1063
SWIDTH 773 0
DWIDTH 6 0
BBX 6 7 0 0
BITMAP
0A502C
0C505C
0E309A
1F23E9
0BFDA7
0010B5
0000B3
ENDCHAR
STARTCHAR uni0428
ENCODING 1064
SWIDTH 1272 0
DWIDTH 10 0
BBX 12 7 0 0
BITMAP
3DD108605900
B3F20B608A00
02F00E30B700
05C03E01F500
08909B06F300
0A95BC3AE482
06EB2DC2AE80
ENDCHAR
STARTCHAR uni0429
ENCODING 1065
SWIDTH 1272 0
DWIDTH 10 0
BBX 12 10 0 -3
BITMAP
3DD108605900
B3F20B608A00
02F00E30B700
05C03E01F500
08909B06F300
0A95BC3AE620
06EB2EC2CFC1
000000018C00
0000000C7800
0000000CC200
ENDCHAR
STARTCHAR uni042A
ENCODING 1066
SWIDTH 863 0
DWIDTH 7 0
BBX 7 7 0 0
BITMAP
1DEE3000
006B0000
01CDDC40
07F308B0
00F106B0
00D41C60
005DD800
ENDCHAR
STARTCHAR uni042B
ENCODING 1067
SWIDTH 1078 0
DWIDTH 9 0
BBX 9 7 0 0
BITMAP
0680000A40
0A60000D40
0ECDC20F10
9F10A93E00
2E00895C00
0E21D47A00
06DD608700
ENDCHAR
STARTCHAR uni042C
ENCODING 1068
SWIDTH 721 0
DWIDTH 6 0
BBX 6 7 0 0
BITMAP
068000
0A6000
0ECDC2
9F10A9
2E0089
0E21D4
06DD60
ENDCHAR
STARTCHAR uni042D
ENCODING 1069
SWIDTH 755 0
DWIDTH 6 0
BBX 6 7 0 0
BITMAP
07DEA1
2910B9
00005D
03EEED
32008A
9803E3
3CEC40
ENDCHAR
STARTCHAR uni042E
ENCODING 1070
SWIDTH 1246 0
DWIDTH 10 0
BBX 11 7 -1 0
BITMAP
05ED00A7BB10
1A2F27C90B80
001F3DE206C0
02FFBF3006B0
007A0E300A80
00A70A915E20
00B302BEC300
ENDCHAR
STARTCHAR uni042F
ENCODING 1071
SWIDTH 850 0
DWIDTH 7 0
BBX 8 7 0 0
BITMAP
009EDD40
06B00E40
07B05F10
01ADFE00
0007AC00
B05C4C19
7DB11DD3
ENDCHAR
STARTCHAR uni0430
ENCODING 1072
SWIDTH 470 0
DWIDTH 4 0
BBX 5 4 0 0
BITMAP
0AD400
7A9500
A5D480
6E9D30
ENDCHAR
STARTCHAR uni0431
ENCODING 1073
SWIDTH 473 0
DWIDTH 4 0
BBX 5 8 0 0
BITMAP
04A900
0E3000
0C8000
02E300
2DE800
88AE90
A6C400
5EA000
ENDCHAR
STARTCHAR uni0432
ENCODING 1074
SWIDTH 473 0
DWIDTH 4 0
BBX 5 8 0 0
BITMAP
04E300
0C7500
2B9200
5BA000
7DD600
878E90
787600
2DB100
ENDCHAR
STARTCHAR uni0433
ENCODING 1075
SWIDTH 380 0
DWIDTH 3 0
BBX 4 4 0 0
BITMAP
5EC0
16A0
8819
7ED5
ENDCHAR
STARTCHAR uni0434
ENCODING 1076
SWIDTH 479 0
DWIDTH 4 0
BBX 5 8 0 -4
BITMAP
0AD400
7A9500
A5D780
6DEB10
08D000
79A000
B85000
CB0000
ENDCHAR
STARTCHAR uni0435
ENCODING 1077
SWIDTH 393 0
DWIDTH 3 0
BBX 5 4 0 0
BITMAP
2CD000
97C000
AC4910
4DD600
ENDCHAR
STARTCHAR uni0436
ENCODING 1078
SWIDTH 717 0
DWIDTH 6 0
BBX 7 4 0 0
BITMAP
3E7ABC00
14FD8800
A5DE8180
AD67BD30
ENDCHAR
STARTCHAR uni0437
ENCODING 1079
SWIDTH 435 0
DWIDTH 3 0
BBX 6 8 -1 -4
BITMAP
03DD10
011B20
03B753
04CA90
02D900
0B9700
48C200
3E7000
ENDCHAR
STARTCHAR uni0438
ENCODING 1080
SWIDTH 462 0
DWIDTH 4 0
BBX 5 4 0 0
BITMAP
396700
77B400
9AF380
6CAC20
ENDCHAR
STARTCHAR uni0439
ENCODING 1081
SWIDTH 462 0
DWIDTH 4 0
BBX 5 6 0 0
BITMAP
161A00
0CD400
396700
77B400
9AF380
6CAC20
ENDCHAR
STARTCHAR uni043A
ENCODING 1082
SWIDTH 465 0
DWIDTH 4 0
BBX 5 4 0 0
BITMAP
49BC00
8D8900
9F7280
78CD30
ENDCHAR
STARTCHAR uni043B
ENCODING 1083
SWIDTH 549 0
DWIDTH 4 0
BBX 6 4 0 0
BITMAP
009900
01EA00
D8AA74
BB2E90
ENDCHAR
STARTCHAR uni043C
ENCODING 1084
SWIDTH 734 0
DWIDTH 6 0
BBX 7 4 0 0
BITMAP
00C4C500
13EAD600
D8AE9690
BB3A5E40
ENDCHAR
STARTCHAR uni043D
ENCODING 1085
SWIDTH 475 0
DWIDTH 4 0
BBX 5 4 0 0
BITMAP
485800
8EE620
95B5A0
748D20
ENDCHAR
STARTCHAR uni043E
ENCODING 1086
SWIDTH 451 0
DWIDTH 4 0
BBX 5 4 0 0
BITMAP
2DD300
96BE70
A6A300
4DA000
ENDCHAR
STARTCHAR uni043F
ENCODING 1087
SWIDTH 496 0
DWIDTH 4 0
BBX 5 4 0 0
BITMAP
49A900
8DB800
9C8690
766E50
ENDCHAR
STARTCHAR uni0440
ENCODING 1088
SWIDTH 481 0
DWIDTH 4 0
BBX 6 8 -1 -4
BITMAP
06BE40
079880
098B58
2EEDD4
7B6000
A94000
BB1000
B90000
ENDCHAR
STARTCHAR uni0441
ENCODING 1089
SWIDTH 368 0
DWIDTH 3 0
BBX 4 4 0 0
BITMAP
2DB0
9690
B619
4ED4
ENDCHAR
STARTCHAR uni0442
ENCODING 1090
SWIDTH 744 0
DWIDTH 6 0
BBX 7 4 0 0
BITMAP
49A8A900
8DBDB800
9C8C8690
76766E50
ENDCHAR
STARTCHAR uni0443
ENCODING 1091
SWIDTH 479 0
DWIDTH 4 0
BBX 5 8 0 -4
BITMAP
396700
77B500
9AF780
6CDA10
08D000
799000
B94000
CB0000
ENDCHAR
STARTCHAR uni0444
ENCODING 1092
SWIDTH 721 0
DWIDTH 6 0
BBX 7 10 0 -3
BITMAP
000C0000
002C0000
00590000
0AFBE300
7A999600
A5D6D480
6ECEDD30
00B20000
00C20000
00B10000
ENDCHAR
STARTCHAR uni0445
ENCODING 1093
SWIDTH 529 0
DWIDTH 4 0
BBX 6 4 0 0
BITMAP
3E9D40
25F410
A5F173
ADAE80
ENDCHAR
STARTCHAR uni0446
ENCODING 1094
SWIDTH 501 0
DWIDTH 4 0
BBX 5 7 0 -3
BITMAP
396700
77B400
99F350
6C9E60
03D700
0CA200
0C9000
ENDCHAR
STARTCHAR uni0447
ENCODING 1095
SWIDTH 555 0
DWIDTH 4 0
BBX 6 5 0 0
BITMAP
024000
0ABE70
1B7900
A4E066
40CE90
ENDCHAR
STARTCHAR uni0448
ENCODING 1096
SWIDTH 693 0
DWIDTH 6 0
BBX 7 4 0 0
BITMAP
39668400
77B5D200
99F9F360
6D9ABB10
ENDCHAR
STARTCHAR uni0449
ENCODING 1097
SWIDTH 732 0
DWIDTH 6 0
BBX 7 7 0 -3
BITMAP
39668400
77B5D200
99F9E240
6D9ABE50
0005E400
001BB100
001D7000
ENDCHAR
STARTCHAR uni044A
ENCODING 1098
SWIDTH 542 0
DWIDTH 4 0
BBX 6 4 0 0
BITMAP
5F6000
3FD900
5C4C64
1DEE90
ENDCHAR
STARTCHAR uni044B
ENCODING 1099
SWIDTH 702 0
DWIDTH 6 0
BBX 7 4 0 0
BITMAP
4A009400
8DD7F200
897EE370
3DD3AC20
ENDCHAR
STARTCHAR uni044C
ENCODING 1100
SWIDTH 517 0
DWIDTH 4 0
BBX 6 4 0 0
BITMAP
4A0000
8DE600
897981
3DDE70
ENDCHAR
STARTCHAR uni044D
ENCODING 1101
SWIDTH 466 0
DWIDTH 4 0
BBX 5 4 0 0
BITMAP
3DD500
36EFA0
A28700
5EC100
ENDCHAR
STARTCHAR uni044E
ENCODING 1102
SWIDTH 676 0
DWIDTH 5 0
BBX 7 4 0 0
BITMAP
486EC100
8EF4DD50
95C3C100
745E7000
ENDCHAR
STARTCHAR uni044F
ENCODING 1103
SWIDTH 543 0
DWIDTH 4 0
BBX 6 4 0 0
BITMAP
06ED10
0B3C00
B7FB54
BD7D90
ENDCHAR
STARTCHAR uni0450
ENCODING 1104
SWIDTH 393 0
DWIDTH 3 0
BBX 5 8 0 0
BITMAP
140000
2D0000
065000
000000
2CD000
97C000
AC4910
4DD600
ENDCHAR
STARTCHAR uni0451
ENCODING 1105
SWIDTH 393 0
DWIDTH 3 0
BBX 5 6 0 0
BITMAP
1A5700
000000
2CD000
97C000
AC4910
4DD600
ENDCHAR
STARTCHAR uni0452
ENCODING 1106
SWIDTH 514 0
DWIDTH 4 0
BBX 5 11 0 -4
BITMAP
0A4000
6FE600
3D0000
5AAA00
7DB900
8C79A0
779D30
04E300
3AD000
969000
8D2000
ENDCHAR
STARTCHAR uni0453
ENCODING 1107
SWIDTH 380 0
DWIDTH 3 0
BBX 4 8 0 0
BITMAP
0051
01D1
0640
0000
5EC0
16A0
8819
7ED5
ENDCHAR
STARTCHAR uni0454
ENCODING 1108
SWIDTH 379 0
DWIDTH 3 0
BBX 4 4 0 0
BITMAP
2DD1
9E52
A71B
4DD4
ENDCHAR
STARTCHAR uni0455
ENCODING 1109
SWIDTH 427 0
DWIDTH 3 0
BBX 5 4 0 0
BITMAP
086000
1E7000
A6F760
5CFB10
ENDCHAR
STARTCHAR uni0456
ENCODING 1110
SWIDTH 246 0
DWIDTH 2 0
BBX 3 6 0 0
BITMAP
1C10
0000
4900
8700
9690
5E50
ENDCHAR
STARTCHAR uni0457
ENCODING 1111
SWIDTH 246 0
DWIDTH 2 0
BBX 3 6 0 0
BITMAP
B490
0000
4900
8700
9690
5E50
ENDCHAR
STARTCHAR uni0458
ENCODING 1112
SWIDTH 254 0
DWIDTH 2 0
BBX 5 10 -2 -4
BITMAP
004B00
000000
004900
007800
008890
00AC30
05F100
3AD000
A68000
9D1000
ENDCHAR
STARTCHAR uni0459
ENCODING 1113
SWIDTH 794 0
DWIDTH 6 0
BBX 8 4 0 0
BITMAP
00990000
01ECD900
D8AC4C65
BB1CEE90
ENDCHAR
STARTCHAR uni045A
ENCODING 1114
SWIDTH 751 0
DWIDTH 6 0
BBX 7 4 0 0
BITMAP
48580000
8EEEE400
958688A0
743DDE50
ENDCHAR
STARTCHAR uni045B
ENCODING 1115
SWIDTH 502 0
DWIDTH 4 0
BBX 5 7 0 0
BITMAP
0A4000
6FE600
3D0000
5AAA00
7DB900
8C8790
776E60
ENDCHAR
STARTCHAR uni045C
ENCODING 1116
SWIDTH 465 0
DWIDTH 4 0
BBX 5 8 0 0
BITMAP
001500
007900
00A100
000000
49BC00
8D8900
9F7280
78CD30
ENDCHAR
STARTCHAR uni045D
ENCODING 1117
SWIDTH 462 0
DWIDTH 4 0
BBX 5 8 0 0
BITMAP
050000
0D3000
038000
000000
396700
77B400
9AF380
6CAC20
ENDCHAR
STARTCHAR uni045E
ENCODING 1118
SWIDTH 479 0
DWIDTH 4 0
BBX 5 10 0 -4
BITMAP
161A00
0CD400
396700
77B500
9AF780
6CDA10
08D000
799000
B94000
CB0000
ENDCHAR
STARTCHAR uni045F
ENCODING 1119
SWIDTH 600 0
DWIDTH 5 0
BBX 5 5 0 -1
BITMAP
396700
77B400
9AF480
6DAD20
280000
ENDCHAR
STARTCHAR uni0462
ENCODING 1122
SWIDTH 721 0
DWIDTH 6 0
BBX 6 7 0 0
BITMAP
068000
6EE700
0DDDC2
7F10A9
2E0089
0E21D4
06DD60
ENDCHAR
STARTCHAR uni0463
ENCODING 1123
SWIDTH 517 0
DWIDTH 4 0
BBX 6 6 0 0
BITMAP
060000
1E0000
AFA000
8CD600
896981
3DDE70
ENDCHAR
STARTCHAR uni046A
ENCODING 1130
SWIDTH 1234 0
DWIDTH 10 0
BBX 11 7 0 0
BITMAP
04EFEEEEFC00
001E2007A000
0009704D2000
0005FFE40000
004D5D6C0000
72C55B0E5260
7E906905EB10
ENDCHAR
STARTCHAR uni046B
ENCODING 1131
SWIDTH 788 0
DWIDTH 6 0
BBX 8 7 0 0
BITMAP
0002E200
0006E200
000BC000
02ECCD30
0088D200
A3DCF354
AD5D5EA0
ENDCHAR
STARTCHAR uni0472
ENCODING 1138
SWIDTH 816 0
DWIDTH 7 0
BBX 7 7 0 0
BITMAP
01AED500
0B904F20
3E000D50
6EDDEF50
7B002F20
3E20AA00
07EE9000
ENDCHAR
STARTCHAR uni0473
ENCODING 1139
SWIDTH 451 0
DWIDTH 4 0
BBX 5 4 0 0
BITMAP
2DC100
979830
AEEE70
4DC200
ENDCHAR
STARTCHAR uni0474
ENCODING 1140
SWIDTH 797 0
DWIDTH 6 0
BBX 7 7 1 0
BITMAP
A5009EB0
D400E410
E302F100
F207A000
E30D4000
B98B0000
4EB10000
ENDCHAR
STARTCHAR uni0475
ENCODING 1141
SWIDTH 420 0
DWIDTH 3 0
BBX 5 4 0 0
BITMAP
855D30
96C300
8BB000
5D2000
ENDCHAR
STARTCHAR uni048A
ENCODING 1162
SWIDTH 890 0
DWIDTH 7 0
BBX 9 12 0 -2
BITMAP
0006050000
000AD80000
0000000000
3DD1069000
B3F2099000
02F00C7000
05C01F4000
08907F2000
0A949F4810
06EB1AF900
000005C000
00000A4000
ENDCHAR
STARTCHAR uni048B
ENCODING 1163
SWIDTH 462 0
DWIDTH 4 0
BBX 5 9 0 -2
BITMAP
000500
1CD700
000000
396700
77B400
9AF480
6CAE20
00A500
005000
ENDCHAR
STARTCHAR uni048C
ENCODING 1164
SWIDTH 721 0
DWIDTH 6 0
BBX 6 7 0 0
BITMAP
068000
6EE700
0DDDC2
7F10A9
2E0089
0E21D4
06DD60
ENDCHAR
STARTCHAR uni048D
ENCODING 1165
SWIDTH 517 0
DWIDTH 4 0
BBX 6 6 0 0
BITMAP
060000
1E0000
AFA000
8CD600
896981
3DDE70
ENDCHAR
STARTCHAR uni048E
ENCODING 1166
SWIDTH 805 0
DWIDTH 6 0
BBX 8 9 0 -2
BITMAP
007DEA00
08801D60
2C1D2B80
674D4FB1
86DED610
94980000
77C50000
1DE10000
00100000
ENDCHAR
STARTCHAR uni048F
ENCODING 1167
SWIDTH 481 0
DWIDTH 4 0
BBX 6 8 -1 -4
BITMAP
06BE40
079880
0ABE59
2EEDD4
8B6000
B94000
BB1000
B90000
ENDCHAR
STARTCHAR uni0490
ENCODING 1168
SWIDTH 645 0
DWIDTH 5 0
BBX 8 10 0 0
BITMAP
00000040
000000C2
000000E0
1ADEED90
97890000
84B60000
00E40000
01F10000
03E00000
04B00000
ENDCHAR
STARTCHAR uni0491
ENCODING 1169
SWIDTH 394 0
DWIDTH 3 0
BBX 4 6 0 0
BITMAP
0022
0076
4EC2
8700
9500
7400
ENDCHAR
STARTCHAR uni0492
ENCODING 1170
SWIDTH 635 0
DWIDTH 5 0
BBX 7 7 0 0
BITMAP
2AEEED90
97990000
74B60000
09FE3000
01F10000
03E00000
04C00000
ENDCHAR
STARTCHAR uni0493
ENCODING 1171
SWIDTH 380 0
DWIDTH 3 0
BBX 4 4 0 0
BITMAP
5EC0
57A0
9B49
7ED5
ENDCHAR
STARTCHAR uni0494
ENCODING 1172
SWIDTH 884 0
DWIDTH 7 0
BBX 8 11 0 -4
BITMAP
1ADEED90
97890000
85B60000
00E8DE30
01F90980
03E10ABC
04B00CC2
0000AF20
0008BD00
000D7800
000CC100
ENDCHAR
STARTCHAR uni0495
ENCODING 1173
SWIDTH 441 0
DWIDTH 4 0
BBX 5 7 0 -3
BITMAP
5EC000
16A000
881320
8EFC20
0AE100
69A000
4D3000
ENDCHAR
STARTCHAR uni0496
ENCODING 1174
SWIDTH 1234 0
DWIDTH 10 0
BBX 11 10 0 -3
BITMAP
07E80860BE40
031E2B56A220
00097D7D2000
0005FFE40000
004D5D6C0000
72C55B0E7260
7E906904EE50
00000008E700
0000004CA400
0000003D9000
ENDCHAR
STARTCHAR uni0497
ENCODING 1175
SWIDTH 803 0
DWIDTH 6 0
BBX 8 7 0 -3
BITMAP
3E7ABC00
14FD8800
A5DE8032
AD68DEB1
0000AC00
00079800
0006D200
ENDCHAR
STARTCHAR uni0498
ENCODING 1176
SWIDTH 725 0
DWIDTH 6 0
BBX 6 10 0 -3
BITMAP
04CEB0
0D40E2
0503C0
00ABC2
3400B7
7A03E5
1CEF80
02CE20
0A7D00
07E500
ENDCHAR
STARTCHAR uni0499
ENCODING 1177
SWIDTH 445 0
DWIDTH 4 0
BBX 5 7 0 -3
BITMAP
4DD200
44B100
44D530
8EFC20
09D000
59A000
3D3000
ENDCHAR
STARTCHAR uni049A
ENCODING 1178
SWIDTH 937 0
DWIDTH 8 0
BBX 9 10 0 -3
BITMAP
1ADE806900
690D41D400
370F3B8000
008FF60000
004C7D0000
A2890E7440
4EC206FC20
00002CE100
0000A7D000
00008D5000
ENDCHAR
STARTCHAR uni049B
ENCODING 1179
SWIDTH 531 0
DWIDTH 4 0
BBX 5 7 0 -3
BITMAP
49BC00
8D8900
9F7050
78CEA0
02CA00
0A9600
08B100
ENDCHAR
STARTCHAR uni049C
ENCODING 1180
SWIDTH 937 0
DWIDTH 8 0
BBX 9 7 0 0
BITMAP
1AEE806900
6A1C61E400
370FBC8000
008FF60000
004DDD0000
A2899E6460
5ED206EB10
ENDCHAR
STARTCHAR uni049D
ENCODING 1181
SWIDTH 485 0
DWIDTH 4 0
BBX 5 4 0 0
BITMAP
499D10
8CA810
9FA1A0
76BD40
ENDCHAR
STARTCHAR uni049E
ENCODING 1182
SWIDTH 937 0
DWIDTH 8 0
BBX 9 7 0 0
BITMAP
1AEE806900
6ABFD1D400
260F3B8000
008FF60000
004C7D0000
A2890E6460
5EC205EB10
ENDCHAR
STARTCHAR uni049F
ENCODING 1183
SWIDTH 473 0
DWIDTH 4 0
BBX 5 7 0 0
BITMAP
0A4000
6FE600
3D0000
5ABD00
7D9900
8F8180
69CD30
ENDCHAR
STARTCHAR uni04A0
ENCODING 1184
SWIDTH 937 0
DWIDTH 8 0
BBX 9 7 0 0
BITMAP
3EFF906800
000D41D200
000F3A7000
008FF60000
004C7D0000
A2890E6460
5EC205EB10
ENDCHAR
STARTCHAR uni04A1
ENCODING 1185
SWIDTH 555 0
DWIDTH 4 0
BBX 6 4 0 0
BITMAP
7E8D80
0BD590
0DF345
0B7DB1
ENDCHAR
STARTCHAR uni04A2
ENCODING 1186
SWIDTH 907 0
DWIDTH 7 0
BBX 10 11 -1 -3
BITMAP
0000002D50
05DC00B690
191F21E460
001F04DA10
02EFDDB000
007A089000
00A706D352
00B301CFA1
000004DD00
00000D7900
00000BD200
ENDCHAR
STARTCHAR uni04A3
ENCODING 1187
SWIDTH 515 0
DWIDTH 4 0
BBX 5 7 0 -3
BITMAP
485800
8EE600
95A6A0
747E40
03D700
0B9300
0AA000
ENDCHAR
STARTCHAR uni04A4
ENCODING 1188
SWIDTH 873 0
DWIDTH 7 0
BBX 10 7 -1 0
BITMAP
05DC004ED9
191F20E400
001F04E000
02EFDDA000
007A089000
00A706B090
00B301BD50
ENDCHAR
STARTCHAR uni04A5
ENCODING 1189
SWIDTH 475 0
DWIDTH 4 0
BBX 5 5 0 0
BITMAP
000320
485B10
8EE620
95B5A0
748D20
ENDCHAR
STARTCHAR uni04A8
ENCODING 1192
SWIDTH 997 0
DWIDTH 8 0
BBX 9 7 0 0
BITMAP
01BD6DC300
0B94E38C00
3E09802F00
6B0B703F00
7C09908A00
3F54F9D480
05DFDCEC60
ENDCHAR
STARTCHAR uni04A9
ENCODING 1193
SWIDTH 574 0
DWIDTH 5 0
BBX 6 4 0 0
BITMAP
2C9D20
96C660
A5CB78
4DDEA1
ENDCHAR
STARTCHAR uni04AA
ENCODING 1194
SWIDTH 781 0
DWIDTH 6 0
BBX 8 11 0 -4
BITMAP
019ED300
0B808800
3E005500
6B000000
7B000000
3F305891
06DEDE40
0003E500
002BD100
0076B000
006E3000
ENDCHAR
STARTCHAR uni04AB
ENCODING 1195
SWIDTH 431 0
DWIDTH 3 0
BBX 5 7 0 -3
BITMAP
2DB000
969000
A61320
4EEC10
0AD000
799000
6D2000
ENDCHAR
STARTCHAR uni04AC
ENCODING 1196
SWIDTH 697 0
DWIDTH 6 0
BBX 8 10 0 -3
BITMAP
19CEEED1
970C5000
840F2000
003E0000
005C0000
007A0000
008E3000
01BE3000
098D0000
07E60000
ENDCHAR
STARTCHAR uni04AD
ENCODING 1197
SWIDTH 784 0
DWIDTH 6 0
BBX 7 7 0 -3
BITMAP
49A8A900
8DBDB800
9C8C8650
76766FA0
0001CB00
00099600
0008C100
ENDCHAR
STARTCHAR uni04AE
ENCODING 1198
SWIDTH 677 0
DWIDTH 5 0
BBX 5 7 1 0
BITMAP
C405B0
8A1D40
2F9A00
0BE200
07A000
079000
077000
ENDCHAR
STARTCHAR uni04AF
ENCODING 1199
SWIDTH 472 0
DWIDTH 4 0
BBX 5 7 0 -3
BITMAP
858900
78BFB0
5BB100
4F3000
3D0000
2D0000
1C0000
ENDCHAR
STARTCHAR uni04B0
ENCODING 1200
SWIDTH 677 0
DWIDTH 5 0
BBX 5 7 1 0
BITMAP
C405B0
8A1D40
2F9A00
0AE100
5EF700
079000
077000
ENDCHAR
STARTCHAR uni04B1
ENCODING 1201
SWIDTH 472 0
DWIDTH 4 0
BBX 5 7 0 -3
BITMAP
858900
78BFB0
5AC100
4F5000
AF9000
2D0000
1C0000
ENDCHAR
STARTCHAR uni04B2
ENCODING 1202
SWIDTH 716 0
DWIDTH 6 0
BBX 7 10 0 -3
BITMAP
5DC13D10
60C7D500
007F7000
009E0000
07CE3000
5E2A9140
D403EE50
000AE500
006AC200
005E8000
ENDCHAR
STARTCHAR uni04B3
ENCODING 1203
SWIDTH 601 0
DWIDTH 5 0
BBX 6 7 0 -3
BITMAP
3E9D40
25F410
95F014
ADCEE4
006E40
02BB00
01D600
ENDCHAR
STARTCHAR uni04B4
ENCODING 1204
SWIDTH 1040 0
DWIDTH 8 0
BBX 10 10 0 -3
BITMAP
19DEEB3B00
970B606C00
950E309900
003F00D700
006C03F500
007A1AC711
003EC3AFC2
0000017E10
00000B7B00
00000AD300
ENDCHAR
STARTCHAR uni04B5
ENCODING 1205
SWIDTH 501 0
DWIDTH 4 0
BBX 5 9 0 -3
BITMAP
09E900
000000
396700
77B400
99F350
6C9E60
03D700
0CA200
0C9000
ENDCHAR
STARTCHAR uni04B6
ENCODING 1206
SWIDTH 804 0
DWIDTH 6 0
BBX 8 10 0 -3
BITMAP
0A502C00
0C505D00
0E309B00
1F23E900
0BFDA700
0010A700
00009FC4
00007E30
00098C00
0009D500
ENDCHAR
STARTCHAR uni04B7
ENCODING 1207
SWIDTH 631 0
DWIDTH 5 0
BBX 6 8 0 -3
BITMAP
024000
0ABE70
1B7900
A4E015
40DEE7
004D70
00CA30
00B900
ENDCHAR
STARTCHAR uni04B8
ENCODING 1208
SWIDTH 773 0
DWIDTH 6 0
BBX 6 7 0 0
BITMAP
0A502C
0C505C
0F579A
1F7AE9
0AFB97
0072B5
0000B3
ENDCHAR
STARTCHAR uni04B9
ENCODING 1209
SWIDTH 575 0
DWIDTH 5 0
BBX 6 5 0 0
BITMAP
069600
0BBD90
3B6B11
B3E268
40AEA1
ENDCHAR
STARTCHAR uni04BA
ENCODING 1210
SWIDTH 755 0
DWIDTH 6 0
BBX 7 7 0 0
BITMAP
07800000
0A700000
0C500000
0E8DE300
2F80A700
4E00B680
5A00AE60
ENDCHAR
STARTCHAR uni04BB
ENCODING 1211
SWIDTH 502 0
DWIDTH 4 0
BBX 5 8 0 0
BITMAP
04D300
0C7600
2C9200
5C9000
6DBA00
8CB900
8C8790
866E50
ENDCHAR
STARTCHAR uni04BC
ENCODING 1212
SWIDTH 808 0
DWIDTH 6 0
BBX 8 7 0 0
BITMAP
002AEC20
00C80980
36E00880
5EFEED40
07B00000
03F40043
005CEDA2
ENDCHAR
STARTCHAR uni04BD
ENCODING 1213
SWIDTH 483 0
DWIDTH 4 0
BBX 5 4 0 0
BITMAP
05E900
3D5B00
9FA490
07ED30
ENDCHAR
STARTCHAR uni04BE
ENCODING 1214
SWIDTH 808 0
DWIDTH 6 0
BBX 8 9 0 -2
BITMAP
002AEC20
00C80980
36E00880
5EFEED40
07B00000
03F40043
005FEDA2
00580000
003D8000
ENDCHAR
STARTCHAR uni04BF
ENCODING 1215
SWIDTH 483 0
DWIDTH 4 0
BBX 5 6 0 -2
BITMAP
05E900
3D5A00
8E9490
06EB30
00C000
00AB00
ENDCHAR
STARTCHAR uni04C0
ENCODING 1216
SWIDTH 495 0
DWIDTH 4 0
BBX 6 7 -1 0
BITMAP
01DFE4
002F10
004D00
006B00
008900
00B700
1CFE50
ENDCHAR
STARTCHAR uni04C1
ENCODING 1217
SWIDTH 1234 0
DWIDTH 10 0
BBX 11 9 0 0
BITMAP
000024150000
00002DE50000
07E80860BE40
031E2B56A220
00097D7D2000
0005FFE40000
004D5D6C0000
72C55B0E5260
7E906905EB10
ENDCHAR
STARTCHAR uni04C2
ENCODING 1218
SWIDTH 717 0
DWIDTH 6 0
BBX 7 6 0 0
BITMAP
0061B000
00AD5000
3E7ABC00
14FD8800
A5DE8180
AD67BD30
ENDCHAR
STARTCHAR uni04C3
ENCODING 1219
SWIDTH 937 0
DWIDTH 8 0
BBX 9 10 0 -3
BITMAP
1ADE806900
690D41D400
370F3B8000
008FF60000
004C7D0000
A2890E7440
4EC206FC20
00002CE100
0000A7D000
00008D5000
ENDCHAR
STARTCHAR uni04C4
ENCODING 1220
SWIDTH 531 0
DWIDTH 4 0
BBX 5 7 0 -3
BITMAP
49BC00
8D8900
9F7050
78CEA0
02CA00
0A9600
08B100
ENDCHAR
STARTCHAR uni04C5
ENCODING 1221
SWIDTH 861 0
DWIDTH 7 0
BBX 8 9 0 -2
BITMAP
00008900
0000EA00
0004F900
000AC900
002E7A00
B1A84D18
7EA00BF5
00000890
00000C10
ENDCHAR
STARTCHAR uni04C6
ENCODING 1222
SWIDTH 549 0
DWIDTH 4 0
BBX 6 6 0 -2
BITMAP
009900
01EA00
C8AA64
BB2EC0
001D20
004800
ENDCHAR
STARTCHAR uni04C7
ENCODING 1223
SWIDTH 907 0
DWIDTH 7 0
BBX 10 11 -1 -3
BITMAP
0000002D50
05DC00B690
191F21E460
001F04DA10
02EFDDB000
007A089000
00A706D352
00B301CFA1
000004DD00
00000D7900
00000BD200
ENDCHAR
STARTCHAR uni04C8
ENCODING 1224
SWIDTH 515 0
DWIDTH 4 0
BBX 5 7 0 -3
BITMAP
485800
8EE600
95A6A0
747E40
03D700
0B9300
0AA000
ENDCHAR
STARTCHAR uni04C9
ENCODING 1225
SWIDTH 873 0
DWIDTH 7 0
BBX 9 10 -1 -2
BITMAP
0000002D50
05DC00B690
191F21E460
001F04DA10
02EFDDB000
007A089000
00A706C2A0
00B301CF60
0000007A00
000000B200
ENDCHAR
STARTCHAR uni04CA
ENCODING 1226
SWIDTH 475 0
DWIDTH 4 0
BBX 5 6 0 -2
BITMAP
485800
8EE620
95A7A0
748E20
008500
005000
ENDCHAR
STARTCHAR uni04CB
ENCODING 1227
SWIDTH 773 0
DWIDTH 6 0
BBX 6 10 0 -3
BITMAP
0A502C
0C505C
0E309A
1F23E9
0BFDA7
0010B5
0007E3
00AD50
069C10
04E800
ENDCHAR
STARTCHAR uni04CC
ENCODING 1228
SWIDTH 555 0
DWIDTH 4 0
BBX 6 6 0 -1
BITMAP
024000
0ABE70
1B7900
A4E066
40CEB0
000540
ENDCHAR
STARTCHAR uni04CD
ENCODING 1229
SWIDTH 1133 0
DWIDTH 9 0
BBX 10 9 0 -2
BITMAP
0007C04E10
000BD0BF00
000DD2DE00
002CD7AE00
0078EC5E00
A1C3CC1F18
8E808708F9
00000006C0
0000000B30
ENDCHAR
STARTCHAR uni04CE
ENCODING 1230
SWIDTH 734 0
DWIDTH 6 0
BBX 7 6 0 -2
BITMAP
00C4C500
13EAD600
D8AE9690
BB3A5F60
00006A00
0000A200
ENDCHAR
STARTCHAR uni04CF
ENCODING 1231
SWIDTH 222 0
DWIDTH 2 0
BBX 3 7 0 0
BITMAP
0B30
0F10
2D00
5B00
7800
9600
A400
ENDCHAR
STARTCHAR uni04D0
ENCODING 1232
SWIDTH 786 0
DWIDTH 6 0
BBX 8 9 0 0
BITMAP
00033330
0004ED30
005CEE80
06D42710
1E306B00
6C00A800
8A01E500
6D18E663
0BE87E90
ENDCHAR
STARTCHAR uni04D1
ENCODING 1233
SWIDTH 470 0
DWIDTH 4 0
BBX 5 6 0 0
BITMAP
061B00
0AD500
0AD400
7A9500
A5D480
6E9D30
ENDCHAR
STARTCHAR uni04D2
ENCODING 1234
SWIDTH 786 0
DWIDTH 6 0
BBX 8 9 0 0
BITMAP
00057A30
00000000
005CEE80
06D42710
1E306B00
6C00A800
8A01E500
6D18E663
0BE87E90
ENDCHAR
STARTCHAR uni04D3
ENCODING 1235
SWIDTH 470 0
DWIDTH 4 0
BBX 5 6 0 0
BITMAP
094B00
000000
0AD400
7A9500
A5D480
6E9D30
ENDCHAR
STARTCHAR uni04D4
ENCODING 1236
SWIDTH 1015 0
DWIDTH 8 0
BBX 10 7 0 0
BITMAP
006CAAEE70
07D42F0000
2E205C0000
6B009EED00
8A00E70000
6C07EA0061
0AEA2BED80
ENDCHAR
STARTCHAR uni04D5
ENCODING 1237
SWIDTH 653 0
DWIDTH 5 0
BBX 7 4 0 0
BITMAP
0AECD100
7988C100
A5DC4830
6E7DE700
ENDCHAR
STARTCHAR uni04D6
ENCODING 1238
SWIDTH 686 0
DWIDTH 5 0
BBX 7 9 0 0
BITMAP
00333300
004ED300
02BED300
0C707A00
0D604600
08FA0000
8B200000
AA001430
2BEEDA20
ENDCHAR
STARTCHAR uni04D7
ENCODING 1239
SWIDTH 393 0
DWIDTH 3 0
BBX 5 6 0 0
BITMAP
243800
2DC200
2CD000
97C000
AC4910
4DD600
ENDCHAR
STARTCHAR uni04D8
ENCODING 1240
SWIDTH 792 0
DWIDTH 6 0
BBX 7 7 0 0
BITMAP
04CEC300
08206D00
00000F20
5EEEEF20
7B005E00
4E21C700
07ED7000
ENDCHAR
STARTCHAR uni04D9
ENCODING 1241
SWIDTH 455 0
DWIDTH 4 0
BBX 5 4 0 0
BITMAP
4DD400
9EEE90
C2A600
6EB100
ENDCHAR
STARTCHAR uni04DA
ENCODING 1242
SWIDTH 792 0
DWIDTH 6 0
BBX 7 9 0 0
BITMAP
0075B100
00000000
04CEC300
08206D00
00000F20
5EEEEF20
7B005E00
4E21C700
07ED7000
ENDCHAR
STARTCHAR uni04DB
ENCODING 1243
SWIDTH 455 0
DWIDTH 4 0
BBX 5 6 0 0
BITMAP
1A6600
000000
4DD400
9EEE90
C2A600
6EB100
ENDCHAR
STARTCHAR uni04DC
ENCODING 1244
SWIDTH 1234 0
DWIDTH 10 0
BBX 11 9 0 0
BITMAP
000039750000
000000000000
07E80860BE40
031E2B56A220
00097D7D2000
0005FFE40000
004D5D6C0000
72C55B0E5260
7E906905EB10
ENDCHAR
STARTCHAR uni04DD
ENCODING 1245
SWIDTH 717 0
DWIDTH 6 0
BBX 7 6 0 0
BITMAP
0094B000
00000000
3E7ABC00
14FD8800
A5DE8180
AD67BD30
ENDCHAR
STARTCHAR uni04DE
ENCODING 1246
SWIDTH 725 0
DWIDTH 6 0
BBX 6 9 0 0
BITMAP
0085B1
000000
04CEB0
0D40E2
0503C0
00ABC2
3400B7
7A03E4
1BED60
ENDCHAR
STARTCHAR uni04DF
ENCODING 1247
SWIDTH 435 0
DWIDTH 3 0
BBX 6 10 -1 -4
BITMAP
057930
000000
03DD10
011B20
03B753
04CA90
02D900
0B9700
48C200
3E7000
ENDCHAR
STARTCHAR uni04E0
ENCODING 1248
SWIDTH 744 0
DWIDTH 6 0
BBX 7 7 0 0
BITMAP
06DEEB10
0D20A800
0415C100
00ABC200
3400B700
7A03E400
1BED6000
ENDCHAR
STARTCHAR uni04E1
ENCODING 1249
SWIDTH 435 0
DWIDTH 3 0
BBX 6 8 -1 -4
BITMAP
07EFA0
009910
06A084
03CB60
02D800
0B8700
48C200
2E7000
ENDCHAR
STARTCHAR uni04E2
ENCODING 1250
SWIDTH 890 0
DWIDTH 7 0
BBX 9 8 0 0
BITMAP
000CE60000
3DD1069000
B3F2099000
02F00C7000
05C01F4000
08907F2000
0A949F4810
06EB1BE700
ENDCHAR
STARTCHAR uni04E3
ENCODING 1251
SWIDTH 462 0
DWIDTH 4 0
BBX 5 5 0 0
BITMAP
0BE700
396700
77B400
9AF380
6CAC20
ENDCHAR
STARTCHAR uni04E4
ENCODING 1252
SWIDTH 890 0
DWIDTH 7 0
BBX 9 9 0 0
BITMAP
000B490000
0000000000
3DD1069000
B3F2099000
02F00C7000
05C01F4000
08907F2000
0A949F4810
06EB1BE700
ENDCHAR
STARTCHAR uni04E5
ENCODING 1253
SWIDTH 462 0
DWIDTH 4 0
BBX 5 6 0 0
BITMAP
0A4900
000000
396700
77B400
9AF380
6CAC20
ENDCHAR
STARTCHAR uni04E6
ENCODING 1254
SWIDTH 816 0
DWIDTH 7 0
BBX 7 9 0 0
BITMAP
00488400
00000000
01AED500
0B804F20
3E000D50
6B000D50
7B001F20
3E20AA00
07ED9000
ENDCHAR
STARTCHAR uni04E7
ENCODING 1255
SWIDTH 451 0
DWIDTH 4 0
BBX 5 6 0 0
BITMAP
2A6600
000000
2DD300
96BE70
A6A300
4DA000
ENDCHAR
STARTCHAR uni04E8
ENCODING 1256
SWIDTH 816 0
DWIDTH 7 0
BBX 7 7 0 0
BITMAP
01AED500
0B803F20
3E000D50
6FEEEF50
7B001F20
3E20AA00
07EE9000
ENDCHAR
STARTCHAR uni04E9
ENCODING 1257
SWIDTH 451 0
DWIDTH 4 0
BBX 5 4 0 0
BITMAP
2CD300
9EEE80
A6A300
4DA000
ENDCHAR
STARTCHAR uni04EA
ENCODING 1258
SWIDTH 816 0
DWIDTH 7 0
BBX 7 9 0 0
BITMAP
00488400
00000000
01AED500
0B803F20
3E000D50
6FEEEF50
7B001F20
3E20AA00
07EE9000
ENDCHAR
STARTCHAR uni04EB
ENCODING 1259
SWIDTH 451 0
DWIDTH 4 0
BBX 5 6 0 0
BITMAP
2A6600
000000
2CD300
9EEE80
A6A300
4DA000
ENDCHAR
STARTCHAR uni04EC
ENCODING 1260
SWIDTH 755 0
DWIDTH 6 0
BBX 6 9 0 0
BITMAP
0084B0
000000
07DEA1
2910B9
00005D
03EEED
32008A
9803E3
3CEC40
ENDCHAR
STARTCHAR uni04ED
ENCODING 1261
SWIDTH 466 0
DWIDTH 4 0
BBX 5 6 0 0
BITMAP
0B4800
000000
3DD500
36EFA0
A28700
5EC100
ENDCHAR
STARTCHAR uni04EE
ENCODING 1262
SWIDTH 824 0
DWIDTH 7 0
BBX 8 10 0 -2
BITMAP
000DE500
4CD00690
52F10B80
03E01E60
05C1AE30
01CD5F53
0004AE94
00896A00
01E1B500
00BD8000
ENDCHAR
STARTCHAR uni04EF
ENCODING 1263
SWIDTH 479 0
DWIDTH 4 0
BBX 5 9 0 -4
BITMAP
0BE700
396700
77B500
9AF780
6CDA10
08D000
799000
B94000
CB0000
ENDCHAR
STARTCHAR uni04F0
ENCODING 1264
SWIDTH 824 0
DWIDTH 7 0
BBX 8 11 0 -2
BITMAP
001B5700
00000000
4CD00690
52F10B80
03E01E60
05C1AE30
01CD5F53
0004AE94
00896A00
01E1B500
00BD8000
ENDCHAR
STARTCHAR uni04F1
ENCODING 1265
SWIDTH 479 0
DWIDTH 4 0
BBX 5 10 0 -4
BITMAP
0A4900
000000
396700
77B500
9AF780
6CDA10
08D000
799000
B94000
CB0000
ENDCHAR
STARTCHAR uni04F2
ENCODING 1266
SWIDTH 824 0
DWIDTH 7 0
BBX 8 12 0 -2
BITMAP
00076B00
000A5600
00000000
4CD00690
52F10B80
03E01E60
05C1AE30
01CD5F53
0004AE94
00896A00
01E1B500
00BD8000
ENDCHAR
STARTCHAR uni04F3
ENCODING 1267
SWIDTH 479 0
DWIDTH 4 0
BBX 5 12 0 -4
BITMAP
005410
04AC20
084800
000000
396700
77B500
9AF780
6CDA10
08D000
799000
B94000
CB0000
ENDCHAR
STARTCHAR uni04F4
ENCODING 1268
SWIDTH 773 0
DWIDTH 6 0
BBX 6 9 0 0
BITMAP
0085B1
000000
0A502C
0C505C
0E309A
1F23E9
0BFDA7
0010B5
0000B3
ENDCHAR
STARTCHAR uni04F5
ENCODING 1269
SWIDTH 555 0
DWIDTH 4 0
BBX 6 6 0 0
BITMAP
00A4A0
024000
0ABE70
1B7900
A4E066
40CE90
ENDCHAR
STARTCHAR uni04F6
ENCODING 1270
SWIDTH 600 0
DWIDTH 5 0
BBX 7 10 0 -3
BITMAP
1ADEED90
97890000
85B60000
00D40000
01F10000
03F00000
04F60000
08D70000
4BA30000
3DA00000
ENDCHAR
STARTCHAR uni04F7
ENCODING 1271
SWIDTH 441 0
DWIDTH 4 0
BBX 5 7 0 -3
BITMAP
5EC000
16A000
881320
8EFC20
0AE100
69A000
4D3000
ENDCHAR
STARTCHAR uni04F8
ENCODING 1272
SWIDTH 1078 0
DWIDTH 9 0
BBX 9 9 0 0
BITMAP
0001B57000
0000000000
0680000A40
0A60000D40
0ECDC20F10
9F10A93E00
2E00895C00
0E21D47A00
06DD608700
ENDCHAR
STARTCHAR uni04F9
ENCODING 1273
SWIDTH 702 0
DWIDTH 6 0
BBX 7 6 0 0
BITMAP
00B49000
00000000
4A009400
8DD7F200
897EE370
3DD3AC20
ENDCHAR
STARTCHAR uni04FA
ENCODING 1274
SWIDTH 635 0
DWIDTH 5 0
BBX 8 10 -1 -3
BITMAP
02AEEED9
09799000
074B6000
009FE300
001F1000
003F0000
005C0000
00890000
34D40000
5E900000
ENDCHAR
STARTCHAR uni04FB
ENCODING 1275
SWIDTH 441 0
DWIDTH 4 0
BBX 5 7 0 -3
BITMAP
5EC000
57A000
9B4320
7EFC20
0AE100
69A000
4D3000
ENDCHAR
STARTCHAR uni04FC
ENCODING 1276
SWIDTH 716 0
DWIDTH 6 0
BBX 7 10 0 -3
BITMAP
5DC13D10
60C7D500
007F7000
009E0000
07CE3000
5E2A9140
D403EE50
000AE500
006AC200
005E8000
ENDCHAR
STARTCHAR uni04FD
ENCODING 1277
SWIDTH 601 0
DWIDTH 5 0
BBX 6 7 0 -3
BITMAP
3E9D40
25F410
95F014
ADCEE4
006E40
02BB00
01D600
ENDCHAR
STARTCHAR uni04FE
ENCODING 1278
SWIDTH 712 0
DWIDTH 6 0
BBX 7 7 0 0
BITMAP
5DC13D10
70C7D500
007F8000
09FFD200
04DE2000
3E3A7160
D503EC30
ENDCHAR
STARTCHAR uni04FF
ENCODING 1279
SWIDTH 529 0
DWIDTH 4 0
BBX 6 4 0 0
BITMAP
3D9D40
2AFA10
B7F183
9DAE70
ENDCHAR
STARTCHAR uni0510
ENCODING 1296
SWIDTH 706 0
DWIDTH 6 0
BBX 6 7 0 0
BITMAP
03CEA1
0B60C5
097041
2CBC00
8A0053
7D11D4
1AED70
ENDCHAR
STARTCHAR uni0511
ENCODING 1297
SWIDTH 392 0
DWIDTH 3 0
BBX 4 4 0 0
BITMAP
4DB0
5F22
C42C
7EC3
ENDCHAR
STARTCHAR uni0512
ENCODING 1298
SWIDTH 884 0
DWIDTH 7 0
BBX 9 10 0 -3
BITMAP
0000890000
0000EA0000
0004F90000
000AC90000
002E7A0000
B1A85D1510
7EA00CF900
00005DB000
0001E78000
0000CC1000
ENDCHAR
STARTCHAR uni0513
ENCODING 1299
SWIDTH 631 0
DWIDTH 5 0
BBX 6 7 0 -3
BITMAP
009900
01E900
C9B904
CB3EE8
003D70
00BB30
00B900
ENDCHAR
STARTCHAR uni051A
ENCODING 1306
SWIDTH 816 0
DWIDTH 7 0
BBX 7 10 0 -3
BITMAP
019ED500
0B904F20
3E100D50
6B000D50
7B001F30
4E108C00
0ADCD200
003E5000
0007D180
0001BD50
ENDCHAR
STARTCHAR uni051B
ENCODING 1307
SWIDTH 500 0
DWIDTH 4 0
BBX 5 8 0 -3
BITMAP
001500
0AEA00
7A9600
A5D9D0
6DE900
02D900
02D900
00E700
ENDCHAR
STARTCHAR uni051C
ENCODING 1308
SWIDTH 1217 0
DWIDTH 10 0
BBX 10 7 1 0
BITMAP
B401E13DA0
D404F085E0
E207E06BB0
F20CD00CEB
E23AD02D00
C7B3D4B500
5E707E7000
ENDCHAR
STARTCHAR uni051D
ENCODING 1309
SWIDTH 700 0
DWIDTH 6 0
BBX 7 4 0 0
BITMAP
8585B600
97E6DF80
8DCC9100
5D4D1000
ENDCHAR
STARTCHAR uni0524
ENCODING 1316
SWIDTH 892 0
DWIDTH 7 0
BBX 9 10 0 -3
BITMAP
19DEDDDC10
977A06A100
84A7098000
00C50C5000
00F20E2000
02F01F6310
03D007FB10
00004DC000
0000E78000
0000CC2000
ENDCHAR
STARTCHAR uni0525
ENCODING 1317
SWIDTH 536 0
DWIDTH 4 0
BBX 6 7 0 -3
BITMAP
49A900
8DB800
9C8641
765FA0
01CB00
099600
08C100
ENDCHAR
STARTCHAR uni0526
ENCODING 1318
SWIDTH 818 0
DWIDTH 7 0
BBX 8 10 0 -3
BITMAP
05A00000
09900000
0C600000
0E8DE300
2F90A800
4E00BA12
4B00AFE4
00019E30
00098D00
0007D600
ENDCHAR
STARTCHAR uni0527
ENCODING 1319
SWIDTH 542 0
DWIDTH 4 0
BBX 6 11 0 -3
BITMAP
03D300
0C7600
2C9200
5B9000
6DBA00
8CB900
8C8741
865FB0
01BB00
089700
07C100
ENDCHAR
STARTCHAR uni0528
ENCODING 1320
SWIDTH 873 0
DWIDTH 7 0
BBX 9 11 -1 -3
BITMAP
0000002D50
05DC00B690
191F21E460
001F04DB10
02EFDDB100
007A089000
009806B090
00C501BD50
00F2000000
75C0000000
AD40000000
ENDCHAR
STARTCHAR uni0529
ENCODING 1321
SWIDTH 475 0
DWIDTH 4 0
BBX 6 7 -1 -3
BITMAP
048580
08EE62
095B5A
0868D2
086000
795000
9C1000
ENDCHAR
STARTCHAR uni052E
ENCODING 1326
SWIDTH 884 0
DWIDTH 7 0
BBX 9 10 0 -3
BITMAP
0000890000
0000EA0000
0004F90000
000AC90000
002E7A0000
B1A85D1510
7EA00CF900
00005DB000
0001E78000
0000CC1000
ENDCHAR
STARTCHAR uni052F
ENCODING 1327
SWIDTH 631 0
DWIDTH 5 0
BBX 6 7 0 -3
BITMAP
009900
01E900
C9B904
CB3EE8
003D70
00BB30
00B900
ENDCHAR
STARTCHAR Wgrave
ENCODING 7808
SWIDTH 1217 0
DWIDTH 10 0
BBX 10 10 1 0
BITMAP
006A000000
0007900000
0000000000
B401E13DA0
D404F085E0
E207E06BB0
F20CD00CEB
E23AD02D00
C7B3D4B500
5E707E7000
ENDCHAR
STARTCHAR wgrave
ENCODING 7809
SWIDTH 700 0
DWIDTH 6 0
BBX 7 8 0 0
BITMAP
02300000
03C00000
00730000
00000000
8585B600
97E6DF80
8DCC9100
5D4D1000
ENDCHAR
STARTCHAR Wacute
ENCODING 7810
SWIDTH 1217 0
DWIDTH 10 0
BBX 10 10 1 0
BITMAP
0000079000
0000691000
0000000000
B401E13DA0
D404F085E0
E207E06BB0
F20CD00CEB
E23AD02D00
C7B3D4B500
5E707E7000
ENDCHAR
STARTCHAR wacute
ENCODING 7811
SWIDTH 700 0
DWIDTH 6 0
BBX 7 8 0 0
BITMAP
00033000
000B4000
00280000
00000000
8585B600
97E6DF80
8DCC9100
5D4D1000
ENDCHAR
STARTCHAR Wdieresis
ENCODING 7812
SWIDTH 1217 0
DWIDTH 10 0
BBX 10 9 1 0
BITMAP
00075B1000
0000000000
B401E13DA0
D404F085E0
E207E06BB0
F20CD00CEB
E23AD02D00
C7B3D4B500
5E707E7000
ENDCHAR
STARTCHAR wdieresis
ENCODING 7813
SWIDTH 700 0
DWIDTH 6 0
BBX 7 6 0 0
BITMAP
02975000
00000000
8585B600
97E6DF80
8DCC9100
5D4D1000
ENDCHAR
STARTCHAR uni1E9E
ENCODING 7838
SWIDTH 843 0
DWIDTH 7 0
BBX 7 8 0 -1
BITMAP
0687DD20
0BB80C70
0DC17C10
0F68E800
2F201E40
3E001E30
4A05CA00
00063000
ENDCHAR
STARTCHAR uni1EA0
ENCODING 7840
SWIDTH 786 0
DWIDTH 6 0
BBX 8 9 0 -2
BITMAP
005CEE80
06D42710
1E306B00
6C00A800
8A01E500
6D18E663
0BE87E90
00000000
00960000
ENDCHAR
STARTCHAR uni1EA1
ENCODING 7841
SWIDTH 470 0
DWIDTH 4 0
BBX 5 6 0 -2
BITMAP
0AD400
7A9500
A5D480
6E9D30
000000
1C1000
ENDCHAR
STARTCHAR uni1EA2
ENCODING 7842
SWIDTH 786 0
DWIDTH 6 0
BBX 8 9 0 0
BITMAP
0000BC00
00007A00
005CEE80
06D42710
1E306B00
6C00A800
8A01E500
6D18E663
0BE87E90
ENDCHAR
STARTCHAR uni1EA3
ENCODING 7843
SWIDTH 470 0
DWIDTH 4 0
BBX 5 7 0 0
BITMAP
02D500
002900
00C400
0AD400
7A9500
A5D480
6E9D30
ENDCHAR
STARTCHAR uni1EA4
ENCODING 7844
SWIDTH 786 0
DWIDTH 6 0
BBX 8 13 0 0
BITMAP
000002D1
00001B40
00003400
0001DD00
00077A20
00000000
005CEE80
06D42710
1E306B00
6C00A800
8A01E500
6D18E663
0BE87E90
ENDCHAR
STARTCHAR uni1EA5
ENCODING 7845
SWIDTH 470 0
DWIDTH 4 0
BBX 5 8 0 0
BITMAP
0002C0
02D930
0A6A00
000000
0AD400
7A9500
A5D480
6E9D30
ENDCHAR
STARTCHAR uni1EA6
ENCODING 7846
SWIDTH 786 0
DWIDTH 6 0
BBX 8 13 0 0
BITMAP
000D4000
0003B200
00003400
0001DD00
00077A20
00000000
005CEE80
06D42710
1E306B00
6C00A800
8A01E500
6D18E663
0BE87E90
ENDCHAR
STARTCHAR uni1EA7
ENCODING 7847
SWIDTH 470 0
DWIDTH 4 0
BBX 5 8 0 0
BITMAP
760000
17D600
0A6A00
000000
0AD400
7A9500
A5D480
6E9D30
ENDCHAR
STARTCHAR uni1EA8
ENCODING 7848
SWIDTH 786 0
DWIDTH 6 0
BBX 8 12 0 0
BITMAP
00006D30
00006F20
0001DD00
00077A20
00000000
005CEE80
06D42710
1E306B00
6C00A800
8A01E500
6D18E663
0BE87E90
ENDCHAR
STARTCHAR uni1EA9
ENCODING 7849
SWIDTH 470 0
DWIDTH 4 0
BBX 5 7 0 0
BITMAP
0007C0
01C8B0
099B00
0ED800
7A9500
A5D480
6E9D30
ENDCHAR
STARTCHAR uni1EAA
ENCODING 7850
SWIDTH 786 0
DWIDTH 6 0
BBX 8 13 0 0
BITMAP
00006150
00068B90
00003400
0001DD00
00077A20
00000000
005CEE80
06D42710
1E306B00
6C00A800
8A01E500
6D18E663
0BE87E90
ENDCHAR
STARTCHAR uni1EAB
ENCODING 7851
SWIDTH 470 0
DWIDTH 4 0
BBX 5 8 0 0
BITMAP
07AA20
029500
096A00
000000
0AD400
7A9500
A5D480
6E9D30
ENDCHAR
STARTCHAR uni1EAC
ENCODING 7852
SWIDTH 786 0
DWIDTH 6 0
BBX 8 13 0 -2
BITMAP
00003400
0001DD00
00077A20
00000000
005CEE80
06D42710
1E306B00
6C00A800
8A01E500
6D18E663
0BE87E90
00000000
00960000
ENDCHAR
STARTCHAR uni1EAD
ENCODING 7853
SWIDTH 470 0
DWIDTH 4 0
BBX 5 10 0 -2
BITMAP
00C500
06A900
0B2A00
000000
0AD400
7A9500
A5D480
6E9D30
000000
1C1000
ENDCHAR
STARTCHAR uni1EAE
ENCODING 7854
SWIDTH 786 0
DWIDTH 6 0
BBX 8 10 0 0
BITMAP
00001C20
00073650
0005DC20
005CEE80
06D42710
1E306B00
6C00A800
8A01E500
6D18E663
0BE87E90
ENDCHAR
STARTCHAR uni1EAF
ENCODING 7855
SWIDTH 470 0
DWIDTH 4 0
BBX 5 7 0 0
BITMAP
003B00
093820
09D900
0AD400
7A9500
A5D480
6E9D30
ENDCHAR
STARTCHAR uni1EB0
ENCODING 7856
SWIDTH 786 0
DWIDTH 6 0
BBX 8 10 0 0
BITMAP
0002C100
00075550
0004CB20
005CEE80
06D42710
1E306B00
6C00A800
8A01E500
6D18E663
0BE87E90
ENDCHAR
STARTCHAR uni1EB1
ENCODING 7857
SWIDTH 470 0
DWIDTH 4 0
BBX 5 7 0 0
BITMAP
068000
084720
08C900
0AD400
7A9500
A5D480
6E9D30
ENDCHAR
STARTCHAR uni1EB2
ENCODING 7858
SWIDTH 786 0
DWIDTH 6 0
BBX 8 10 0 0
BITMAP
0000A800
00038920
0006DC30
005CEE80
06D42710
1E306B00
6C00A800
8A01E500
6D18E663
0BE87E90
ENDCHAR
STARTCHAR uni1EB3
ENCODING 7859
SWIDTH 470 0
DWIDTH 4 0
BBX 5 7 0 0
BITMAP
01D400
03B710
0ADB10
0AD400
7A9500
A5D480
6E9D30
ENDCHAR
STARTCHAR uni1EB4
ENCODING 7860
SWIDTH 786 0
DWIDTH 6 0
BBX 8 11 0 0
BITMAP
00017150
00067B40
00062340
0005CB20
005CEE80
06D42710
1E306B00
6C00A800
8A01E500
6D18E663
0BE87E90
ENDCHAR
STARTCHAR uni1EB5
ENCODING 7861
SWIDTH 470 0
DWIDTH 4 0
BBX 5 8 0 0
BITMAP
036320
097B10
070520
09C900
0AD400
7A9500
A5D480
6E9D30
ENDCHAR
STARTCHAR uni1EB6
ENCODING 7862
SWIDTH 786 0
DWIDTH 6 0
BBX 8 11 0 -2
BITMAP
00052240
0005DC30
005CEE80
06D42710
1E306B00
6C00A800
8A01E500
6D18E663
0BE87E90
00000000
00960000
ENDCHAR
STARTCHAR uni1EB7
ENCODING 7863
SWIDTH 470 0
DWIDTH 4 0
BBX 5 8 0 -2
BITMAP
0D1A20
08D800
0AD400
7A9500
A5D480
6E9D30
000000
1C1000
ENDCHAR
STARTCHAR uni1EB8
ENCODING 7864
SWIDTH 686 0
DWIDTH 5 0
BBX 7 9 0 -2
BITMAP
02BED300
0C707A00
0D604600
08FA0000
8B200000
AA001430
2BEEDA20
00000000
00A50000
ENDCHAR
STARTCHAR uni1EB9
ENCODING 7865
SWIDTH 393 0
DWIDTH 3 0
BBX 5 6 0 -2
BITMAP
2CD000
97C000
AC4910
4DD600
000000
0B4000
ENDCHAR
STARTCHAR uni1EBA
ENCODING 7866
SWIDTH 686 0
DWIDTH 5 0
BBX 7 9 0 0
BITMAP
000BC000
0007A000
02BED300
0C707A00
0D604600
08FA0000
8B200000
AA001430
2BEEDA20
ENDCHAR
STARTCHAR uni1EBB
ENCODING 7867
SWIDTH 393 0
DWIDTH 3 0
BBX 5 7 0 0
BITMAP
06D200
007400
03C100
2CD000
97C000
AC4910
4DD600
ENDCHAR
STARTCHAR uni1EBC
ENCODING 7868
SWIDTH 686 0
DWIDTH 5 0
BBX 7 10 0 0
BITMAP
00251400
00A8C500
00000000
02BED300
0C707A00
0D604600
08FA0000
8B200000
AA001430
2BEEDA20
ENDCHAR
STARTCHAR uni1EBD
ENCODING 7869
SWIDTH 393 0
DWIDTH 3 0
BBX 5 7 0 0
BITMAP
061400
68B900
000000
2CD000
97C000
AC4910
4DD600
ENDCHAR
STARTCHAR uni1EBE
ENCODING 7870
SWIDTH 686 0
DWIDTH 5 0
BBX 7 11 0 0
BITMAP
00000A30
000BB500
0068C100
00000000
02BED300
0C707A00
0D604600
08FA0000
8B200000
AA001430
2BEEDA20
ENDCHAR
STARTCHAR uni1EBF
ENCODING 7871
SWIDTH 393 0
DWIDTH 3 0
BBX 5 8 0 0
BITMAP
000680
06E610
1C8600
000000
2CD000
97C000
AC4910
4DD600
ENDCHAR
STARTCHAR uni1EC0
ENCODING 7872
SWIDTH 686 0
DWIDTH 5 0
BBX 7 11 0 0
BITMAP
03B00000
005CA000
0068C100
00000000
02BED300
0C707A00
0D604600
08FA0000
8B200000
AA001430
2BEEDA20
ENDCHAR
STARTCHAR uni1EC1
ENCODING 7873
SWIDTH 393 0
DWIDTH 3 0
BBX 5 8 0 0
BITMAP
B20000
2AE100
1C8600
000000
2CD000
97C000
AC4910
4DD600
ENDCHAR
STARTCHAR uni1EC2
ENCODING 7874
SWIDTH 686 0
DWIDTH 5 0
BBX 7 10 0 0
BITMAP
00003D30
00099C20
005AD100
02EFF300
0C707A00
0D604600
08FA0000
8B200000
AA001430
2BEEDA20
ENDCHAR
STARTCHAR uni1EC3
ENCODING 7875
SWIDTH 393 0
DWIDTH 3 0
BBX 5 7 0 0
BITMAP
000B80
05D970
1D9600
2FE200
97C000
AC4910
4DD600
ENDCHAR
STARTCHAR uni1EC4
ENCODING 7876
SWIDTH 686 0
DWIDTH 5 0
BBX 7 11 0 0
BITMAP
003B9600
00178000
0058C100
00000000
02BED300
0C707A00
0D604600
08FA0000
8B200000
AA001430
2BEEDA20
ENDCHAR
STARTCHAR uni1EC5
ENCODING 7877
SWIDTH 393 0
DWIDTH 3 0
BBX 5 8 0 0
BITMAP
0A9900
04A100
1B8500
000000
2CD000
97C000
AC4910
4DD600
ENDCHAR
STARTCHAR uni1EC6
ENCODING 7878
SWIDTH 686 0
DWIDTH 5 0
BBX 7 13 0 -2
BITMAP
00034000
001DD000
0076B100
00000000
02BED300
0C707A00
0D604600
08FA0000
8B200000
AA001430
2BEEDA20
00000000
00A50000
ENDCHAR
STARTCHAR uni1EC7
ENCODING 7879
SWIDTH 393 0
DWIDTH 3 0
BBX 5 10 0 -2
BITMAP
03D100
0BA400
2A6600
000000
2CD000
97C000
AC4910
4DD600
000000
0B4000
ENDCHAR
STARTCHAR uni1EC8
ENCODING 7880
SWIDTH 495 0
DWIDTH 4 0
BBX 6 9 -1 0
BITMAP
000BB0
0008A0
01DFE4
002F10
004D00
006B00
008900
00B700
1CFE50
ENDCHAR
STARTCHAR uni1EC9
ENCODING 7881
SWIDTH 246 0
DWIDTH 2 0
BBX 3 7 0 0
BITMAP
4D40
0470
0D20
4900
8700
9690
5E50
ENDCHAR
STARTCHAR uni1ECA
ENCODING 7882
SWIDTH 495 0
DWIDTH 4 0
BBX 6 9 -1 -2
BITMAP
01DFE4
002F10
004D00
006B00
008900
00B700
1CFE50
000000
00C200
ENDCHAR
STARTCHAR uni1ECB
ENCODING 7883
SWIDTH 246 0
DWIDTH 2 0
BBX 3 8 0 -2
BITMAP
1C10
0000
4900
8700
9690
5E50
0000
A400
ENDCHAR
STARTCHAR uni1ECC
ENCODING 7884
SWIDTH 816 0
DWIDTH 7 0
BBX 7 9 0 -2
BITMAP
01AED500
0B804F20
3E000D50
6B000D50
7B001F20
3E20AA00
07ED9000
00000000
00960000
ENDCHAR
STARTCHAR uni1ECD
ENCODING 7885
SWIDTH 451 0
DWIDTH 4 0
BBX 5 6 0 -2
BITMAP
2DD300
96BE70
A6A300
4DA000
000000
0B2000
ENDCHAR
STARTCHAR uni1ECE
ENCODING 7886
SWIDTH 816 0
DWIDTH 7 0
BBX 7 9 0 0
BITMAP
0009D100
0006C000
01AED500
0B804F20
3E000D50
6B000D50
7B001F20
3E20AA00
07ED9000
ENDCHAR
STARTCHAR uni1ECF
ENCODING 7887
SWIDTH 451 0
DWIDTH 4 0
BBX 5 7 0 0
BITMAP
07D100
008400
03C100
2DD300
96BE70
A6A300
4DA000
ENDCHAR
STARTCHAR uni1ED0
ENCODING 7888
SWIDTH 816 0
DWIDTH 7 0
BBX 7 11 0 0
BITMAP
00000950
0009C500
004AB200
00000000
01AED500
0B804F20
3E000D50
6B000D50
7B001F20
3E20AA00
07ED9000
ENDCHAR
STARTCHAR uni1ED1
ENCODING 7889
SWIDTH 451 0
DWIDTH 4 0
BBX 5 8 0 0
BITMAP
000670
07D610
2C8500
000000
2DD300
96BE70
A6A300
4DA000
ENDCHAR
STARTCHAR uni1ED2
ENCODING 7890
SWIDTH 816 0
DWIDTH 7 0
BBX 7 11 0 0
BITMAP
01C10000
004BC000
004AB200
00000000
01AED500
0B804F20
3E000D50
6B000D50
7B001F20
3E20AA00
07ED9000
ENDCHAR
STARTCHAR uni1ED3
ENCODING 7891
SWIDTH 451 0
DWIDTH 4 0
BBX 5 8 0 0
BITMAP
C20000
2AD100
2C8500
000000
2DD300
96BE70
A6A300
4DA000
ENDCHAR
STARTCHAR uni1ED4
ENCODING 7892
SWIDTH 816 0
DWIDTH 7 0
BBX 7 10 0 0
BITMAP
00001D50
0008BB40
003CC200
01CFF600
0B804F20
3E000D50
6B000D50
7B001F20
3E20AA00
07ED9000
ENDCHAR
STARTCHAR uni1ED5
ENCODING 7893
SWIDTH 451 0
DWIDTH 4 0
BBX 5 7 0 0
BITMAP
000C70
05C960
1DA500
3FF400
96BE70
A6A300
4DA000
ENDCHAR
STARTCHAR uni1ED6
ENCODING 7894
SWIDTH 816 0
DWIDTH 7 0
BBX 7 11 0 0
BITMAP
002B9800
00069000
0049A200
00000000
01AED500
0B804F20
3E000D50
6B000D50
7B001F20
3E20AA00
07ED9000
ENDCHAR
STARTCHAR uni1ED7
ENCODING 7895
SWIDTH 451 0
DWIDTH 4 0
BBX 5 8 0 0
BITMAP
0B9900
05A100
1B8500
000000
2DD300
96BE70
A6A300
4DA000
ENDCHAR
STARTCHAR uni1ED8
ENCODING 7896
SWIDTH 816 0
DWIDTH 7 0
BBX 7 13 0 -2
BITMAP
00034000
000DD100
00589300
00000000
01AED500
0B804F20
3E000D50
6B000D50
7B001F20
3E20AA00
07ED9000
00000000
00960000
ENDCHAR
STARTCHAR uni1ED9
ENCODING 7897
SWIDTH 451 0
DWIDTH 4 0
BBX 5 10 0 -2
BITMAP
03D000
0BA400
2A6500
000000
2DD300
96BE70
A6A300
4DA000
000000
0B2000
ENDCHAR
STARTCHAR uni1EDA
ENCODING 7898
SWIDTH 816 0
DWIDTH 7 0
BBX 7 10 0 0
BITMAP
00004D00
0003B350
000004C0
01AEFF40
0B804F20
3E000D50
6B000D50
7B001F20
3E20A900
07ED9000
ENDCHAR
STARTCHAR uni1EDB
ENCODING 7899
SWIDTH 451 0
DWIDTH 4 0
BBX 5 8 0 0
BITMAP
003200
00C300
037000
000B00
2DF800
96BE70
A6A300
4DA000
ENDCHAR
STARTCHAR uni1EDC
ENCODING 7900
SWIDTH 816 0
DWIDTH 7 0
BBX 7 10 0 0
BITMAP
02C20000
005B0050
000004C0
01AEFF40
0B804F20
3E000D50
6B000D50
7B001F20
3E20A900
07ED9000
ENDCHAR
STARTCHAR uni1EDD
ENCODING 7901
SWIDTH 451 0
DWIDTH 4 0
BBX 5 8 0 0
BITMAP
330000
4B0000
082000
000B00
2DF800
96BE70
A6A300
4DA000
ENDCHAR
STARTCHAR uni1EDE
ENCODING 7902
SWIDTH 816 0
DWIDTH 7 0
BBX 7 9 0 0
BITMAP
0009D150
0006C4C0
01AEFF40
0B804F20
3E000D50
6B000D50
7B001F20
3E20A900
07ED9000
ENDCHAR
STARTCHAR uni1EDF
ENCODING 7903
SWIDTH 451 0
DWIDTH 4 0
BBX 5 7 0 0
BITMAP
09C000
00A100
06AB00
2DF800
96BE70
A6A300
4DA000
ENDCHAR
STARTCHAR uni1EE0
ENCODING 7904
SWIDTH 816 0
DWIDTH 7 0
BBX 7 10 0 0
BITMAP
00160500
0098C750
000004C0
01AEFF40
0B804F20
3E000D50
6B000D50
7B001F20
3E20A900
07ED9000
ENDCHAR
STARTCHAR uni1EE1
ENCODING 7905
SWIDTH 451 0
DWIDTH 4 0
BBX 5 7 0 0
BITMAP
051300
4DB500
316B00
2DF800
96BE70
A6A300
4DA000
ENDCHAR
STARTCHAR uni1EE2
ENCODING 7906
SWIDTH 816 0
DWIDTH 7 0
BBX 7 11 0 -2
BITMAP
00000050
000004C0
01AEFF40
0B804F20
3E000D50
6B000D50
7B001F20
3E20A900
07ED9000
00000000
00960000
ENDCHAR
STARTCHAR uni1EE3
ENCODING 7907
SWIDTH 451 0
DWIDTH 4 0
BBX 5 7 0 -2
BITMAP
000B00
2DF800
96BE70
A6A300
4DA000
000000
0B2000
ENDCHAR
STARTCHAR uni1EE4
ENCODING 7908
SWIDTH 890 0
DWIDTH 7 0
BBX 9 9 0 -2
BITMAP
3DD1069000
B3F2099000
02F00C7000
05C01F4000
08907F2000
0A949F4810
06EB1BE700
0000000000
003B000000
ENDCHAR
STARTCHAR uni1EE5
ENCODING 7909
SWIDTH 462 0
DWIDTH 4 0
BBX 5 6 0 -2
BITMAP
396700
77B400
9AF380
6CAC20
000000
0B3000
ENDCHAR
STARTCHAR uni1EE6
ENCODING 7910
SWIDTH 890 0
DWIDTH 7 0
BBX 9 9 0 0
BITMAP
0004D50000
0000D40000
3DD1069000
B3F2099000
02F00C7000
05C01F4000
08907F2000
0A949F4810
06EB1BE700
ENDCHAR
STARTCHAR uni1EE7
ENCODING 7911
SWIDTH 462 0
DWIDTH 4 0
BBX 5 7 0 0
BITMAP
03D400
004700
00D200
396700
77B400
9AF380
6CAC20
ENDCHAR
STARTCHAR uni1EE8
ENCODING 7912
SWIDTH 890 0
DWIDTH 7 0
BBX 9 10 0 0
BITMAP
00001B4000
0000A60500
0000003C00
3DD106D300
B3F2098000
02F00C6000
05C01F4000
08907F2000
0A949F4810
06EB1BE700
ENDCHAR
STARTCHAR uni1EE9
ENCODING 7913
SWIDTH 512 0
DWIDTH 4 0
BBX 6 8 0 0
BITMAP
001500
006900
009100
000560
396C20
77B400
9AF291
6C9E60
ENDCHAR
STARTCHAR uni1EEA
ENCODING 7914
SWIDTH 890 0
DWIDTH 7 0
BBX 9 10 0 0
BITMAP
00B6000000
002A500500
0000003C00
3DD106D300
B3F2098000
02F00C6000
05C01F4000
08907F2000
0A949F4810
06EB1BE700
ENDCHAR
STARTCHAR uni1EEB
ENCODING 7915
SWIDTH 512 0
DWIDTH 4 0
BBX 6 8 0 0
BITMAP
050000
0D3000
038000
000560
396C20
77B400
9AF291
6C9E60
ENDCHAR
STARTCHAR uni1EEC
ENCODING 7916
SWIDTH 890 0
DWIDTH 7 0
BBX 9 9 0 0
BITMAP
0004D50500
0000D43C00
3DD106D300
B3F2098000
02F00C6000
05C01F4000
08907F2000
0A949F4810
06EB1BE700
ENDCHAR
STARTCHAR uni1EED
ENCODING 7917
SWIDTH 512 0
DWIDTH 4 0
BBX 6 7 0 0
BITMAP
03D400
004700
00D760
396C20
77B400
9AF291
6C9E60
ENDCHAR
STARTCHAR uni1EEE
ENCODING 7918
SWIDTH 890 0
DWIDTH 7 0
BBX 9 10 0 0
BITMAP
0005241000
003AAB0500
0000003C00
3DD106D300
B3F2098000
02F00C6000
05C01F4000
08907F2000
0A949F4810
06EB1BE700
ENDCHAR
STARTCHAR uni1EEF
ENCODING 7919
SWIDTH 512 0
DWIDTH 4 0
BBX 6 7 0 0
BITMAP
042400
0CCA00
043760
396C20
77B400
9AF391
6C9E60
ENDCHAR
STARTCHAR uni1EF0
ENCODING 7920
SWIDTH 890 0
DWIDTH 7 0
BBX 9 11 0 -2
BITMAP
0000000500
0000003C00
3DD106D300
B3F2098000
02F00C6000
05C01F4000
08907F2000
0A949F4810
06EB1BE700
0000000000
003B000000
ENDCHAR
STARTCHAR uni1EF1
ENCODING 7921
SWIDTH 512 0
DWIDTH 4 0
BBX 6 7 0 -2
BITMAP
000560
396C20
77B400
9AF291
6C9E60
000000
0B3000
ENDCHAR
STARTCHAR Ygrave
ENCODING 7922
SWIDTH 851 0
DWIDTH 7 0
BBX 8 13 0 -3
BITMAP
00970000
00196000
00000000
4DD10590
A1F20990
02F00C70
05C03F40
07B1AE20
02DC4FC8
0007ED30
00995A00
00E1B500
00AD8000
ENDCHAR
STARTCHAR ygrave
ENCODING 7923
SWIDTH 479 0
DWIDTH 4 0
BBX 5 12 0 -4
BITMAP
050000
0D3000
038000
000000
396700
77B500
9AF780
6CDA10
08D000
799000
B94000
CB0000
ENDCHAR
STARTCHAR uni1EF4
ENCODING 7924
SWIDTH 851 0
DWIDTH 7 0
BBX 8 10 0 -3
BITMAP
4DD10590
A1F20990
02F00C70
05C03F40
07B1AE20
02DC4FC8
0007ED30
00995A00
00E1B500
00AD8780
ENDCHAR
STARTCHAR uni1EF5
ENCODING 7925
SWIDTH 479 0
DWIDTH 4 0
BBX 5 8 0 -4
BITMAP
396700
77B500
9AF780
6CDA10
08D000
799000
B94000
CB7800
ENDCHAR
STARTCHAR uni1EF6
ENCODING 7926
SWIDTH 851 0
DWIDTH 7 0
BBX 8 12 0 -3
BITMAP
0002D700
0000C600
4DD10590
A1F20990
02F00C70
05C03F40
07B1AE20
02DC4FC8
0007ED30
00995A00
00E1B500
00AD8000
ENDCHAR
STARTCHAR uni1EF7
ENCODING 7927
SWIDTH 479 0
DWIDTH 4 0
BBX 5 11 0 -4
BITMAP
03D400
004700
00D200
396700
77B500
9AF780
6CDA10
08D000
799000
B94000
CB0000
ENDCHAR
STARTCHAR uni1EF8
ENCODING 7928
SWIDTH 851 0
DWIDTH 7 0
BBX 8 13 0 -3
BITMAP
00053320
002BAC10
00000000
4DD10590
A1F20990
02F00C70
05C03F40
07B1AE20
02DC4FC8
0007ED30
00995A00
00E1B500
00AD8000
ENDCHAR
STARTCHAR uni1EF9
ENCODING 7929
SWIDTH 479 0
DWIDTH 4 0
BBX 5 11 0 -4
BITMAP
052310
2AAB00
000000
396700
77B500
9AF780
6CDA10
08D000
799000
B94000
CB0000
ENDCHAR
STARTCHAR endash
ENCODING 8211
SWIDTH 484 0
DWIDTH 4 0
BBX 4 1 0 2
BITMAP
6EE6
ENDCHAR
STARTCHAR emdash
ENCODING 8212
SWIDTH 620 0
DWIDTH 5 0
BBX 5 1 0 2
BITMAP
6EEE70
ENDCHAR
STARTCHAR quoteleft
ENCODING 8216
SWIDTH 237 0
DWIDTH 2 0
BBX 3 3 0 5
BITMAP
0830
0E20
1D00
ENDCHAR
STARTCHAR quoteright
ENCODING 8217
SWIDTH 236 0
DWIDTH 2 0
BBX 3 3 0 5
BITMAP
0B40
0E20
1B00
ENDCHAR
STARTCHAR quotesinglbase
ENCODING 8218
SWIDTH 257 0
DWIDTH 2 0
BBX 2 3 0 -1
BITMAP
87
B6
B1
ENDCHAR
STARTCHAR quotedblleft
ENCODING 8220
SWIDTH 457 0
DWIDTH 4 0
BBX 4 3 0 5
BITMAP
083B
0E5D
1D5A
ENDCHAR
STARTCHAR quotedblright
ENCODING 8221
SWIDTH 456 0
DWIDTH 4 0
BBX 5 3 0 5
BITMAP
0B4D10
0E5E00
1B4700
ENDCHAR
STARTCHAR quotedblbase
ENCODING 8222
SWIDTH 477 0
DWIDTH 4 0
BBX 4 3 0 -1
BITMAP
87B4
B6E2
B1B0
ENDCHAR
STARTCHAR dagger
ENCODING 8224
SWIDTH 588 0
DWIDTH 5 0
BBX 4 6 1 2
BITMAP
0660
BEE7
0B20
0D10
0E00
1B00
ENDCHAR
STARTCHAR daggerdbl
ENCODING 8225
SWIDTH 588 0
DWIDTH 5 0
BBX 5 6 0 2
BITMAP
006600
0BEE70
00A200
00C100
2DFE30
00C000
ENDCHAR
STARTCHAR bullet
ENCODING 8226
SWIDTH 512 0
DWIDTH 4 0
BBX 4 3 0 1
BITMAP
09B1
2FF4
1DD1
ENDCHAR
STARTCHAR ellipsis
ENCODING 8230
SWIDTH 777 0
DWIDTH 6 0
BBX 6 2 0 0
BITMAP
776859
98897A
ENDCHAR
STARTCHAR perthousand
ENCODING 8240
SWIDTH 1277 0
DWIDTH 10 0
BBX 11 7 0 0
BITMAP
1B7037000000
77E1C4000000
86EDB0000000
2A6940000000
003B3B83B900
00B3A4D94D10
02A06C85C900
ENDCHAR
STARTCHAR guilsinglleft
ENCODING 8249
SWIDTH 350 0
DWIDTH 3 0
BBX 3 3 0 0
BITMAP
2B40
A800
1B30
ENDCHAR
STARTCHAR guilsinglright
ENCODING 8250
SWIDTH 350 0
DWIDTH 3 0
BBX 3 3 0 0
BITMAP
6A00
0B80
7A10
ENDCHAR
STARTCHAR fraction
ENCODING 8260
SWIDTH 200 0
DWIDTH 2 0
BBX 4 6 -1 1
BITMAP
0014
0097
02D0
0A50
4C00
9400
ENDCHAR
STARTCHAR uni2074
ENCODING 8308
SWIDTH 450 0
DWIDTH 4 0
BBX 4 4 0 3
BITMAP
0681
1C95
3DE8
00B1
ENDCHAR
STARTCHAR colonmonetary
ENCODING 8353
SWIDTH 517 0
DWIDTH 4 0
BBX 5 7 0 -1
BITMAP
000430
08EE30
5B9D00
8B9200
7C8400
5EE700
880000
ENDCHAR
STARTCHAR franc
ENCODING 8355
SWIDTH 750 0
DWIDTH 6 0
BBX 6 5 0 0
BITMAP
4EEEA0
3C0096
6EDAF8
877E69
856800
ENDCHAR
STARTCHAR lira
ENCODING 8356
SWIDTH 525 0
DWIDTH 4 0
BBX 5 5 0 0
BITMAP
06DB00
1E1910
9FD000
AFC000
9FED00
ENDCHAR
STARTCHAR uni20A6
ENCODING 8358
SWIDTH 672 0
DWIDTH 5 0
BBX 6 5 0 0
BITMAP
0C30C0
1FC2C0
9FFEF2
AFEFE2
580A60
ENDCHAR
STARTCHAR peseta
ENCODING 8359
SWIDTH 1085 0
DWIDTH 9 0
BBX 9 5 0 0
BITMAP
5DD4750000
4B6EFE5C00
69A5D16D10
9A30E3B970
94009D6E40
ENDCHAR
STARTCHAR uni20A9
ENCODING 8361
SWIDTH 775 0
DWIDTH 6 0
BBX 7 5 0 0
BITMAP
19090900
AFEFEF30
0DAC9400
0DACC000
0B5B6000
ENDCHAR
STARTCHAR dong
ENCODING 8363
SWIDTH 463 0
DWIDTH 4 0
BBX 5 8 0 -1
BITMAP
000100
002E00
3EEF30
0BE900
89A600
B5E300
7DD200
CEE600
ENDCHAR
STARTCHAR Euro
ENCODING 8364
SWIDTH 552 0
DWIDTH 4 0
BBX 5 5 0 0
BITMAP
04DC10
1E2940
AFC310
7E5310
0AEB00
ENDCHAR
STARTCHAR uni20AD
ENCODING 8365
SWIDTH 590 0
DWIDTH 5 0
BBX 5 5 0 0
BITMAP
0D0770
1D3C10
9EFB50
69A700
762DA0
ENDCHAR
STARTCHAR uni20AE
ENCODING 8366
SWIDTH 513 0
DWIDTH 4 0
BBX 5 5 0 0
BITMAP
5DED20
03C100
2BC300
1C7000
093000
ENDCHAR
STARTCHAR uni20B1
ENCODING 8369
SWIDTH 557 0
DWIDTH 4 0
BBX 5 6 0 0
BITMAP
012000
3FD900
AFEF60
BFEF50
4EC400
680000
ENDCHAR
STARTCHAR uni20B2
ENCODING 8370
SWIDTH 599 0
DWIDTH 5 0
BBX 5 7 0 -1
BITMAP
008000
08EC10
4B9A20
878100
898C70
2CED70
044420
ENDCHAR
STARTCHAR uni20B4
ENCODING 8372
SWIDTH 570 0
DWIDTH 5 0
BBX 5 5 0 0
BITMAP
1BDA00
6EEE40
9EEE40
4B0800
1CD800
ENDCHAR
STARTCHAR uni20B5
ENCODING 8373
SWIDTH 517 0
DWIDTH 4 0
BBX 4 7 0 -1
BITMAP
0080
07E9
4B9D
8781
8984
2CE7
0440
ENDCHAR
STARTCHAR uni20B8
ENCODING 8376
SWIDTH 522 0
DWIDTH 4 0
BBX 5 5 0 0
BITMAP
5EED20
7EED00
058000
075000
083000
ENDCHAR
STARTCHAR uni20B9
ENCODING 8377
SWIDTH 511 0
DWIDTH 4 0
BBX 5 5 0 0
BITMAP
6EED30
7DFD20
BE6000
08B000
01CC00
ENDCHAR
STARTCHAR uni20BA
ENCODING 8378
SWIDTH 452 0
DWIDTH 4 0
BBX 4 5 0 0
BITMAP
0D50
3E80
8E40
9924
4EA2
ENDCHAR
STARTCHAR uni20BC
ENCODING 8380
SWIDTH 673 0
DWIDTH 5 0
BBX 5 6 0 0
BITMAP
001700
02BC20
0DBAA0
5B73E0
A691F0
C291D0
ENDCHAR
STARTCHAR uni20BD
ENCODING 8381
SWIDTH 505 0
DWIDTH 4 0
BBX 4 5 0 0
BITMAP
3DD5
0E3D
2D5C
AFC3
CEA0
ENDCHAR
STARTCHAR uni2116
ENCODING 8470
SWIDTH 1198 0
DWIDTH 10 0
BBX 10 7 0 0
BITMAP
087AEA0BD3
0BE63F3A86
0DB04D1CC1
0F506B0000
2F10998ED1
4D00B60000
5A00B40000
ENDCHAR
STARTCHAR trademark
ENCODING 8482
SWIDTH 1150 0
DWIDTH 9 0
BBX 9 4 0 3
BITMAP
2EFBBB9BA0
0480E3E3B0
0752B2B390
0421414230
ENDCHAR
STARTCHAR partialdiff
ENCODING 8706
SWIDTH 451 0
DWIDTH 4 0
BBX 4 7 0 0
BITMAP
2710
07C0
00A6
1BD9
9678
A5A5
3CA0
ENDCHAR
STARTCHAR product
ENCODING 8719
SWIDTH 700 0
DWIDTH 6 0
BBX 6 7 0 0
BITMAP
09EEE6
0C30A5
0E10C3
1E00E1
3C01E0
5A03C0
660480
ENDCHAR
STARTCHAR summation
ENCODING 8721
SWIDTH 700 0
DWIDTH 6 0
BBX 6 7 0 0
BITMAP
0AEEE5
04D200
006C10
000C60
00A900
1B8000
6EEE90
ENDCHAR
STARTCHAR minus
ENCODING 8722
SWIDTH 700 0
DWIDTH 6 0
BBX 5 1 0 2
BITMAP
3EEED0
ENDCHAR
STARTCHAR uni2215
ENCODING 8725
SWIDTH 700 0
DWIDTH 6 0
BBX 6 8 0 0
BITMAP
000041
0001E1
000980
002E10
00A700
03D000
0B6000
1C0000
ENDCHAR
STARTCHAR uni2219
ENCODING 8729
SWIDTH 700 0
DWIDTH 6 0
BBX 2 2 2 1
BITMAP
B6
10
ENDCHAR
STARTCHAR radical
ENCODING 8730
SWIDTH 700 0
DWIDTH 6 0
BBX 6 7 0 0
BITMAP
00001B
000076
0000C1
6D2580
066B10
02D900
00A200
ENDCHAR
STARTCHAR infinity
ENCODING 8734
SWIDTH 700 0
DWIDTH 6 0
BBX 6 3 0 1
BITMAP
5EABD2
A5C896
5E8CD2
ENDCHAR
STARTCHAR integral
ENCODING 8747
SWIDTH 700 0
DWIDTH 6 0
BBX 6 10 0 -2
BITMAP
0009D3
003D00
005B00
007900
009700
00B500
00C300
00E100
02E000
6D6000
ENDCHAR
STARTCHAR approxequal
ENCODING 8776
SWIDTH 700 0
DWIDTH 6 0
BBX 6 4 0 0
BITMAP
0BC6C2
142CA0
1DA2B0
666D60
ENDCHAR
STARTCHAR notequal
ENCODING 8800
SWIDTH 700 0
DWIDTH 6 0
BBX 6 5 0 0
BITMAP
000A10
2EEFD1
00A400
5EFEB0
064000
ENDCHAR
STARTCHAR lessequal
ENCODING 8804
SWIDTH 700 0
DWIDTH 6 0
BBX 6 5 0 0
BITMAP
000372
19C950
19CA50
000350
5EEEB0
ENDCHAR
STARTCHAR greaterequal
ENCODING 8805
SWIDTH 700 0
DWIDTH 6 0
BBX 6 5 0 0
BITMAP
074000
059C91
17AB70
251000
5EEEB0
ENDCHAR
STARTCHAR lozenge
ENCODING 9674
SWIDTH 700 0
DWIDTH 6 0
BBX 4 8 1 0
BITMAP
0050
06F2
1C77
861C
D11C
8495
4BB0
0D30
ENDCHAR
STARTCHAR fi
ENCODING 64257
SWIDTH 633 0
DWIDTH 5 0
BBX 6 11 0 -3
BITMAP
00AB00
059C00
0A6AC2
0EC200
AFEEA0
4B5680
5AA878
69A5E6
5AA000
3B9000
0C5000
ENDCHAR
STARTCHAR fl
ENCODING 64258
SWIDTH 688 0
DWIDTH 6 0
BBX 7 11 0 -3
BITMAP
01C75E20
077AC840
0D5BB830
2D888B00
5D789900
7B0AE200
8BEE7230
9B54EC20
89700000
7A700000
2D300000
ENDCHAR
STARTCHAR .notdef
ENCODING -1
SWIDTH 265 0
DWIDTH 2 0
BBX 1 1 0 0
BITMAP
00
ENDCHAR
STARTCHAR Iacute_J.loclNLD
ENCODING -1
SWIDTH 776 0
DWIDTH 6 0
BBX 8 10 0 0
BITMAP
003D1097
01B40881
00000000
0A502C00
0D504D00
0F208B00
1F23EA00
0BFDA700
1322D200
1CED5000
ENDCHAR
STARTCHAR A.ss01
ENCODING -1
SWIDTH 780 0
DWIDTH 6 0
BBX 7 7 0 0
BITMAP
005BED60
06D42800
1E306B00
6C00A800
8A00E600
6C07F400
1BE9D200
ENDCHAR
STARTCHAR Aacute.ss01
ENCODING -1
SWIDTH 780 0
DWIDTH 6 0
BBX 7 10 0 0
BITMAP
000006B0
00005A20
00000000
005BED60
06D42800
1E306B00
6C00A800
8A00E600
6C07F400
1BE9D200
ENDCHAR
STARTCHAR Abreve.ss01
ENCODING -1
SWIDTH 780 0
DWIDTH 6 0
BBX 7 9 0 0
BITMAP
00052240
0005DC30
005BED60
06D42800
1E306B00
6C00A800
8A00E600
6C07F400
1BE9D200
ENDCHAR
STARTCHAR uni1EAE.ss01
ENCODING -1
SWIDTH 780 0
DWIDTH 6 0
BBX 7 10 0 0
BITMAP
00001C20
00073650
0005DC20
005BED60
06D42800
1E306B00
6C00A800
8A00E600
6C07F400
1BE9D200
ENDCHAR
STARTCHAR uni1EB6.ss01
ENCODING -1
SWIDTH 780 0
DWIDTH 6 0
BBX 7 11 0 -2
BITMAP
00052240
0005DC30
005BED60
06D42800
1E306B00
6C00A800
8A00E600
6C07F400
1BE9D200
00000000
00960000
ENDCHAR
STARTCHAR uni1EB0.ss01
ENCODING -1
SWIDTH 780 0
DWIDTH 6 0
BBX 7 10 0 0
BITMAP
0002C100
00075550
0004CB20
005BED60
06D42800
1E306B00
6C00A800
8A00E600
6C07F400
1BE9D200
ENDCHAR
STARTCHAR uni1EB2.ss01
ENCODING -1
SWIDTH 780 0
DWIDTH 6 0
BBX 7 10 0 0
BITMAP
0000A800
00038920
0006DC30
005BED60
06D42800
1E306B00
6C00A800
8A00E600
6C07F400
1BE9D200
ENDCHAR
STARTCHAR uni1EB4.ss01
ENCODING -1
SWIDTH 780 0
DWIDTH 6 0
BBX 7 11 0 0
BITMAP
00017150
00067B40
00062340
0005CB20
005BED60
06D42800
1E306B00
6C00A800
8A00E600
6C07F400
1BE9D200
ENDCHAR
STARTCHAR Acircumflex.ss01
ENCODING -1
SWIDTH 780 0
DWIDTH 6 0
BBX 7 11 0 0
BITMAP
00003400
0001DD00
00077A20
00000000
005BED60
06D42800
1E306B00
6C00A800
8A00E600
6C07F400
1BE9D200
ENDCHAR
STARTCHAR uni1EA4.ss01
ENCODING -1
SWIDTH 780 0
DWIDTH 6 0
BBX 8 11 0 0
BITMAP
000000A3
0000BB50
00068C10
00000000
005BED60
06D42800
1E306B00
6C00A800
8A00E600
6C07F400
1BE9D200
ENDCHAR
STARTCHAR uni1EAC.ss01
ENCODING -1
SWIDTH 780 0
DWIDTH 6 0
BBX 7 13 0 -2
BITMAP
00003400
0001DD00
00077A20
00000000
005BED60
06D42800
1E306B00
6C00A800
8A00E600
6C07F400
1BE9D200
00000000
00960000
ENDCHAR
STARTCHAR uni1EA6.ss01
ENCODING -1
SWIDTH 780 0
DWIDTH 6 0
BBX 7 11 0 0
BITMAP
003B0000
0005CA00
00068C10
00000000
005BED60
06D42800
1E306B00
6C00A800
8A00E600
6C07F400
1BE9D200
ENDCHAR
STARTCHAR uni1EA8.ss01
ENCODING -1
SWIDTH 780 0
DWIDTH 6 0
BBX 8 10 0 0
BITMAP
000002D3
000099C3
0004AD10
005EFF60
06D42800
1E306B00
6C00A800
8A00E600
6C07F400
1BE9D200
ENDCHAR
STARTCHAR uni1EAA.ss01
ENCODING -1
SWIDTH 780 0
DWIDTH 6 0
BBX 7 11 0 0
BITMAP
0003B960
00017800
00058C10
00000000
005BED60
06D42800
1E306B00
6C00A800
8A00E600
6C07F400
1BE9D200
ENDCHAR
STARTCHAR uni0200.ss01
ENCODING -1
SWIDTH 780 0
DWIDTH 6 0
BBX 7 10 0 0
BITMAP
000B6800
00066A00
00000000
005BED60
06D42800
1E306B00
6C00A800
8A00E600
6C07F400
1BE9D200
ENDCHAR
STARTCHAR Adieresis.ss01
ENCODING -1
SWIDTH 780 0
DWIDTH 6 0
BBX 7 9 0 0
BITMAP
00057A30
00000000
005BED60
06D42800
1E306B00
6C00A800
8A00E600
6C07F400
1BE9D200
ENDCHAR
STARTCHAR uni1EA0.ss01
ENCODING -1
SWIDTH 780 0
DWIDTH 6 0
BBX 7 9 0 -2
BITMAP
005BED60
06D42800
1E306B00
6C00A800
8A00E600
6C07F400
1BE9D200
00000000
00960000
ENDCHAR
STARTCHAR Agrave.ss01
ENCODING -1
SWIDTH 780 0
DWIDTH 6 0
BBX 7 10 0 0
BITMAP
004C1000
0006B000
00000000
005BED60
06D42800
1E306B00
6C00A800
8A00E600
6C07F400
1BE9D200
ENDCHAR
STARTCHAR uni1EA2.ss01
ENCODING -1
SWIDTH 780 0
DWIDTH 6 0
BBX 7 9 0 0
BITMAP
0000BC00
00007A00
005BED60
06D42800
1E306B00
6C00A800
8A00E600
6C07F400
1BE9D200
ENDCHAR
STARTCHAR uni0202.ss01
ENCODING -1
SWIDTH 780 0
DWIDTH 6 0
BBX 7 9 0 0
BITMAP
0003CC20
00093570
005BED60
06D42800
1E306B00
6C00A800
8A00E600
6C07F400
1BE9D200
ENDCHAR
STARTCHAR Amacron.ss01
ENCODING -1
SWIDTH 780 0
DWIDTH 6 0
BBX 7 8 0 0
BITMAP
0005ED00
005BED60
06D42800
1E306B00
6C00A800
8A00E600
6C07F400
1BE9D200
ENDCHAR
STARTCHAR Aogonek.ss01
ENCODING -1
SWIDTH 780 0
DWIDTH 6 0
BBX 7 9 0 -2
BITMAP
005BED60
06D42800
1E306B00
6C00A800
8A00E600
6C07F400
1BE9E200
00076000
0005E600
ENDCHAR
STARTCHAR Aring.ss01
ENCODING -1
SWIDTH 780 0
DWIDTH 6 0
BBX 7 10 0 0
BITMAP
0000BA00
0001AB00
0000C900
005BED60
06D42800
1E306B00
6C00A800
8A00E600
6C07F400
1BE9D200
ENDCHAR
STARTCHAR Aringacute.ss01
ENCODING -1
SWIDTH 780 0
DWIDTH 6 0
BBX 8 11 0 0
BITMAP
0000004A
0000CB72
0001CA00
00000000
005BED60
06D42800
1E306B00
6C00A800
8A00E600
6C07F400
1BE9D200
ENDCHAR
STARTCHAR Atilde.ss01
ENCODING -1
SWIDTH 780 0
DWIDTH 6 0
BBX 7 10 0 0
BITMAP
00025140
000A8C50
00000000
005BED60
06D42800
1E306B00
6C00A800
8A00E600
6C07F400
1BE9D200
ENDCHAR
STARTCHAR AE.ss01
ENCODING -1
SWIDTH 1057 0
DWIDTH 8 0
BBX 9 7 0 0
BITMAP
006CAAEE70
07D42F0000
2E205C0000
6B009EED00
8A00E70000
6C07EA0110
0AEA2BED40
ENDCHAR
STARTCHAR AEacute.ss01
ENCODING -1
SWIDTH 1057 0
DWIDTH 8 0
BBX 9 10 0 0
BITMAP
0000007A00
0000069100
0000000000
006CAAEE70
07D42F0000
2E205C0000
6B009EED00
8A00E70000
6C07EA0110
0AEA2BED40
ENDCHAR
STARTCHAR B.ss01
ENCODING -1
SWIDTH 826 0
DWIDTH 7 0
BBX 7 7 0 0
BITMAP
06DED910
04301D60
0A704E40
0D3DF500
1F106D00
3D019B00
3EEEA200
ENDCHAR
STARTCHAR C.ss01
ENCODING -1
SWIDTH 704 0
DWIDTH 6 0
BBX 6 7 0 0
BITMAP
019ED3
0B8088
3E0055
6B0000
7B0000
3F3057
06DD91
ENDCHAR
STARTCHAR Cacute.ss01
ENCODING -1
SWIDTH 704 0
DWIDTH 6 0
BBX 6 10 0 0
BITMAP
00004C
0003B3
000000
019ED3
0B8088
3E0055
6B0000
7B0000
3F3057
06DD91
ENDCHAR
STARTCHAR Ccaron.ss01
ENCODING -1
SWIDTH 704 0
DWIDTH 6 0
BBX 6 10 0 0
BITMAP
002A75
000AA0
000000
019ED3
0B8088
3E0055
6B0000
7B0000
3F3057
06DD91
ENDCHAR
STARTCHAR Ccedilla.ss01
ENCODING -1
SWIDTH 704 0
DWIDTH 6 0
BBX 6 9 0 -2
BITMAP
01AED3
0B8088
4E0055
7B0000
6B0000
2E3067
03EE70
000D00
04D800
ENDCHAR
STARTCHAR Ccircumflex.ss01
ENCODING -1
SWIDTH 704 0
DWIDTH 6 0
BBX 6 11 0 0
BITMAP
000340
000DD1
005893
000000
019ED3
0B8088
3E0055
6B0000
7B0000
3F3057
06DD91
ENDCHAR
STARTCHAR Cdotaccent.ss01
ENCODING -1
SWIDTH 704 0
DWIDTH 6 0
BBX 6 9 0 0
BITMAP
000770
000000
019ED3
0B8088
3E0055
6B0000
7B0000
3F3057
06DD91
ENDCHAR
STARTCHAR D.ss01
ENCODING -1
SWIDTH 810 0
DWIDTH 6 0
BBX 7 7 0 0
BITMAP
07DEC300
04307E10
0A700E40
0D300E40
1F102F10
4D03C800
4EEC6000
ENDCHAR
STARTCHAR uni01C4.ss01
ENCODING -1
SWIDTH 1455 0
DWIDTH 12 0
BBX 12 10 0 0
BITMAP
0000000047A3
000000000B80
000000000000
07DEC30BDEEA
04307E1001E6
0A700E400BB0
0D300E407E10
1F102F13F400
4D03C81E8000
4EEC608FEDD4
ENDCHAR
STARTCHAR Eth.ss01
ENCODING -1
SWIDTH 821 0
DWIDTH 7 0
BBX 7 7 0 0
BITMAP
01DEC400
05C05E20
09800C60
AFEC0C50
0F201F20
2E02B900
3EED7000
ENDCHAR
STARTCHAR Dcaron.ss01
ENCODING -1
SWIDTH 810 0
DWIDTH 6 0
BBX 7 10 0 0
BITMAP
0056A200
001C7000
00000000
07DEC300
04307E10
0A700E40
0D300E40
1F102F10
4D03C800
4EEC6000
ENDCHAR
STARTCHAR Dcroat.ss01
ENCODING -1
SWIDTH 821 0
DWIDTH 7 0
BBX 7 7 0 0
BITMAP
01DEC400
05C05E20
09800C60
AFEC0C50
0F201F20
2E02B900
3EED7000
ENDCHAR
STARTCHAR E.ss01
ENCODING -1
SWIDTH 720 0
DWIDTH 6 0
BBX 6 7 0 0
BITMAP
03CED3
0E507A
0E5056
08FA00
6C1000
9B0057
2BED91
ENDCHAR
STARTCHAR Eacute.ss01
ENCODING -1
SWIDTH 720 0
DWIDTH 6 0
BBX 6 10 0 0
BITMAP
00007A
000692
000000
03CED3
0E507A
0E5056
08FA00
6C1000
9B0057
2BED91
ENDCHAR
STARTCHAR Ebreve.ss01
ENCODING -1
SWIDTH 720 0
DWIDTH 6 0
BBX 6 9 0 0
BITMAP
006133
006DC2
03CED3
0E507A
0E5056
08FA00
6C1000
9B0057
2BED91
ENDCHAR
STARTCHAR Ecaron.ss01
ENCODING -1
SWIDTH 720 0
DWIDTH 6 0
BBX 6 10 0 0
BITMAP
0057A2
000C70
000000
03CED3
0E507A
0E5056
08FA00
6C1000
9B0057
2BED91
ENDCHAR
STARTCHAR Ecircumflex.ss01
ENCODING -1
SWIDTH 720 0
DWIDTH 6 0
BBX 6 11 0 0
BITMAP
000430
002DC0
0085B1
000000
03CED3
0E507A
0E5056
08FA00
6C1000
9B0057
2BED91
ENDCHAR
STARTCHAR uni1EBE.ss01
ENCODING -1
SWIDTH 720 0
DWIDTH 6 0
BBX 7 11 0 0
BITMAP
00000B20
000CB400
0078C000
00000000
03CED300
0E507A00
0E505600
08FA0000
6C100000
9B005700
2BED9100
ENDCHAR
STARTCHAR uni1EC6.ss01
ENCODING -1
SWIDTH 720 0
DWIDTH 6 0
BBX 6 13 0 -2
BITMAP
000430
002DC0
0085B1
000000
03CED3
0E507A
0E5056
08FA00
6C1000
9B0057
2BED91
000000
00B300
ENDCHAR
STARTCHAR uni1EC0.ss01
ENCODING -1
SWIDTH 720 0
DWIDTH 6 0
BBX 6 11 0 0
BITMAP
04A000
006C90
0078C0
000000
03CED3
0E507A
0E5056
08FA00
6C1000
9B0057
2BED91
ENDCHAR
STARTCHAR uni1EC2.ss01
ENCODING -1
SWIDTH 720 0
DWIDTH 6 0
BBX 7 10 0 0
BITMAP
00003D20
000A9D20
0069D000
03FFF300
0E507A00
0E505600
08FA0000
6C100000
9B005700
2BED9100
ENDCHAR
STARTCHAR uni1EC4.ss01
ENCODING -1
SWIDTH 720 0
DWIDTH 6 0
BBX 6 11 0 0
BITMAP
004B95
001770
0067C0
000000
03CED3
0E507A
0E5056
08FA00
6C1000
9B0057
2BED91
ENDCHAR
STARTCHAR uni0204.ss01
ENCODING -1
SWIDTH 720 0
DWIDTH 6 0
BBX 6 10 0 0
BITMAP
00C670
007590
000000
03CED3
0E507A
0E5056
08FA00
6C1000
9B0057
2BED91
ENDCHAR
STARTCHAR Edieresis.ss01
ENCODING -1
SWIDTH 720 0
DWIDTH 6 0
BBX 6 9 0 0
BITMAP
0066A2
000000
03CED3
0E507A
0E5056
08FA00
6C1000
9B0057
2BED91
ENDCHAR
STARTCHAR Edotaccent.ss01
ENCODING -1
SWIDTH 720 0
DWIDTH 6 0
BBX 6 9 0 0
BITMAP
000A50
000000
03CED3
0E507A
0E5056
08FA00
6C1000
9B0057
2BED91
ENDCHAR
STARTCHAR uni1EB8.ss01
ENCODING -1
SWIDTH 720 0
DWIDTH 6 0
BBX 6 9 0 -2
BITMAP
03CED3
0E507A
0E5056
08FA00
6C1000
9B0057
2BED91
000000
00B300
ENDCHAR
STARTCHAR Egrave.ss01
ENCODING -1
SWIDTH 720 0
DWIDTH 6 0
BBX 6 10 0 0
BITMAP
05B100
007A00
000000
03CED3
0E507A
0E5056
08FA00
6C1000
9B0057
2BED91
ENDCHAR
STARTCHAR uni1EBA.ss01
ENCODING -1
SWIDTH 720 0
DWIDTH 6 0
BBX 6 9 0 0
BITMAP
000CB0
0008A0
03CED3
0E507A
0E5056
08FA00
6C1000
9B0057
2BED91
ENDCHAR
STARTCHAR uni0206.ss01
ENCODING -1
SWIDTH 720 0
DWIDTH 6 0
BBX 6 9 0 0
BITMAP
004DC2
009266
03CED3
0E507A
0E5056
08FA00
6C1000
9B0057
2BED91
ENDCHAR
STARTCHAR Emacron.ss01
ENCODING -1
SWIDTH 720 0
DWIDTH 6 0
BBX 6 8 0 0
BITMAP
006ED0
03CED3
0E507A
0E5056
08FA00
6C1000
9B0057
2BED91
ENDCHAR
STARTCHAR Eogonek.ss01
ENCODING -1
SWIDTH 720 0
DWIDTH 6 0
BBX 6 9 0 -2
BITMAP
03CED3
0E507A
0E5056
08FA00
6C1000
9B0057
2BEE81
006700
004D70
ENDCHAR
STARTCHAR uni1EBC.ss01
ENCODING -1
SWIDTH 720 0
DWIDTH 6 0
BBX 6 10 0 0
BITMAP
003514
00B8C4
000000
03CED3
0E507A
0E5056
08FA00
6C1000
9B0057
2BED91
ENDCHAR
STARTCHAR F.ss01
ENCODING -1
SWIDTH 671 0
DWIDTH 5 0
BBX 6 8 0 0
BITMAP
000011
2DFEDA
03E000
06B000
5FEEA0
0B6000
0D4000
0D2000
ENDCHAR
STARTCHAR G.ss01
ENCODING -1
SWIDTH 811 0
DWIDTH 6 0
BBX 6 9 0 -2
BITMAP
019DD5
0B905C
3E0038
6B0000
7C02DE
2F501F
05DEDD
00005A
000067
ENDCHAR
STARTCHAR Gbreve.ss01
ENCODING -1
SWIDTH 811 0
DWIDTH 6 0
BBX 6 11 0 -2
BITMAP
003315
003DD5
019DD5
0B905C
3E0038
6B0000
7C02DE
2F501F
05DEDD
00005A
000067
ENDCHAR
STARTCHAR Gcaron.ss01
ENCODING -1
SWIDTH 811 0
DWIDTH 6 0
BBX 6 12 0 -2
BITMAP
000B67
0008B0
000000
019DD5
0B905C
3E0038
6B0000
7C02DE
2F501F
05DEDD
00005A
000067
ENDCHAR
STARTCHAR Gcircumflex.ss01
ENCODING -1
SWIDTH 811 0
DWIDTH 6 0
BBX 6 13 0 -2
BITMAP
000250
000CE2
003A75
000000
019DD5
0B905C
3E0038
6B0000
7C02DE
2F501F
05DEDD
00005A
000067
ENDCHAR
STARTCHAR uni0122.ss01
ENCODING -1
SWIDTH 811 0
DWIDTH 6 0
BBX 6 9 0 -2
BITMAP
019DD5
0B905C
3E0038
6B0000
7C02DE
2F501F
05DEDD
00375A
004667
ENDCHAR
STARTCHAR Gdotaccent.ss01
ENCODING -1
SWIDTH 811 0
DWIDTH 6 0
BBX 6 11 0 -2
BITMAP
000690
000000
019DD5
0B905C
3E0038
6B0000
7C02DE
2F501F
05DEDD
00005A
000067
ENDCHAR
STARTCHAR H.ss01
ENCODING -1
SWIDTH 846 0
DWIDTH 7 0
BBX 7 7 0 0
BITMAP
05A00A50
08900D40
0A700F20
6FEEEF80
0F205C00
2F007A00
3C008700
ENDCHAR
STARTCHAR Hbar.ss01
ENCODING -1
SWIDTH 856 0
DWIDTH 7 0
BBX 7 7 0 0
BITMAP
05A00A50
2EEDDFC0
0A700F20
6FEEEF90
0E205C00
2F007A00
2C007700
ENDCHAR
STARTCHAR Hcircumflex.ss01
ENCODING -1
SWIDTH 846 0
DWIDTH 7 0
BBX 7 11 0 0
BITMAP
00016000
000BE300
003B6600
00000000
05A00A50
08900D40
0A700F20
6FEEEF80
0F205C00
2F007A00
3C008700
ENDCHAR
STARTCHAR I.ss01
ENCODING -1
SWIDTH 357 0
DWIDTH 3 0
BBX 3 7 0 0
BITMAP
0780
0A70
0C50
0E20
2F00
4D00
5A00
ENDCHAR
STARTCHAR Iacute.ss01
ENCODING -1
SWIDTH 357 0
DWIDTH 3 0
BBX 5 10 0 0
BITMAP
002D20
01B500
000000
078000
0A7000
0C5000
0E2000
2F0000
4D0000
5A0000
ENDCHAR
STARTCHAR Iacute_J.loclNLD.ss01
ENCODING -1
SWIDTH 776 0
DWIDTH 6 0
BBX 8 10 0 0
BITMAP
003D1097
01B40881
00000000
0A502C00
0D504D00
0F208B00
1F23EA00
0BFDA700
1322D200
1CED5000
ENDCHAR
STARTCHAR Ibreve.ss01
ENCODING -1
SWIDTH 357 0
DWIDTH 3 0
BBX 4 9 0 0
BITMAP
2416
2CD6
0780
0A70
0C50
0E20
2F00
4D00
5A00
ENDCHAR
STARTCHAR Icircumflex.ss01
ENCODING -1
SWIDTH 357 0
DWIDTH 3 0
BBX 4 11 0 0
BITMAP
0160
0AE4
2C57
0000
0780
0A70
0C50
0E20
2F00
4D00
5A00
ENDCHAR
STARTCHAR uni0208.ss01
ENCODING -1
SWIDTH 357 0
DWIDTH 3 0
BBX 4 10 0 0
BITMAP
66C0
1992
0000
0780
0A70
0C50
0E20
2F00
4D00
5A00
ENDCHAR
STARTCHAR Idieresis.ss01
ENCODING -1
SWIDTH 357 0
DWIDTH 3 0
BBX 4 9 0 0
BITMAP
1B57
0000
0780
0A70
0C50
0E20
2F00
4D00
5A00
ENDCHAR
STARTCHAR Idotaccent.ss01
ENCODING -1
SWIDTH 357 0
DWIDTH 3 0
BBX 3 9 0 0
BITMAP
04A0
0000
0780
0A70
0C50
0E20
2F00
4D00
5A00
ENDCHAR
STARTCHAR uni1ECA.ss01
ENCODING -1
SWIDTH 357 0
DWIDTH 3 0
BBX 3 9 0 -2
BITMAP
0780
0A70
0C50
0E20
2F00
4D00
5A00
0000
7700
ENDCHAR
STARTCHAR Igrave.ss01
ENCODING -1
SWIDTH 357 0
DWIDTH 3 0
BBX 3 10 0 0
BITMAP
D400
3B30
0000
0780
0A70
0C50
0E20
2F00
4D00
5A00
ENDCHAR
STARTCHAR uni1EC8.ss01
ENCODING -1
SWIDTH 357 0
DWIDTH 3 0
BBX 4 9 0 0
BITMAP
06D3
02D2
0780
0A70
0C50
0E20
2F00
4D00
5A00
ENDCHAR
STARTCHAR uni020A.ss01
ENCODING -1
SWIDTH 357 0
DWIDTH 3 0
BBX 4 9 0 0
BITMAP
1AD6
471B
0780
0A70
0C50
0E20
2F00
4D00
5A00
ENDCHAR
STARTCHAR Imacron.ss01
ENCODING -1
SWIDTH 357 0
DWIDTH 3 0
BBX 4 8 0 0
BITMAP
1DE5
0780
0A70
0C50
0E20
2F00
4D00
5A00
ENDCHAR
STARTCHAR Iogonek.ss01
ENCODING -1
SWIDTH 357 0
DWIDTH 3 0
BBX 3 9 0 -2
BITMAP
0780
0A70
0C50
0E20
2F00
4D00
5A00
B200
8D30
ENDCHAR
STARTCHAR Itilde.ss01
ENCODING -1
SWIDTH 357 0
DWIDTH 3 0
BBX 4 10 0 0
BITMAP
0615
69BA
0000
0780
0A70
0C50
0E20
2F00
4D00
5A00
ENDCHAR
STARTCHAR J.ss01
ENCODING -1
SWIDTH 716 0
DWIDTH 6 0
BBX 6 7 0 0
BITMAP
08DDD8
4B00D4
3800F2
0002F0
0004C0
580970
1BEA10
ENDCHAR
STARTCHAR Jcircumflex.ss01
ENCODING -1
SWIDTH 716 0
DWIDTH 6 0
BBX 6 11 0 0
BITMAP
000430
003EB0
0094C0
000000
08DDD8
4B00D4
3800F2
0002F0
0004C0
580970
1BEA10
ENDCHAR
STARTCHAR K.ss01
ENCODING -1
SWIDTH 779 0
DWIDTH 6 0
BBX 7 7 0 0
BITMAP
06901D10
09808A00
0C65D100
5FFC1000
1F2E4000
3E08B000
4B01CD20
ENDCHAR
STARTCHAR uni0136.ss01
ENCODING -1
SWIDTH 779 0
DWIDTH 6 0
BBX 7 9 0 -2
BITMAP
06901D10
09808A00
0C65D100
5FFC1000
1F2E4000
3E08B000
4B01CD20
00730000
00910000
ENDCHAR
STARTCHAR L.ss01
ENCODING -1
SWIDTH 625 0
DWIDTH 5 0
BBX 5 7 0 0
BITMAP
078000
0A7000
0D4000
0F2000
2F0000
4D1100
5FFFC0
ENDCHAR
STARTCHAR uni01C7.ss01
ENCODING -1
SWIDTH 1291 0
DWIDTH 10 0
BBX 11 7 0 0
BITMAP
078002BDDD30
0A700B504D00
0D4008306B00
0F2000008900
2F000000A600
4D110A31E100
5FFFC4DE6000
ENDCHAR
STARTCHAR Lacute.ss01
ENCODING -1
SWIDTH 625 0
DWIDTH 5 0
BBX 5 10 0 0
BITMAP
002D20
01B400
000000
078000
0A7000
0D4000
0F2000
2F0000
4D1100
5FFFC0
ENDCHAR
STARTCHAR Lcaron.ss01
ENCODING -1
SWIDTH 625 0
DWIDTH 5 0
BBX 5 7 0 0
BITMAP
078190
0A7280
0D4000
0F2000
2F0000
4D1100
5FFFC0
ENDCHAR
STARTCHAR uni013B.ss01
ENCODING -1
SWIDTH 625 0
DWIDTH 5 0
BBX 5 9 0 -2
BITMAP
078000
0A7000
0D4000
0F2000
2F0000
4D1100
5FFFC0
009100
00B000
ENDCHAR
STARTCHAR Ldot.ss01
ENCODING -1
SWIDTH 625 0
DWIDTH 5 0
BBX 5 7 0 0
BITMAP
078000
0A7000
0D4000
0F2860
2F0000
4D1100
5FFFC0
ENDCHAR
STARTCHAR uni01C8.ss01
ENCODING -1
SWIDTH 854 0
DWIDTH 7 0
BBX 7 11 0 -4
BITMAP
07800000
0A7003B0
0D400000
0F200490
2F000780
4D110860
5FFFCA40
00005F10
0003AD00
000A6800
0009D200
ENDCHAR
STARTCHAR Lslash.ss01
ENCODING -1
SWIDTH 625 0
DWIDTH 5 0
BBX 5 7 0 0
BITMAP
078000
0A7700
0DE700
9F3000
3F0000
4D1100
5FFFC0
ENDCHAR
STARTCHAR M.ss01
ENCODING -1
SWIDTH 1139 0
DWIDTH 9 0
BBX 9 7 0 0
BITMAP
087AE39E70
0BC38C67B0
0DA09D0890
0F50B80A70
2F10E40D40
4D01F20F20
5A02D01E00
ENDCHAR
STARTCHAR N.ss01
ENCODING -1
SWIDTH 799 0
DWIDTH 6 0
BBX 6 7 0 0
BITMAP
0879EA
0BC63F
0DB04D
0F506B
2F1099
4D00B6
5A00B4
ENDCHAR
STARTCHAR uni01CA.ss01
ENCODING -1
SWIDTH 1515 0
DWIDTH 12 0
BBX 13 7 0 0
BITMAP
0879EA04CDDC10
0BC63F0E207A00
0DB04D0A109800
0F506B0000B600
2F10990000D300
4D00B60C13D000
5A00B407ED4000
ENDCHAR
STARTCHAR Nacute.ss01
ENCODING -1
SWIDTH 799 0
DWIDTH 6 0
BBX 6 10 0 0
BITMAP
00005C
0003B3
000000
0879EA
0BC63F
0DB04D
0F506B
2F1099
4D00B6
5A00B4
ENDCHAR
STARTCHAR Ncaron.ss01
ENCODING -1
SWIDTH 799 0
DWIDTH 6 0
BBX 6 10 0 0
BITMAP
002985
000A90
000000
0879EA
0BC63F
0DB04D
0F506B
2F1099
4D00B6
5A00B4
ENDCHAR
STARTCHAR uni0145.ss01
ENCODING -1
SWIDTH 799 0
DWIDTH 6 0
BBX 6 9 0 -2
BITMAP
0879EA
0BC63F
0DB04D
0F506B
2F1099
4D00B6
5A00B4
007300
009100
ENDCHAR
STARTCHAR Eng.ss01
ENCODING -1
SWIDTH 792 0
DWIDTH 6 0
BBX 6 10 0 -3
BITMAP
0879E9
0BC64E
0DB05C
0F508A
2F10B6
4E00E3
5A02E0
0006A0
281C40
09D800
ENDCHAR
STARTCHAR uni01CB.ss01
ENCODING -1
SWIDTH 1008 0
DWIDTH 8 0
BBX 9 11 0 -4
BITMAP
0879EA0000
0BC63F1C20
0DB04D0000
0F506B1C00
2F10993C00
4D00B65A00
5A00B46700
000002D500
00001AC200
000076C000
00006E4000
ENDCHAR
STARTCHAR Ntilde.ss01
ENCODING -1
SWIDTH 799 0
DWIDTH 6 0
BBX 6 10 0 0
BITMAP
002605
0098C6
000000
0879EA
0BC63F
0DB04D
0F506B
2F1099
4D00B6
5A00B4
ENDCHAR
STARTCHAR OE.ss01
ENCODING -1
SWIDTH 1166 0
DWIDTH 9 0
BBX 10 7 0 0
BITMAP
01AED5CEE5
0B804FD000
3E000DA000
6B000DEEB0
7B001F5000
3E20AF8010
07EE83CED3
ENDCHAR
STARTCHAR P.ss01
ENCODING -1
SWIDTH 662 0
DWIDTH 5 0
BBX 6 7 0 0
BITMAP
1BED70
19A2E3
0980D4
0B66D1
6FC920
1F1000
2D0000
ENDCHAR
STARTCHAR Thorn.ss01
ENCODING -1
SWIDTH 658 0
DWIDTH 5 0
BBX 6 7 0 0
BITMAP
05A000
2CFD70
1B73F2
0D45E1
7FEB30
2F0000
2C0000
ENDCHAR
STARTCHAR Q.ss01
ENCODING -1
SWIDTH 816 0
DWIDTH 7 0
BBX 7 10 0 -3
BITMAP
019ED500
0B804F20
3E000D50
6B000D50
7B001F20
4E209B00
09FEB100
002D6000
0005E100
00004000
ENDCHAR
STARTCHAR R.ss01
ENCODING -1
SWIDTH 744 0
DWIDTH 6 0
BBX 6 7 0 0
BITMAP
2BEE90
18A1E3
0A75E1
3FFB20
0F5E10
2F0B80
2C03DB
ENDCHAR
STARTCHAR Racute.ss01
ENCODING -1
SWIDTH 744 0
DWIDTH 6 0
BBX 6 10 0 0
BITMAP
0001A6
000970
000000
2BEE90
18A1E3
0A75E1
3FFB20
0F5E10
2F0B80
2C03DB
ENDCHAR
STARTCHAR Rcaron.ss01
ENCODING -1
SWIDTH 744 0
DWIDTH 6 0
BBX 6 10 0 0
BITMAP
0094B0
003D30
000000
2BEE90
18A1E3
0A75E1
3FFB20
0F5E10
2F0B80
2C03DB
ENDCHAR
STARTCHAR uni0156.ss01
ENCODING -1
SWIDTH 744 0
DWIDTH 6 0
BBX 6 9 0 -2
BITMAP
2BEE90
18A1E3
0A75E1
3FFB20
0F5E10
2F0B80
2C03DB
008200
00A100
ENDCHAR
STARTCHAR uni0210.ss01
ENCODING -1
SWIDTH 744 0
DWIDTH 6 0
BBX 6 10 0 0
BITMAP
02AA20
00A560
000000
2BEE90
18A1E3
0A75E1
3FFB20
0F5E10
2F0B80
2C03DB
ENDCHAR
STARTCHAR uni0212.ss01
ENCODING -1
SWIDTH 744 0
DWIDTH 6 0
BBX 6 9 0 0
BITMAP
007D90
01A1A2
2BEE90
18A1E3
0A75E1
3FFB20
0F5E10
2F0B80
2C03DB
ENDCHAR
STARTCHAR T.ss01
ENCODING -1
SWIDTH 631 0
DWIDTH 5 0
BBX 6 7 0 0
BITMAP
4DEFEA
008900
00A700
00D400
00F200
02F000
03C000
ENDCHAR
STARTCHAR Tbar.ss01
ENCODING -1
SWIDTH 631 0
DWIDTH 5 0
BBX 6 7 0 0
BITMAP
4DEFEA
008900
00B700
1DFE70
00F200
02F000
03C000
ENDCHAR
STARTCHAR Tcaron.ss01
ENCODING -1
SWIDTH 631 0
DWIDTH 5 0
BBX 6 10 0 0
BITMAP
00A3A0
004D20
000000
4DEFEA
008900
00A700
00D400
00F200
02F000
03C000
ENDCHAR
STARTCHAR uni0162.ss01
ENCODING -1
SWIDTH 631 0
DWIDTH 5 0
BBX 6 9 0 -2
BITMAP
4DEFEA
008900
00A700
00C400
00E200
02F000
03E000
08E100
1DC100
ENDCHAR
STARTCHAR uni021A.ss01
ENCODING -1
SWIDTH 631 0
DWIDTH 5 0
BBX 6 9 0 -2
BITMAP
4DEFEA
008900
00A700
00D400
00F200
02F000
03C000
027000
047000
ENDCHAR
STARTCHAR U.ss01
ENCODING -1
SWIDTH 800 0
DWIDTH 6 0
BBX 7 7 0 0
BITMAP
07800D10
0A702F10
0C505E00
0E209C00
2F01EA00
3E2BC700
1DE6A400
ENDCHAR
STARTCHAR Uacute.ss01
ENCODING -1
SWIDTH 800 0
DWIDTH 6 0
BBX 7 10 0 0
BITMAP
00004C00
0003B300
00000000
07800D10
0A702F10
0C505E00
0E209C00
2F01EA00
3E2BC700
1DE6A400
ENDCHAR
STARTCHAR Ubreve.ss01
ENCODING -1
SWIDTH 800 0
DWIDTH 6 0
BBX 7 9 0 0
BITMAP
00422500
004DC400
07800D10
0A702F10
0C505E00
0E209C00
2F01EA00
3E2BC700
1DE6A400
ENDCHAR
STARTCHAR Ucircumflex.ss01
ENCODING -1
SWIDTH 800 0
DWIDTH 6 0
BBX 7 11 0 0
BITMAP
00034000
000DD100
00589300
00000000
07800D10
0A702F10
0C505E00
0E209C00
2F01EA00
3E2BC700
1DE6A400
ENDCHAR
STARTCHAR uni0214.ss01
ENCODING -1
SWIDTH 800 0
DWIDTH 6 0
BBX 7 10 0 0
BITMAP
00969000
0047A000
00000000
07800D10
0A702F10
0C505E00
0E209C00
2F01EA00
3E2BC700
1DE6A400
ENDCHAR
STARTCHAR Udieresis.ss01
ENCODING -1
SWIDTH 800 0
DWIDTH 6 0
BBX 7 9 0 0
BITMAP
00488400
00000000
07800D10
0A702F10
0C505E00
0E209C00
2F01EA00
3E2BC700
1DE6A400
ENDCHAR
STARTCHAR uni1EE4.ss01
ENCODING -1
SWIDTH 800 0
DWIDTH 6 0
BBX 7 9 0 -2
BITMAP
07800D10
0A702F10
0C505E00
0E209C00
2F01EA00
3E2BC700
1DE6A400
00000000
00860000
ENDCHAR
STARTCHAR Ugrave.ss01
ENCODING -1
SWIDTH 800 0
DWIDTH 6 0
BBX 7 10 0 0
BITMAP
03C20000
005B0000
00000000
07800D10
0A702F10
0C505E00
0E209C00
2F01EA00
3E2BC700
1DE6A400
ENDCHAR
STARTCHAR uni1EE6.ss01
ENCODING -1
SWIDTH 800 0
DWIDTH 6 0
BBX 7 9 0 0
BITMAP
0009D100
0006C000
07800D10
0A702F10
0C505E00
0E209C00
2F01EA00
3E2BC700
1DE6A400
ENDCHAR
STARTCHAR Uhorn.ss01
ENCODING -1
SWIDTH 800 0
DWIDTH 6 0
BBX 8 9 0 0
BITMAP
00000032
000000B4
07800D80
0A702F00
0C505D00
0E209B00
2F01E900
3E2BC700
1DE6A400
ENDCHAR
STARTCHAR uni1EE8.ss01
ENCODING -1
SWIDTH 800 0
DWIDTH 6 0
BBX 8 10 0 0
BITMAP
00004C00
0003B332
000000B4
07800D80
0A702F00
0C505D00
0E209B00
2F01E900
3E2BC700
1DE6A400
ENDCHAR
STARTCHAR uni1EF0.ss01
ENCODING -1
SWIDTH 800 0
DWIDTH 6 0
BBX 8 11 0 -2
BITMAP
00000032
000000B4
07800D80
0A702F00
0C505D00
0E209B00
2F01E900
3E2BC700
1DE6A400
00000000
00860000
ENDCHAR
STARTCHAR uni1EEA.ss01
ENCODING -1
SWIDTH 800 0
DWIDTH 6 0
BBX 8 10 0 0
BITMAP
03C20000
005B0032
000000B4
07800D80
0A702F00
0C505D00
0E209B00
2F01E900
3E2BC700
1DE6A400
ENDCHAR
STARTCHAR uni1EEC.ss01
ENCODING -1
SWIDTH 800 0
DWIDTH 6 0
BBX 8 9 0 0
BITMAP
0009D132
0006C1B4
07800D80
0A702F00
0C505D00
0E209B00
2F01E900
3E2BC700
1DE6A400
ENDCHAR
STARTCHAR uni1EEE.ss01
ENCODING -1
SWIDTH 800 0
DWIDTH 6 0
BBX 8 10 0 0
BITMAP
00160500
0098C732
000000B4
07800D80
0A702F00
0C505D00
0E209B00
2F01E900
3E2BC700
1DE6A400
ENDCHAR
STARTCHAR Uhungarumlaut.ss01
ENCODING -1
SWIDTH 800 0
DWIDTH 6 0
BBX 7 10 0 0
BITMAP
000B6700
001A8300
00000000
07800D10
0A702F10
0C505E00
0E209C00
2F01EA00
3E2BC700
1DE6A400
ENDCHAR
STARTCHAR uni0216.ss01
ENCODING -1
SWIDTH 800 0
DWIDTH 6 0
BBX 7 9 0 0
BITMAP
002CD400
00744800
07800D10
0A702F10
0C505E00
0E209C00
2F01EA00
3E2BC700
1DE6A400
ENDCHAR
STARTCHAR Umacron.ss01
ENCODING -1
SWIDTH 800 0
DWIDTH 6 0
BBX 7 8 0 0
BITMAP
003ED200
07800D10
0A702F10
0C505E00
0E209C00
2F01EA00
3E2BC700
1DE6A400
ENDCHAR
STARTCHAR Uogonek.ss01
ENCODING -1
SWIDTH 800 0
DWIDTH 6 0
BBX 7 9 0 -2
BITMAP
07800D10
0A702F10
0C505E00
0E209C00
2F01E900
3E2BC700
1DE6B300
0002A000
0001DB00
ENDCHAR
STARTCHAR Uring.ss01
ENCODING -1
SWIDTH 800 0
DWIDTH 6 0
BBX 7 10 0 0
BITMAP
0009B000
000BA100
000AA000
07800D10
0A702F10
0C505E00
0E209C00
2F01EA00
3E2BC700
1DE6A400
ENDCHAR
STARTCHAR Utilde.ss01
ENCODING -1
SWIDTH 800 0
DWIDTH 6 0
BBX 7 10 0 0
BITMAP
00160500
0098C700
00000000
07800D10
0A702F10
0C505E00
0E209C00
2F01EA00
3E2BC700
1DE6A400
ENDCHAR
STARTCHAR V.ss01
ENCODING -1
SWIDTH 797 0
DWIDTH 6 0
BBX 6 7 1 0
BITMAP
A50097
D400E4
E302F1
F207A0
E30D40
B98B00
4EB100
ENDCHAR
STARTCHAR W.ss01
ENCODING -1
SWIDTH 1236 0
DWIDTH 10 0
BBX 9 7 1 0
BITMAP
A401E102E0
D404F006C0
F207E00980
F20CD00E30
E23CE04C00
C7B5E4C500
4E807E7000
ENDCHAR
STARTCHAR Wacute.ss01
ENCODING -1
SWIDTH 1236 0
DWIDTH 10 0
BBX 9 10 1 0
BITMAP
0000079000
0000691000
0000000000
A401E102E0
D404F006C0
F207E00980
F20CD00E30
E23CE04C00
C7B5E4C500
4E807E7000
ENDCHAR
STARTCHAR Wcircumflex.ss01
ENCODING -1
SWIDTH 1236 0
DWIDTH 10 0
BBX 9 11 1 0
BITMAP
0000430000
0003DB0000
00095C0000
0000000000
A401E102E0
D404F006C0
F207E00980
F20CD00E30
E23CE04C00
C7B5E4C500
4E807E7000
ENDCHAR
STARTCHAR Wdieresis.ss01
ENCODING -1
SWIDTH 1236 0
DWIDTH 10 0
BBX 9 9 1 0
BITMAP
00075B1000
0000000000
A401E102E0
D404F006C0
F207E00980
F20CD00E30
E23CE04C00
C7B5E4C500
4E807E7000
ENDCHAR
STARTCHAR Wgrave.ss01
ENCODING -1
SWIDTH 1236 0
DWIDTH 10 0
BBX 9 10 1 0
BITMAP
006A000000
0007900000
0000000000
A401E102E0
D404F006C0
F207E00980
F20CD00E30
E23CE04C00
C7B5E4C500
4E807E7000
ENDCHAR
STARTCHAR X.ss01
ENCODING -1
SWIDTH 677 0
DWIDTH 5 0
BBX 7 7 -1 0
BITMAP
00C405B0
007B3E30
001ED400
000CA000
009AE200
07C0A800
3D203D00
ENDCHAR
STARTCHAR Y.ss01
ENCODING -1
SWIDTH 776 0
DWIDTH 6 0
BBX 6 7 0 0
BITMAP
0A502C
0D504D
0F208B
1F23EA
0BFDA7
1322D2
1CED50
ENDCHAR
STARTCHAR Yacute.ss01
ENCODING -1
SWIDTH 776 0
DWIDTH 6 0
BBX 6 10 0 0
BITMAP
00007A
000692
000000
0A502C
0D504D
0F208B
1F23EA
0BFDA7
1322D2
1CED50
ENDCHAR
STARTCHAR Ycircumflex.ss01
ENCODING -1
SWIDTH 776 0
DWIDTH 6 0
BBX 6 11 0 0
BITMAP
000430
002DC0
0085C0
000000
0A502C
0D504D
0F208B
1F23EA
0BFDA7
1322D2
1CED50
ENDCHAR
STARTCHAR Ydieresis.ss01
ENCODING -1
SWIDTH 776 0
DWIDTH 6 0
BBX 6 9 0 0
BITMAP
0075B1
000000
0A502C
0D504D
0F208B
1F23EA
0BFDA7
1322D2
1CED50
ENDCHAR
STARTCHAR uni1EF4.ss01
ENCODING -1
SWIDTH 776 0
DWIDTH 6 0
BBX 6 9 0 -2
BITMAP
0A502C
0D504D
0F208B
1F23EA
0BFDA7
1322D2
1CED50
000000
00C200
ENDCHAR
STARTCHAR Ygrave.ss01
ENCODING -1
SWIDTH 776 0
DWIDTH 6 0
BBX 6 10 0 0
BITMAP
05B100
007A00
000000
0A502C
0D504D
0F208B
1F23EA
0BFDA7
1322D2
1CED50
ENDCHAR
STARTCHAR uni1EF6.ss01
ENCODING -1
SWIDTH 776 0
DWIDTH 6 0
BBX 6 9 0 0
BITMAP
000CA0
000990
0A502C
0D504D
0F208B
1F23EA
0BFDA7
1322D2
1CED50
ENDCHAR
STARTCHAR uni0232.ss01
ENCODING -1
SWIDTH 776 0
DWIDTH 6 0
BBX 6 8 0 0
BITMAP
006EC0
0A502C
0D504D
0F208B
1F23EA
0BFDA7
1322D2
1CED50
ENDCHAR
STARTCHAR uni1EF8.ss01
ENCODING -1
SWIDTH 776 0
DWIDTH 6 0
BBX 6 10 0 0
BITMAP
003514
00B8C4
000000
0A502C
0D504D
0F208B
1F23EA
0BFDA7
1322D2
1CED50
ENDCHAR
STARTCHAR Z.ss01
ENCODING -1
SWIDTH 665 0
DWIDTH 5 0
BBX 6 7 0 0
BITMAP
3DDEE6
0005E2
001E60
00BA00
08D100
5F3000
CFEDC0
ENDCHAR
STARTCHAR Zacute.ss01
ENCODING -1
SWIDTH 665 0
DWIDTH 5 0
BBX 6 10 0 0
BITMAP
0000A6
000970
000000
3DDEE6
0005E2
001E60
00BA00
08D100
5F3000
CFEDC0
ENDCHAR
STARTCHAR Zcaron.ss01
ENCODING -1
SWIDTH 665 0
DWIDTH 5 0
BBX 6 10 0 0
BITMAP
0094B0
003D40
000000
3DDEE6
0005E2
001E60
00BA00
08D100
5F3000
CFEDC0
ENDCHAR
STARTCHAR Zdotaccent.ss01
ENCODING -1
SWIDTH 665 0
DWIDTH 5 0
BBX 6 9 0 0
BITMAP
001C10
000000
3DDEE6
0005E2
001E60
00BA00
08D100
5F3000
CFEDC0
ENDCHAR
STARTCHAR i.loclTRK
ENCODING -1
SWIDTH 246 0
DWIDTH 2 0
BBX 3 6 0 0
BITMAP
2C00
0000
4900
8700
9690
5E50
ENDCHAR
STARTCHAR a.fina
ENCODING -1
SWIDTH 458 0
DWIDTH 4 0
BBX 4 4 0 0
BITMAP
0AE6
7A95
A5D4
7DC2
ENDCHAR
STARTCHAR aacute.fina
ENCODING -1
SWIDTH 458 0
DWIDTH 4 0
BBX 4 8 0 0
BITMAP
0005
005B
0091
0000
0AE6
7A95
A5D4
7DC2
ENDCHAR
STARTCHAR abreve.fina
ENCODING -1
SWIDTH 458 0
DWIDTH 4 0
BBX 5 6 0 0
BITMAP
0D1A20
08D800
0AE600
7A9500
A5D400
7DC200
ENDCHAR
STARTCHAR uni1EAF.fina
ENCODING -1
SWIDTH 458 0
DWIDTH 4 0
BBX 5 7 0 0
BITMAP
003B00
093820
09D900
0AE600
7A9500
A5D400
7DC200
ENDCHAR
STARTCHAR uni1EB7.fina
ENCODING -1
SWIDTH 458 0
DWIDTH 4 0
BBX 5 8 0 -2
BITMAP
0D1A20
08D800
0AE600
7A9500
A5D400
7DC200
000000
1C1000
ENDCHAR
STARTCHAR uni1EB1.fina
ENCODING -1
SWIDTH 458 0
DWIDTH 4 0
BBX 5 7 0 0
BITMAP
068000
084720
08C900
0AE600
7A9500
A5D400
7DC200
ENDCHAR
STARTCHAR uni1EB3.fina
ENCODING -1
SWIDTH 458 0
DWIDTH 4 0
BBX 5 7 0 0
BITMAP
01D400
03B710
0ADB10
0AE600
7A9500
A5D400
7DC200
ENDCHAR
STARTCHAR uni1EB5.fina
ENCODING -1
SWIDTH 458 0
DWIDTH 4 0
BBX 5 8 0 0
BITMAP
036320
097B10
070520
09C900
0AE600
7A9500
A5D400
7DC200
ENDCHAR
STARTCHAR acircumflex.fina
ENCODING -1
SWIDTH 458 0
DWIDTH 4 0
BBX 4 8 0 0
BITMAP
00C5
06A9
0B2A
0000
0AE6
7A95
A5D4
7DC2
ENDCHAR
STARTCHAR uni1EA5.fina
ENCODING -1
SWIDTH 458 0
DWIDTH 4 0
BBX 5 8 0 0
BITMAP
0002C0
02D930
0A6A00
000000
0AE600
7A9500
A5D400
7DC200
ENDCHAR
STARTCHAR uni1EAD.fina
ENCODING -1
SWIDTH 458 0
DWIDTH 4 0
BBX 4 10 0 -2
BITMAP
00C5
06A9
0B2A
0000
0AE6
7A95
A5D4
7DC2
0000
1C10
ENDCHAR
STARTCHAR uni1EA7.fina
ENCODING -1
SWIDTH 458 0
DWIDTH 4 0
BBX 4 8 0 0
BITMAP
7600
17D6
0A6A
0000
0AE6
7A95
A5D4
7DC2
ENDCHAR
STARTCHAR uni1EA9.fina
ENCODING -1
SWIDTH 458 0
DWIDTH 4 0
BBX 5 7 0 0
BITMAP
0007C0
01C8B0
099B00
0EFA00
7A9500
A5D400
7DC200
ENDCHAR
STARTCHAR uni1EAB.fina
ENCODING -1
SWIDTH 458 0
DWIDTH 4 0
BBX 5 8 0 0
BITMAP
07AA20
029500
096A00
000000
0AE600
7A9500
A5D400
7DC200
ENDCHAR
STARTCHAR uni0201.fina
ENCODING -1
SWIDTH 458 0
DWIDTH 4 0
BBX 4 8 0 0
BITMAP
2350
4BC2
0A46
0000
0AE6
7A95
A5D4
7DC2
ENDCHAR
STARTCHAR adieresis.fina
ENCODING -1
SWIDTH 458 0
DWIDTH 4 0
BBX 4 6 0 0
BITMAP
094B
0000
0AE6
7A95
A5D4
7DC2
ENDCHAR
STARTCHAR uni1EA1.fina
ENCODING -1
SWIDTH 458 0
DWIDTH 4 0
BBX 4 6 0 -2
BITMAP
0AE6
7A95
A5D4
7DC2
0000
1C10
ENDCHAR
STARTCHAR agrave.fina
ENCODING -1
SWIDTH 458 0
DWIDTH 4 0
BBX 4 8 0 0
BITMAP
0500
0B40
0290
0000
0AE6
7A95
A5D4
7DC2
ENDCHAR
STARTCHAR uni1EA3.fina
ENCODING -1
SWIDTH 458 0
DWIDTH 4 0
BBX 4 7 0 0
BITMAP
02D5
0029
00C4
0AE6
7A95
A5D4
7DC2
ENDCHAR
STARTCHAR uni0203.fina
ENCODING -1
SWIDTH 458 0
DWIDTH 4 0
BBX 5 7 0 0
BITMAP
07DA00
0B1A20
000000
0AE600
7A9500
A5D400
7DC200
ENDCHAR
STARTCHAR amacron.fina
ENCODING -1
SWIDTH 458 0
DWIDTH 4 0
BBX 4 5 0 0
BITMAP
09E9
0AE6
7A95
A5D4
7DC2
ENDCHAR
STARTCHAR aogonek.fina
ENCODING -1
SWIDTH 458 0
DWIDTH 4 0
BBX 4 6 0 -2
BITMAP
0AD4
7A96
A5D4
7DD2
0390
01C8
ENDCHAR
STARTCHAR aring.fina
ENCODING -1
SWIDTH 458 0
DWIDTH 4 0
BBX 4 7 0 0
BITMAP
02D5
067A
03D5
0AE6
7A95
A5D4
7DC2
ENDCHAR
STARTCHAR aringacute.fina
ENCODING -1
SWIDTH 458 0
DWIDTH 4 0
BBX 6 8 0 0
BITMAP
0000A3
02D780
066A00
03D500
0AE600
7A9500
A5D400
7DC200
ENDCHAR
STARTCHAR atilde.fina
ENCODING -1
SWIDTH 458 0
DWIDTH 4 0
BBX 5 7 0 0
BITMAP
043320
1BAC10
000000
0AE600
7A9500
A5D400
7DC200
ENDCHAR
STARTCHAR ae.fina
ENCODING -1
SWIDTH 671 0
DWIDTH 5 0
BBX 6 4 0 0
BITMAP
0AECD1
7988C1
A5DC65
6E7DD3
ENDCHAR
STARTCHAR aeacute.fina
ENCODING -1
SWIDTH 671 0
DWIDTH 5 0
BBX 6 8 0 0
BITMAP
000050
0004B0
000920
000000
0AECD1
7988C1
A5DC65
6E7DD3
ENDCHAR
STARTCHAR b.fina
ENCODING -1
SWIDTH 475 0
DWIDTH 4 0
BBX 4 8 0 0
BITMAP
04E3
0C76
2C83
5AA0
7ED3
8979
7877
2DC1
ENDCHAR
STARTCHAR c.fina
ENCODING -1
SWIDTH 404 0
DWIDTH 3 0
BBX 4 4 0 0
BITMAP
2DB0
9690
B633
4EC1
ENDCHAR
STARTCHAR cacute.fina
ENCODING -1
SWIDTH 404 0
DWIDTH 3 0
BBX 4 8 0 0
BITMAP
0023
00A5
0190
0000
2DB0
9690
B633
4EC1
ENDCHAR
STARTCHAR ccaron.fina
ENCODING -1
SWIDTH 404 0
DWIDTH 3 0
BBX 4 8 0 0
BITMAP
0B2A
0BA4
06B0
0000
2DB0
9690
B633
4EC1
ENDCHAR
STARTCHAR ccedilla.fina
ENCODING -1
SWIDTH 404 0
DWIDTH 3 0
BBX 4 6 0 -2
BITMAP
2DB0
9690
A634
3FC1
04B0
6D50
ENDCHAR
STARTCHAR ccircumflex.fina
ENCODING -1
SWIDTH 404 0
DWIDTH 3 0
BBX 4 8 0 0
BITMAP
03D0
0BA3
2965
0000
2DB0
9690
B633
4EC1
ENDCHAR
STARTCHAR cdotaccent.fina
ENCODING -1
SWIDTH 404 0
DWIDTH 3 0
BBX 4 6 0 0
BITMAP
0590
0000
2DB0
9690
B633
4EC1
ENDCHAR
STARTCHAR d.fina
ENCODING -1
SWIDTH 493 0
DWIDTH 4 0
BBX 5 8 0 0
BITMAP
000AA0
002AB0
0068A0
009A60
0AFD10
79A800
A5B600
6EA800
ENDCHAR
STARTCHAR dcaron.fina
ENCODING -1
SWIDTH 458 0
DWIDTH 4 0
BBX 6 8 0 0
BITMAP
000084
000DA1
002E00
004B00
0AE800
7A9600
A5D400
7DC200
ENDCHAR
STARTCHAR dcroat.fina
ENCODING -1
SWIDTH 458 0
DWIDTH 4 0
BBX 5 7 0 0
BITMAP
000E10
09EF40
004A00
0AE800
7A9600
A5D400
7DC200
ENDCHAR
STARTCHAR uni01C6.fina
ENCODING -1
SWIDTH 876 0
DWIDTH 7 0
BBX 8 10 0 -3
BITMAP
000D2A76
002E0CB0
004B2631
0AE8AFF3
7A951B40
A5D4C800
6E9D5E40
00009D50
00066D10
0005D400
ENDCHAR
STARTCHAR e.fina
ENCODING -1
SWIDTH 411 0
DWIDTH 3 0
BBX 4 4 0 0
BITMAP
2CD0
97C0
AC54
4EC2
ENDCHAR
STARTCHAR eacute.fina
ENCODING -1
SWIDTH 411 0
DWIDTH 3 0
BBX 4 8 0 0
BITMAP
0023
00A6
0190
0000
2CD0
97C0
AC54
4EC2
ENDCHAR
STARTCHAR ebreve.fina
ENCODING -1
SWIDTH 411 0
DWIDTH 3 0
BBX 4 6 0 0
BITMAP
592B
1BD4
2CD0
97C0
AC54
4EC2
ENDCHAR
STARTCHAR ecaron.fina
ENCODING -1
SWIDTH 411 0
DWIDTH 3 0
BBX 4 8 0 0
BITMAP
0B2A
0AA5
06B0
0000
2CD0
97C0
AC54
4EC2
ENDCHAR
STARTCHAR ecircumflex.fina
ENCODING -1
SWIDTH 411 0
DWIDTH 3 0
BBX 4 8 0 0
BITMAP
03D1
0BA4
2A66
0000
2CD0
97C0
AC54
4EC2
ENDCHAR
STARTCHAR uni1EBF.fina
ENCODING -1
SWIDTH 411 0
DWIDTH 3 0
BBX 5 8 0 0
BITMAP
000680
06E610
1C8600
000000
2CD000
97C000
AC5400
4EC200
ENDCHAR
STARTCHAR uni1EC7.fina
ENCODING -1
SWIDTH 411 0
DWIDTH 3 0
BBX 4 10 0 -2
BITMAP
03D1
0BA4
2A66
0000
2CD0
97C0
AC54
4EC2
0000
0B40
ENDCHAR
STARTCHAR uni1EC1.fina
ENCODING -1
SWIDTH 411 0
DWIDTH 3 0
BBX 4 8 0 0
BITMAP
B200
2AE1
1C86
0000
2CD0
97C0
AC54
4EC2
ENDCHAR
STARTCHAR uni1EC3.fina
ENCODING -1
SWIDTH 411 0
DWIDTH 3 0
BBX 5 7 0 0
BITMAP
000B80
05D970
1D9600
2FE200
97C000
AC5400
4EC200
ENDCHAR
STARTCHAR uni1EC5.fina
ENCODING -1
SWIDTH 411 0
DWIDTH 3 0
BBX 4 8 0 0
BITMAP
0A99
04A1
1B85
0000
2CD0
97C0
AC54
4EC2
ENDCHAR
STARTCHAR uni0205.fina
ENCODING -1
SWIDTH 411 0
DWIDTH 3 0
BBX 4 8 0 0
BITMAP
5240
98C0
1891
0000
2CD0
97C0
AC54
4EC2
ENDCHAR
STARTCHAR edieresis.fina
ENCODING -1
SWIDTH 411 0
DWIDTH 3 0
BBX 4 6 0 0
BITMAP
1A57
0000
2CD0
97C0
AC54
4EC2
ENDCHAR
STARTCHAR edotaccent.fina
ENCODING -1
SWIDTH 411 0
DWIDTH 3 0
BBX 4 6 0 0
BITMAP
05A0
0000
2CD0
97C0
AC54
4EC2
ENDCHAR
STARTCHAR uni1EB9.fina
ENCODING -1
SWIDTH 411 0
DWIDTH 3 0
BBX 4 6 0 -2
BITMAP
2CD0
97C0
AC54
4EC2
0000
0B40
ENDCHAR
STARTCHAR egrave.fina
ENCODING -1
SWIDTH 411 0
DWIDTH 3 0
BBX 4 8 0 0
BITMAP
1400
2D00
0650
0000
2CD0
97C0
AC54
4EC2
ENDCHAR
STARTCHAR uni1EBB.fina
ENCODING -1
SWIDTH 411 0
DWIDTH 3 0
BBX 4 7 0 0
BITMAP
06D2
0074
03C1
2CD0
97C0
AC54
4EC2
ENDCHAR
STARTCHAR uni0207.fina
ENCODING -1
SWIDTH 411 0
DWIDTH 3 0
BBX 4 7 0 0
BITMAP
1AD6
472A
0000
2CD0
97C0
AC54
4EC2
ENDCHAR
STARTCHAR emacron.fina
ENCODING -1
SWIDTH 411 0
DWIDTH 3 0
BBX 4 5 0 0
BITMAP
1DE4
2CD0
97C0
AC54
4EC2
ENDCHAR
STARTCHAR eogonek.fina
ENCODING -1
SWIDTH 411 0
DWIDTH 3 0
BBX 4 6 0 -2
BITMAP
2CD0
97C0
AC54
4DC1
0A20
07D3
ENDCHAR
STARTCHAR uni1EBD.fina
ENCODING -1
SWIDTH 411 0
DWIDTH 3 0
BBX 4 7 0 0
BITMAP
0614
68B9
0000
2CD0
97C0
AC54
4EC2
ENDCHAR
STARTCHAR g.fina
ENCODING -1
SWIDTH 449 0
DWIDTH 4 0
BBX 4 8 0 -4
BITMAP
0AD4
7A95
A5D3
6DE1
08D0
79A0
B850
CB00
ENDCHAR
STARTCHAR gbreve.fina
ENCODING -1
SWIDTH 449 0
DWIDTH 4 0
BBX 5 10 0 -4
BITMAP
0D1A20
08D800
0AD400
7A9500
A5D300
6DE100
08D000
79A000
B85000
CB0000
ENDCHAR
STARTCHAR gcaron.fina
ENCODING -1
SWIDTH 449 0
DWIDTH 4 0
BBX 5 12 0 -4
BITMAP
075B10
05AA00
01D200
000000
0AD400
7A9500
A5D300
6DE100
08D000
79A000
B85000
CB0000
ENDCHAR
STARTCHAR gcircumflex.fina
ENCODING -1
SWIDTH 449 0
DWIDTH 4 0
BBX 4 12 0 -4
BITMAP
00C5
06A9
0B2A
0000
0AD4
7A95
A5D3
6DE1
08D0
79A0
B850
CB00
ENDCHAR
STARTCHAR uni0123.fina
ENCODING -1
SWIDTH 449 0
DWIDTH 4 0
BBX 4 11 0 -4
BITMAP
00A2
00A0
0000
0AD4
7A95
A5D3
6DE1
08D0
79A0
B850
CB00
ENDCHAR
STARTCHAR gdotaccent.fina
ENCODING -1
SWIDTH 449 0
DWIDTH 4 0
BBX 4 10 0 -4
BITMAP
01C2
0000
0AD4
7A95
A5D3
6DE1
08D0
79A0
B850
CB00
ENDCHAR
STARTCHAR h.fina
ENCODING -1
SWIDTH 490 0
DWIDTH 4 0
BBX 4 8 0 0
BITMAP
04D3
0C76
2C92
5C90
6DBA
8CB9
8C78
6776
ENDCHAR
STARTCHAR hbar.fina
ENCODING -1
SWIDTH 490 0
DWIDTH 4 0
BBX 4 7 0 0
BITMAP
0A40
6FD6
3D00
5AAA
7DB9
8C78
7776
ENDCHAR
STARTCHAR hcircumflex.fina
ENCODING -1
SWIDTH 490 0
DWIDTH 4 0
BBX 4 12 0 0
BITMAP
0043
02DC
085C
0000
04D3
0C76
2C92
5C90
6DBA
8CB9
8C78
6776
ENDCHAR
STARTCHAR i.fina
ENCODING -1
SWIDTH 222 0
DWIDTH 2 0
BBX 3 6 0 0
BITMAP
1C10
0000
4A00
7800
9600
A400
ENDCHAR
STARTCHAR dotlessi.fina
ENCODING -1
SWIDTH 222 0
DWIDTH 2 0
BBX 2 4 0 0
BITMAP
4A
78
96
A4
ENDCHAR
STARTCHAR iacute.fina
ENCODING -1
SWIDTH 222 0
DWIDTH 2 0
BBX 3 8 0 0
BITMAP
0050
06A0
0910
0000
4A00
7800
9600
A400
ENDCHAR
STARTCHAR iacute_j.loclNLD.fina
ENCODING -1
SWIDTH 479 0
DWIDTH 4 0
BBX 5 12 0 -4
BITMAP
005140
05B870
091A00
000000
396700
77B500
9AF300
6CD100
08D000
799000
B95000
CB0000
ENDCHAR
STARTCHAR ibreve.fina
ENCODING -1
SWIDTH 222 0
DWIDTH 2 0
BBX 5 6 -1 0
BITMAP
1C1B10
09D700
04A000
078000
096000
0A4000
ENDCHAR
STARTCHAR icircumflex.fina
ENCODING -1
SWIDTH 222 0
DWIDTH 2 0
BBX 3 8 0 0
BITMAP
1D40
7A80
B290
0000
4A00
7800
9600
A400
ENDCHAR
STARTCHAR uni0209.fina
ENCODING -1
SWIDTH 222 0
DWIDTH 2 0
BBX 4 8 -1 0
BITMAP
3350
5AD1
0A55
0000
04A0
0780
0960
0A40
ENDCHAR
STARTCHAR idieresis.fina
ENCODING -1
SWIDTH 222 0
DWIDTH 2 0
BBX 3 6 0 0
BITMAP
A4A0
0000
4A00
7800
9600
A400
ENDCHAR
STARTCHAR i.loclTRK.fina
ENCODING -1
SWIDTH 222 0
DWIDTH 2 0
BBX 3 6 0 0
BITMAP
2C10
0000
4A00
7800
9600
A400
ENDCHAR
STARTCHAR uni1ECB.fina
ENCODING -1
SWIDTH 222 0
DWIDTH 2 0
BBX 4 8 -1 -2
BITMAP
01C1
0000
04A0
0780
0960
0A40
0000
1C20
ENDCHAR
STARTCHAR igrave.fina
ENCODING -1
SWIDTH 222 0
DWIDTH 2 0
BBX 2 8 0 0
BITMAP
50
C3
28
00
4A
78
96
A4
ENDCHAR
STARTCHAR uni1EC9.fina
ENCODING -1
SWIDTH 222 0
DWIDTH 2 0
BBX 3 7 0 0
BITMAP
3D40
0480
0C30
4A00
7800
9600
A400
ENDCHAR
STARTCHAR uni020B.fina
ENCODING -1
SWIDTH 222 0
DWIDTH 2 0
BBX 5 7 -1 0
BITMAP
08D900
1A1B10
000000
04A000
078000
096000
0A4000
ENDCHAR
STARTCHAR imacron.fina
ENCODING -1
SWIDTH 222 0
DWIDTH 2 0
BBX 3 5 0 0
BITMAP
BE80
4A00
7800
9600
A400
ENDCHAR
STARTCHAR iogonek.fina
ENCODING -1
SWIDTH 222 0
DWIDTH 2 0
BBX 4 8 -1 -2
BITMAP
02C1
0000
04A0
0780
0A60
0B30
2B00
1CA0
ENDCHAR
STARTCHAR itilde.fina
ENCODING -1
SWIDTH 222 0
DWIDTH 2 0
BBX 5 7 -1 0
BITMAP
053310
2AAB10
000000
04A000
078000
096000
0A4000
ENDCHAR
STARTCHAR j.fina
ENCODING -1
SWIDTH 229 0
DWIDTH 2 0
BBX 4 10 -2 -4
BITMAP
003B
0000
0049
0078
0086
00A4
05F1
3AD0
A680
9D20
ENDCHAR
STARTCHAR uni0237.fina
ENCODING -1
SWIDTH 229 0
DWIDTH 2 0
BBX 4 8 -2 -4
BITMAP
0049
0078
0086
00A4
05F1
3AD0
A680
9D20
ENDCHAR
STARTCHAR jcircumflex.fina
ENCODING -1
SWIDTH 229 0
DWIDTH 2 0
BBX 5 12 -2 -4
BITMAP
001D30
008A70
00C390
000000
004900
007800
008600
00A400
05F100
3AD000
A68000
9D2000
ENDCHAR
STARTCHAR k.fina
ENCODING -1
SWIDTH 521 0
DWIDTH 4 0
BBX 4 8 0 0
BITMAP
04E3
0C76
2C92
5C80
6CAD
8C6E
8CC5
678D
ENDCHAR
STARTCHAR uni0137.fina
ENCODING -1
SWIDTH 521 0
DWIDTH 4 0
BBX 4 11 0 -3
BITMAP
04E3
0C76
2C92
5C80
6CAD
8C6E
8CC5
678D
0000
0940
0910
ENDCHAR
STARTCHAR kgreenlandic.fina
ENCODING -1
SWIDTH 541 0
DWIDTH 4 0
BBX 5 4 0 0
BITMAP
49BC00
8D8900
9F7240
78DC20
ENDCHAR
STARTCHAR l.fina
ENCODING -1
SWIDTH 368 0
DWIDTH 3 0
BBX 4 8 0 0
BITMAP
04D3
0C76
2C74
59B1
7B90
8E20
7920
2DC0
ENDCHAR
STARTCHAR lacute.fina
ENCODING -1
SWIDTH 368 0
DWIDTH 3 0
BBX 5 11 0 0
BITMAP
000790
006910
000000
04D300
0C7600
2C7400
59B100
7B9000
8E2000
792000
2DC000
ENDCHAR
STARTCHAR lcaron.fina
ENCODING -1
SWIDTH 368 0
DWIDTH 3 0
BBX 5 8 0 0
BITMAP
04D670
0C7B50
2C7400
59B100
7B9000
8E2000
792000
2DC000
ENDCHAR
STARTCHAR uni013C.fina
ENCODING -1
SWIDTH 368 0
DWIDTH 3 0
BBX 4 11 0 -3
BITMAP
04D3
0C76
2C74
59B1
7B90
8E20
7920
2DC0
0000
1C00
1900
ENDCHAR
STARTCHAR ldot.fina
ENCODING -1
SWIDTH 466 0
DWIDTH 4 0
BBX 4 8 0 0
BITMAP
0760
0C40
1F10
3CE2
6920
8700
981A
3DD3
ENDCHAR
STARTCHAR uni01C9.fina
ENCODING -1
SWIDTH 555 0
DWIDTH 4 0
BBX 5 12 0 -4
BITMAP
04E300
0C7600
2C7C60
59A000
7B7A40
8E1D20
792E00
2DDD00
00AA00
09A700
2AB200
1E9000
ENDCHAR
STARTCHAR lslash.fina
ENCODING -1
SWIDTH 368 0
DWIDTH 3 0
BBX 5 9 0 0
BITMAP
03CD50
0C4000
05E400
0D6600
4A8300
69A000
8E3000
792000
2DC000
ENDCHAR
STARTCHAR m.fina
ENCODING -1
SWIDTH 732 0
DWIDTH 6 0
BBX 6 4 0 0
BITMAP
49A8A9
8DBDB8
9C8C87
767685
ENDCHAR
STARTCHAR n.fina
ENCODING -1
SWIDTH 484 0
DWIDTH 4 0
BBX 4 4 0 0
BITMAP
49A9
8DB9
9C87
7685
ENDCHAR
STARTCHAR nacute.fina
ENCODING -1
SWIDTH 484 0
DWIDTH 4 0
BBX 4 8 0 0
BITMAP
0005
004B
0082
0000
49A9
8DB9
9C87
7685
ENDCHAR
STARTCHAR napostrophe.fina
ENCODING -1
SWIDTH 484 0
DWIDTH 4 0
BBX 4 7 0 0
BITMAP
C000
A000
0000
49A9
8DB9
9C87
7685
ENDCHAR
STARTCHAR ncaron.fina
ENCODING -1
SWIDTH 484 0
DWIDTH 4 0
BBX 5 8 0 0
BITMAP
065A20
04AA00
01D300
000000
49A900
8DB900
9C8700
768500
ENDCHAR
STARTCHAR uni0146.fina
ENCODING -1
SWIDTH 484 0
DWIDTH 4 0
BBX 4 7 0 -3
BITMAP
49A9
8DB9
9C87
7685
0000
0940
0910
ENDCHAR
STARTCHAR eng.fina
ENCODING -1
SWIDTH 484 0
DWIDTH 4 0
BBX 4 7 0 -3
BITMAP
49A9
8DB8
9C85
76B2
00D0
6580
6B10
ENDCHAR
STARTCHAR uni01CC.fina
ENCODING -1
SWIDTH 725 0
DWIDTH 6 0
BBX 6 10 0 -4
BITMAP
00003B
000000
49A959
8DB878
9C86B6
766EE3
0006F1
0049C0
00B680
009C10
ENDCHAR
STARTCHAR ntilde.fina
ENCODING -1
SWIDTH 484 0
DWIDTH 4 0
BBX 5 7 0 0
BITMAP
044220
0B9C20
000000
49A900
8DB900
9C8700
768500
ENDCHAR
STARTCHAR o.fina
ENCODING -1
SWIDTH 453 0
DWIDTH 4 0
BBX 4 4 0 0
BITMAP
2DC1
9696
A5A5
4DB0
ENDCHAR
STARTCHAR oacute.fina
ENCODING -1
SWIDTH 453 0
DWIDTH 4 0
BBX 4 8 0 0
BITMAP
0023
00A5
0190
0000
2DC1
9696
A5A5
4DB0
ENDCHAR
STARTCHAR obreve.fina
ENCODING -1
SWIDTH 453 0
DWIDTH 4 0
BBX 4 6 0 0
BITMAP
582B
1BD4
2DC1
9696
A5A5
4DB0
ENDCHAR
STARTCHAR ocircumflex.fina
ENCODING -1
SWIDTH 453 0
DWIDTH 4 0
BBX 4 8 0 0
BITMAP
03D0
0BA4
2A65
0000
2DC1
9696
A5A5
4DB0
ENDCHAR
STARTCHAR uni1ED1.fina
ENCODING -1
SWIDTH 453 0
DWIDTH 4 0
BBX 5 8 0 0
BITMAP
000670
07D610
2C8500
000000
2DC100
969600
A5A500
4DB000
ENDCHAR
STARTCHAR uni1ED9.fina
ENCODING -1
SWIDTH 453 0
DWIDTH 4 0
BBX 4 10 0 -2
BITMAP
03D0
0BA4
2A65
0000
2DC1
9696
A5A5
4DB0
0000
0B20
ENDCHAR
STARTCHAR uni1ED3.fina
ENCODING -1
SWIDTH 453 0
DWIDTH 4 0
BBX 4 8 0 0
BITMAP
C200
2AD1
2C85
0000
2DC1
9696
A5A5
4DB0
ENDCHAR
STARTCHAR uni1ED5.fina
ENCODING -1
SWIDTH 453 0
DWIDTH 4 0
BBX 5 7 0 0
BITMAP
000C70
05C960
1DA500
3FE300
969600
A5A500
4DB000
ENDCHAR
STARTCHAR uni1ED7.fina
ENCODING -1
SWIDTH 453 0
DWIDTH 4 0
BBX 4 8 0 0
BITMAP
0B99
05A1
1B85
0000
2DC1
9696
A5A5
4DB0
ENDCHAR
STARTCHAR uni020D.fina
ENCODING -1
SWIDTH 453 0
DWIDTH 4 0
BBX 4 8 0 0
BITMAP
5240
98C0
2891
0000
2DC1
9696
A5A5
4DB0
ENDCHAR
STARTCHAR odieresis.fina
ENCODING -1
SWIDTH 453 0
DWIDTH 4 0
BBX 4 6 0 0
BITMAP
2A66
0000
2DC1
9696
A5A5
4DB0
ENDCHAR
STARTCHAR uni022B.fina
ENCODING -1
SWIDTH 453 0
DWIDTH 4 0
BBX 4 7 0 0
BITMAP
0BE7
2A66
0000
2DC1
9696
A5A5
4DB0
ENDCHAR
STARTCHAR uni0231.fina
ENCODING -1
SWIDTH 453 0
DWIDTH 4 0
BBX 4 7 0 0
BITMAP
0BE7
0590
0000
2DC1
9696
A5A5
4DB0
ENDCHAR
STARTCHAR uni1ECD.fina
ENCODING -1
SWIDTH 453 0
DWIDTH 4 0
BBX 4 6 0 -2
BITMAP
2DC1
9696
A5A5
4DB0
0000
0B20
ENDCHAR
STARTCHAR ograve.fina
ENCODING -1
SWIDTH 453 0
DWIDTH 4 0
BBX 4 8 0 0
BITMAP
1400
2D00
0640
0000
2DC1
9696
A5A5
4DB0
ENDCHAR
STARTCHAR uni1ECF.fina
ENCODING -1
SWIDTH 453 0
DWIDTH 4 0
BBX 4 7 0 0
BITMAP
07D1
0084
03C1
2DC1
9696
A5A5
4DB0
ENDCHAR
STARTCHAR ohorn.fina
ENCODING -1
SWIDTH 453 0
DWIDTH 4 0
BBX 4 5 0 0
BITMAP
000B
2DF7
9696
A5A5
4DB0
ENDCHAR
STARTCHAR uni1EDB.fina
ENCODING -1
SWIDTH 453 0
DWIDTH 4 0
BBX 4 8 0 0
BITMAP
0032
00C3
0370
000B
2DF7
9696
A5A5
4DB0
ENDCHAR
STARTCHAR uni1EE3.fina
ENCODING -1
SWIDTH 453 0
DWIDTH 4 0
BBX 4 7 0 -2
BITMAP
000B
2DF7
9696
A5A5
4DB0
0000
0B20
ENDCHAR
STARTCHAR uni1EDD.fina
ENCODING -1
SWIDTH 453 0
DWIDTH 4 0
BBX 4 8 0 0
BITMAP
3300
4B00
0820
000B
2DF7
9696
A5A5
4DB0
ENDCHAR
STARTCHAR uni1EDF.fina
ENCODING -1
SWIDTH 453 0
DWIDTH 4 0
BBX 4 7 0 0
BITMAP
09C0
00A1
06AB
2DF7
9696
A5A5
4DB0
ENDCHAR
STARTCHAR uni1EE1.fina
ENCODING -1
SWIDTH 453 0
DWIDTH 4 0
BBX 4 7 0 0
BITMAP
0513
4DB5
316B
2DF7
9696
A5A5
4DB0
ENDCHAR
STARTCHAR ohungarumlaut.fina
ENCODING -1
SWIDTH 453 0
DWIDTH 4 0
BBX 4 8 0 0
BITMAP
0235
088D
0A64
0000
2DC1
9696
A5A5
4DB0
ENDCHAR
STARTCHAR uni020F.fina
ENCODING -1
SWIDTH 453 0
DWIDTH 4 0
BBX 4 7 0 0
BITMAP
1BD5
572A
0000
2DC1
9696
A5A5
4DB0
ENDCHAR
STARTCHAR omacron.fina
ENCODING -1
SWIDTH 453 0
DWIDTH 4 0
BBX 4 5 0 0
BITMAP
1DE4
2DC1
9696
A5A5
4DB0
ENDCHAR
STARTCHAR uni01EB.fina
ENCODING -1
SWIDTH 453 0
DWIDTH 4 0
BBX 4 6 0 -2
BITMAP
2DD1
9696
A6A4
3E90
0D00
0AB0
ENDCHAR
STARTCHAR oslash.fina
ENCODING -1
SWIDTH 463 0
DWIDTH 4 0
BBX 4 6 0 -1
BITMAP
0090
2DE2
9AB7
ABA6
4EC1
0900
ENDCHAR
STARTCHAR oslashacute.fina
ENCODING -1
SWIDTH 463 0
DWIDTH 4 0
BBX 4 9 0 -1
BITMAP
0050
0690
0910
0090
2DE2
9AB7
ABA6
4EC1
0900
ENDCHAR
STARTCHAR otilde.fina
ENCODING -1
SWIDTH 453 0
DWIDTH 4 0
BBX 4 7 0 0
BITMAP
0614
68B9
0000
2DC1
9696
A5A5
4DB0
ENDCHAR
STARTCHAR uni022D.fina
ENCODING -1
SWIDTH 453 0
DWIDTH 4 0
BBX 4 7 0 0
BITMAP
0FFC
68B9
0000
2DC1
9696
A5A5
4DB0
ENDCHAR
STARTCHAR oe.fina
ENCODING -1
SWIDTH 686 0
DWIDTH 5 0
BBX 6 4 0 0
BITMAP
2DCAD2
9699B3
A5AD65
4DADD4
ENDCHAR
STARTCHAR p.fina
ENCODING -1
SWIDTH 457 0
DWIDTH 4 0
BBX 5 8 -1 -4
BITMAP
06BE40
079880
098B40
2EE800
7B6000
A94000
BB1000
B90000
ENDCHAR
STARTCHAR thorn.fina
ENCODING -1
SWIDTH 483 0
DWIDTH 4 0
BBX 4 10 0 -3
BITMAP
0E10
2D00
5A00
7AD8
9D5B
A9B6
BB50
C300
C300
4000
ENDCHAR
STARTCHAR q.fina
ENCODING -1
SWIDTH 449 0
DWIDTH 4 0
BBX 4 8 0 -3
BITMAP
0014
0AE9
7A96
A5D2
7DF0
02D0
04B0
0480
ENDCHAR
STARTCHAR r.fina
ENCODING -1
SWIDTH 495 0
DWIDTH 4 0
BBX 4 4 0 0
BITMAP
49A8
8CCC
9C49
7700
ENDCHAR
STARTCHAR racute.fina
ENCODING -1
SWIDTH 495 0
DWIDTH 4 0
BBX 4 8 0 0
BITMAP
0015
0069
00A1
0000
49A8
8CCC
9C49
7700
ENDCHAR
STARTCHAR rcaron.fina
ENCODING -1
SWIDTH 495 0
DWIDTH 4 0
BBX 4 8 0 0
BITMAP
083B
07A8
03D1
0000
49A8
8CCC
9C49
7700
ENDCHAR
STARTCHAR uni0157.fina
ENCODING -1
SWIDTH 495 0
DWIDTH 4 0
BBX 4 7 0 -3
BITMAP
49A8
8CCC
9C49
7700
0000
9400
9100
ENDCHAR
STARTCHAR uni0211.fina
ENCODING -1
SWIDTH 495 0
DWIDTH 4 0
BBX 4 8 0 0
BITMAP
3250
69D1
0A54
0000
49A8
8CCC
9C49
7700
ENDCHAR
STARTCHAR uni0213.fina
ENCODING -1
SWIDTH 495 0
DWIDTH 4 0
BBX 5 7 0 0
BITMAP
08D800
1A1B10
000000
49A800
8CCC00
9C4900
770000
ENDCHAR
STARTCHAR s.fina
ENCODING -1
SWIDTH 394 0
DWIDTH 3 0
BBX 4 4 0 0
BITMAP
0860
2E70
B5F1
3CB0
ENDCHAR
STARTCHAR sacute.fina
ENCODING -1
SWIDTH 394 0
DWIDTH 3 0
BBX 4 8 0 0
BITMAP
0023
00A5
0190
0000
0860
2E70
B5F1
3CB0
ENDCHAR
STARTCHAR scaron.fina
ENCODING -1
SWIDTH 394 0
DWIDTH 3 0
BBX 4 8 0 0
BITMAP
0B2A
0AA4
06B0
0000
0860
2E70
B5F1
3CB0
ENDCHAR
STARTCHAR scedilla.fina
ENCODING -1
SWIDTH 394 0
DWIDTH 3 0
BBX 4 6 0 -2
BITMAP
0860
2E70
B6F1
4DB0
02A0
5C40
ENDCHAR
STARTCHAR scircumflex.fina
ENCODING -1
SWIDTH 394 0
DWIDTH 3 0
BBX 4 8 0 0
BITMAP
03D1
0BA4
2A66
0000
0860
2E70
B5F1
3CB0
ENDCHAR
STARTCHAR uni0219.fina
ENCODING -1
SWIDTH 394 0
DWIDTH 3 0
BBX 4 7 0 -3
BITMAP
0860
2E70
B5F1
3CB0
0000
0930
0A00
ENDCHAR
STARTCHAR germandbls.fina
ENCODING -1
SWIDTH 580 0
DWIDTH 5 0
BBX 5 9 0 -2
BITMAP
03CD30
0D3780
4B2C30
78C500
879C20
986980
98CC40
A60000
950000
ENDCHAR
STARTCHAR uni01C9.ss01.fina
ENCODING -1
SWIDTH 466 0
DWIDTH 4 0
BBX 4 11 0 -4
BITMAP
0B30
0F5A
3C00
6968
8787
96C5
6EE2
07E0
59B0
B770
AC10
ENDCHAR
STARTCHAR eng.ss01.fina
ENCODING -1
SWIDTH 484 0
DWIDTH 4 0
BBX 4 8 0 -4
BITMAP
49A9
8DB9
9C86
76A4
05F1
39D0
A680
8D10
ENDCHAR
STARTCHAR p.ss01.fina
ENCODING -1
SWIDTH 488 0
DWIDTH 4 0
BBX 5 8 -1 -4
BITMAP
03B9A0
04FA90
05A770
0A8860
4D6000
9A4000
9C1000
B90000
ENDCHAR
STARTCHAR z.ss01.fina
ENCODING -1
SWIDTH 406 0
DWIDTH 3 0
BBX 5 8 -1 -3
BITMAP
045130
05BF50
01C400
07C100
00C800
09B800
38B300
2C6000
ENDCHAR
STARTCHAR zacute.ss01.fina
ENCODING -1
SWIDTH 406 0
DWIDTH 3 0
BBX 5 11 -1 -3
BITMAP
000330
000B50
001900
045130
05BF50
01C400
07C100
00C800
09B800
38B300
2C6000
ENDCHAR
STARTCHAR zcaron.ss01.fina
ENCODING -1
SWIDTH 406 0
DWIDTH 3 0
BBX 5 11 -1 -3
BITMAP
00B290
00BA40
007A00
045130
05BF50
01C400
07C100
00C800
09B800
38B300
2C6000
ENDCHAR
STARTCHAR zdotaccent.ss01.fina
ENCODING -1
SWIDTH 406 0
DWIDTH 3 0
BBX 5 9 -1 -3
BITMAP
005900
045130
05BF50
01C400
07C100
00C800
09B800
38B300
2C6000
ENDCHAR
STARTCHAR t.fina
ENCODING -1
SWIDTH 413 0
DWIDTH 3 0
BBX 4 8 0 0
BITMAP
01C4
0987
0D84
1EB0
DFD6
4A00
3C11
0BD3
ENDCHAR
STARTCHAR tbar.fina
ENCODING -1
SWIDTH 387 0
DWIDTH 3 0
BBX 4 7 0 0
BITMAP
0420
0C40
1F10
BFD1
EEA0
6920
1DC1
ENDCHAR
STARTCHAR tcaron.fina
ENCODING -1
SWIDTH 413 0
DWIDTH 3 0
BBX 5 8 0 0
BITMAP
01C4A0
0987A0
0D8400
1EB000
DFD600
4A0000
3C1100
0BD300
ENDCHAR
STARTCHAR uni0163.fina
ENCODING -1
SWIDTH 413 0
DWIDTH 3 0
BBX 4 9 0 -2
BITMAP
03D5
0B86
1DA1
DFD6
4A00
3C22
0ED2
03B0
5D60
ENDCHAR
STARTCHAR uni021B.fina
ENCODING -1
SWIDTH 413 0
DWIDTH 3 0
BBX 4 11 0 -3
BITMAP
01C4
0987
0D84
1EB0
DFD6
4A00
3C11
0BD3
0000
0840
0910
ENDCHAR
STARTCHAR u.fina
ENCODING -1
SWIDTH 460 0
DWIDTH 4 0
BBX 4 4 0 0
BITMAP
3967
77B6
99F4
6CB3
ENDCHAR
STARTCHAR uacute.fina
ENCODING -1
SWIDTH 460 0
DWIDTH 4 0
BBX 4 8 0 0
BITMAP
0015
0069
0091
0000
3967
77B6
99F4
6CB3
ENDCHAR
STARTCHAR ubreve.fina
ENCODING -1
SWIDTH 460 0
DWIDTH 4 0
BBX 5 6 0 0
BITMAP
1C1C10
09D700
396700
77B600
99F400
6CB300
ENDCHAR
STARTCHAR ucircumflex.fina
ENCODING -1
SWIDTH 460 0
DWIDTH 4 0
BBX 4 8 0 0
BITMAP
01D3
07A7
0B39
0000
3967
77B6
99F4
6CB3
ENDCHAR
STARTCHAR uni0215.fina
ENCODING -1
SWIDTH 460 0
DWIDTH 4 0
BBX 4 8 0 0
BITMAP
3250
59D1
0A55
0000
3967
77B6
99F4
6CB3
ENDCHAR
STARTCHAR udieresis.fina
ENCODING -1
SWIDTH 460 0
DWIDTH 4 0
BBX 4 6 0 0
BITMAP
0A49
0000
3967
77B6
99F4
6CB3
ENDCHAR
STARTCHAR uni1EE5.fina
ENCODING -1
SWIDTH 460 0
DWIDTH 4 0
BBX 4 6 0 -2
BITMAP
3967
77B6
99F4
6CB3
0000
0B30
ENDCHAR
STARTCHAR ugrave.fina
ENCODING -1
SWIDTH 460 0
DWIDTH 4 0
BBX 4 8 0 0
BITMAP
0500
0D30
0380
0000
3967
77B6
99F4
6CB3
ENDCHAR
STARTCHAR uni1EE7.fina
ENCODING -1
SWIDTH 460 0
DWIDTH 4 0
BBX 4 7 0 0
BITMAP
03D4
0047
00D2
3967
77B6
99F4
6CB3
ENDCHAR
STARTCHAR uhorn.fina
ENCODING -1
SWIDTH 472 0
DWIDTH 4 0
BBX 5 5 0 0
BITMAP
000570
396D20
77B600
99F400
6CB300
ENDCHAR
STARTCHAR uni1EE9.fina
ENCODING -1
SWIDTH 472 0
DWIDTH 4 0
BBX 5 8 0 0
BITMAP
001500
006900
009100
000570
396D20
77B600
99F400
6CB300
ENDCHAR
STARTCHAR uni1EF1.fina
ENCODING -1
SWIDTH 472 0
DWIDTH 4 0
BBX 5 7 0 -2
BITMAP
000570
396D20
77B600
99F400
6CB300
000000
0B3000
ENDCHAR
STARTCHAR uni1EEB.fina
ENCODING -1
SWIDTH 472 0
DWIDTH 4 0
BBX 5 8 0 0
BITMAP
050000
0D3000
038000
000570
396D20
77B600
99F400
6CB300
ENDCHAR
STARTCHAR uni1EED.fina
ENCODING -1
SWIDTH 472 0
DWIDTH 4 0
BBX 5 7 0 0
BITMAP
03D400
004700
00D770
396D20
77B600
99F400
6CB300
ENDCHAR
STARTCHAR uni1EEF.fina
ENCODING -1
SWIDTH 472 0
DWIDTH 4 0
BBX 5 7 0 0
BITMAP
042400
0CCA00
043770
396D20
77B600
99F400
6CB300
ENDCHAR
STARTCHAR uhungarumlaut.fina
ENCODING -1
SWIDTH 460 0
DWIDTH 4 0
BBX 5 8 0 0
BITMAP
005410
04AC20
084800
000000
396700
77B600
99F400
6CB300
ENDCHAR
STARTCHAR uni0217.fina
ENCODING -1
SWIDTH 460 0
DWIDTH 4 0
BBX 5 7 0 0
BITMAP
08D900
1A1B10
000000
396700
77B600
99F400
6CB300
ENDCHAR
STARTCHAR umacron.fina
ENCODING -1
SWIDTH 460 0
DWIDTH 4 0
BBX 4 5 0 0
BITMAP
0BE7
3967
77B6
99F4
6CB3
ENDCHAR
STARTCHAR uogonek.fina
ENCODING -1
SWIDTH 460 0
DWIDTH 4 0
BBX 4 6 0 -2
BITMAP
3967
77B6
99F4
6CC2
02A0
01DA
ENDCHAR
STARTCHAR uring.fina
ENCODING -1
SWIDTH 460 0
DWIDTH 4 0
BBX 4 7 0 0
BITMAP
03D4
0878
04D3
3967
77B6
99F4
6CB3
ENDCHAR
STARTCHAR utilde.fina
ENCODING -1
SWIDTH 460 0
DWIDTH 4 0
BBX 5 7 0 0
BITMAP
052310
2AAB00
000000
396700
77B600
99F400
6CB300
ENDCHAR
STARTCHAR v.fina
ENCODING -1
SWIDTH 420 0
DWIDTH 3 0
BBX 4 4 0 0
BITMAP
8568
96C3
8BB0
5D20
ENDCHAR
STARTCHAR w.fina
ENCODING -1
SWIDTH 666 0
DWIDTH 5 0
BBX 6 4 0 0
BITMAP
858667
96D7C2
8BDBA0
5D5D20
ENDCHAR
STARTCHAR wacute.fina
ENCODING -1
SWIDTH 666 0
DWIDTH 5 0
BBX 6 8 0 0
BITMAP
000330
000B40
002900
000000
858667
96D7C2
8BDBA0
5D5D20
ENDCHAR
STARTCHAR wcircumflex.fina
ENCODING -1
SWIDTH 666 0
DWIDTH 5 0
BBX 6 8 0 0
BITMAP
004D00
00CB30
039740
000000
858667
96D7C2
8BDBA0
5D5D20
ENDCHAR
STARTCHAR wdieresis.fina
ENCODING -1
SWIDTH 666 0
DWIDTH 5 0
BBX 6 6 0 0
BITMAP
02A650
000000
858667
96D7C2
8BDBA0
5D5D20
ENDCHAR
STARTCHAR wgrave.fina
ENCODING -1
SWIDTH 666 0
DWIDTH 5 0
BBX 6 8 0 0
BITMAP
023000
03C000
007300
000000
858667
96D7C2
8BDBA0
5D5D20
ENDCHAR
STARTCHAR x.fina
ENCODING -1
SWIDTH 580 0
DWIDTH 5 0
BBX 5 4 0 0
BITMAP
3E9D40
25F410
A5F160
ADAE60
ENDCHAR
STARTCHAR y.fina
ENCODING -1
SWIDTH 449 0
DWIDTH 4 0
BBX 4 8 0 -4
BITMAP
3967
77B5
9AF3
6CD1
08D0
7990
B950
CB00
ENDCHAR
STARTCHAR yacute.fina
ENCODING -1
SWIDTH 449 0
DWIDTH 4 0
BBX 4 12 0 -4
BITMAP
0015
0069
0091
0000
3967
77B5
9AF3
6CD1
08D0
7990
B950
CB00
ENDCHAR
STARTCHAR ycircumflex.fina
ENCODING -1
SWIDTH 449 0
DWIDTH 4 0
BBX 4 12 0 -4
BITMAP
01D3
07A7
0B39
0000
3967
77B5
9AF3
6CD1
08D0
7990
B950
CB00
ENDCHAR
STARTCHAR ydieresis.fina
ENCODING -1
SWIDTH 449 0
DWIDTH 4 0
BBX 4 10 0 -4
BITMAP
0A49
0000
3967
77B5
9AF3
6CD1
08D0
7990
B950
CB00
ENDCHAR
STARTCHAR uni1EF5.fina
ENCODING -1
SWIDTH 449 0
DWIDTH 4 0
BBX 4 8 0 -4
BITMAP
3967
77B5
9AF3
6CD1
08D0
7990
B950
CB78
ENDCHAR
STARTCHAR ygrave.fina
ENCODING -1
SWIDTH 449 0
DWIDTH 4 0
BBX 4 12 0 -4
BITMAP
0500
0D30
0380
0000
3967
77B5
9AF3
6CD1
08D0
7990
B950
CB00
ENDCHAR
STARTCHAR uni1EF7.fina
ENCODING -1
SWIDTH 449 0
DWIDTH 4 0
BBX 4 11 0 -4
BITMAP
03D4
0047
00D2
3967
77B5
9AF3
6CD1
08D0
7990
B950
CB00
ENDCHAR
STARTCHAR uni0233.fina
ENCODING -1
SWIDTH 449 0
DWIDTH 4 0
BBX 4 9 0 -4
BITMAP
0BE7
3967
77B5
9AF3
6CD1
08D0
7990
B950
CB00
ENDCHAR
STARTCHAR uni1EF9.fina
ENCODING -1
SWIDTH 449 0
DWIDTH 4 0
BBX 5 11 0 -4
BITMAP
052310
2AAB00
000000
396700
77B500
9AF300
6CD100
08D000
799000
B95000
CB0000
ENDCHAR
STARTCHAR z.fina
ENCODING -1
SWIDTH 412 0
DWIDTH 3 0
BBX 4 4 0 0
BITMAP
7EF6
1B80
9800
DEE5
ENDCHAR
STARTCHAR zacute.fina
ENCODING -1
SWIDTH 412 0
DWIDTH 3 0
BBX 4 8 0 0
BITMAP
0024
0096
00A0
0000
7EF6
1B80
9800
DEE5
ENDCHAR
STARTCHAR zcaron.fina
ENCODING -1
SWIDTH 412 0
DWIDTH 3 0
BBX 4 8 0 0
BITMAP
0B2A
0AA5
05B0
0000
7EF6
1B80
9800
DEE5
ENDCHAR
STARTCHAR zdotaccent.fina
ENCODING -1
SWIDTH 412 0
DWIDTH 3 0
BBX 4 6 0 0
BITMAP
04A0
0000
7EF6
1B80
9800
DEE5
ENDCHAR
STARTCHAR iacute_j.loclNLD
ENCODING -1
SWIDTH 479 0
DWIDTH 4 0
BBX 5 12 0 -4
BITMAP
005140
05B870
091A00
000000
396700
77B500
9AF780
6CDA10
08D000
799000
B94000
CB0000
ENDCHAR
STARTCHAR b.ss01
ENCODING -1
SWIDTH 449 0
DWIDTH 4 0
BBX 5 8 0 0
BITMAP
04E300
0C7600
2C9200
5C9000
7DB400
87CC60
789820
2DA000
ENDCHAR
STARTCHAR d.ss01
ENCODING -1
SWIDTH 470 0
DWIDTH 4 0
BBX 5 7 0 0
BITMAP
000D10
002E00
004B00
0AE800
7A9500
A5D480
6E9D30
ENDCHAR
STARTCHAR f.ss01
ENCODING -1
SWIDTH 323 0
DWIDTH 3 0
BBX 6 12 -2 -4
BITMAP
0003E3
000C76
002D65
005A91
0069A0
008D50
009ED7
009600
01A600
0BB400
29D100
1D9000
ENDCHAR
STARTCHAR l.ss01
ENCODING -1
SWIDTH 237 0
DWIDTH 2 0
BBX 3 7 0 0
BITMAP
0B30
0F10
3D00
6900
8700
9690
6E40
ENDCHAR
STARTCHAR lacute.ss01
ENCODING -1
SWIDTH 237 0
DWIDTH 2 0
BBX 4 10 0 0
BITMAP
005C
04A3
0000
0B30
0F10
3D00
6900
8700
9690
6E40
ENDCHAR
STARTCHAR uni013C.ss01
ENCODING -1
SWIDTH 237 0
DWIDTH 2 0
BBX 3 10 0 -3
BITMAP
0B30
0F10
3D00
6900
8700
9690
6E40
0000
6700
7300
ENDCHAR
STARTCHAR uni01C9.ss01
ENCODING -1
SWIDTH 491 0
DWIDTH 4 0
BBX 5 11 0 -4
BITMAP
0B3000
0F6900
3C0000
696800
878600
96C790
6EEB20
07E000
59B000
B77000
AC1000
ENDCHAR
STARTCHAR lslash.ss01
ENCODING -1
SWIDTH 324 0
DWIDTH 3 0
BBX 4 8 0 0
BITMAP
0760
0C40
0FB1
7E30
9900
8700
8737
3EC2
ENDCHAR
STARTCHAR eng.ss01
ENCODING -1
SWIDTH 508 0
DWIDTH 4 0
BBX 5 8 0 -4
BITMAP
49A900
8DB800
9C88A0
76AD30
05F200
39D000
A68000
8D1000
ENDCHAR
STARTCHAR o.ss01
ENCODING -1
SWIDTH 451 0
DWIDTH 4 0
BBX 5 4 0 0
BITMAP
2CE910
969B50
A5A400
4DA000
ENDCHAR
STARTCHAR oacute.ss01
ENCODING -1
SWIDTH 451 0
DWIDTH 4 0
BBX 5 8 0 0
BITMAP
002300
00A500
019000
000000
2CE910
969B50
A5A400
4DA000
ENDCHAR
STARTCHAR obreve.ss01
ENCODING -1
SWIDTH 451 0
DWIDTH 4 0
BBX 5 6 0 0
BITMAP
582B00
1BD400
2CE910
969B50
A5A400
4DA000
ENDCHAR
STARTCHAR ocircumflex.ss01
ENCODING -1
SWIDTH 451 0
DWIDTH 4 0
BBX 5 8 0 0
BITMAP
03D000
0BA400
2A6500
000000
2CE910
969B50
A5A400
4DA000
ENDCHAR
STARTCHAR uni1ED1.ss01
ENCODING -1
SWIDTH 451 0
DWIDTH 4 0
BBX 5 8 0 0
BITMAP
000670
07D610
2C8500
000000
2CE910
969B50
A5A400
4DA000
ENDCHAR
STARTCHAR uni1ED9.ss01
ENCODING -1
SWIDTH 451 0
DWIDTH 4 0
BBX 5 10 0 -2
BITMAP
03D000
0BA400
2A6500
000000
2CE910
969B50
A5A400
4DA000
000000
0B2000
ENDCHAR
STARTCHAR uni1ED3.ss01
ENCODING -1
SWIDTH 451 0
DWIDTH 4 0
BBX 5 8 0 0
BITMAP
C20000
2AD100
2C8500
000000
2CE910
969B50
A5A400
4DA000
ENDCHAR
STARTCHAR uni1ED5.ss01
ENCODING -1
SWIDTH 451 0
DWIDTH 4 0
BBX 5 7 0 0
BITMAP
000C70
05C960
1DA500
3FFB10
969B50
A5A400
4DA000
ENDCHAR
STARTCHAR uni1ED7.ss01
ENCODING -1
SWIDTH 451 0
DWIDTH 4 0
BBX 5 8 0 0
BITMAP
0B9900
05A100
1B8500
000000
2CE910
969B50
A5A400
4DA000
ENDCHAR
STARTCHAR uni020D.ss01
ENCODING -1
SWIDTH 451 0
DWIDTH 4 0
BBX 5 8 0 0
BITMAP
524000
98C000
289100
000000
2CE910
969B50
A5A400
4DA000
ENDCHAR
STARTCHAR odieresis.ss01
ENCODING -1
SWIDTH 451 0
DWIDTH 4 0
BBX 5 6 0 0
BITMAP
2A6600
000000
2CE910
969B50
A5A400
4DA000
ENDCHAR
STARTCHAR uni022B.ss01
ENCODING -1
SWIDTH 451 0
DWIDTH 4 0
BBX 5 7 0 0
BITMAP
0BE700
2A6600
000000
2CE910
969B50
A5A400
4DA000
ENDCHAR
STARTCHAR uni0231.ss01
ENCODING -1
SWIDTH 451 0
DWIDTH 4 0
BBX 5 7 0 0
BITMAP
0BE700
059000
000000
2CE910
969B50
A5A400
4DA000
ENDCHAR
STARTCHAR uni1ECD.ss01
ENCODING -1
SWIDTH 451 0
DWIDTH 4 0
BBX 5 6 0 -2
BITMAP
2CE910
969B50
A5A400
4DA000
000000
0B2000
ENDCHAR
STARTCHAR ograve.ss01
ENCODING -1
SWIDTH 451 0
DWIDTH 4 0
BBX 5 8 0 0
BITMAP
140000
2D0000
064000
000000
2CE910
969B50
A5A400
4DA000
ENDCHAR
STARTCHAR uni1ECF.ss01
ENCODING -1
SWIDTH 451 0
DWIDTH 4 0
BBX 5 7 0 0
BITMAP
07D100
008400
03C100
2CE910
969B50
A5A400
4DA000
ENDCHAR
STARTCHAR ohorn.ss01
ENCODING -1
SWIDTH 451 0
DWIDTH 4 0
BBX 5 5 0 0
BITMAP
000B00
2CFD10
969B50
A5A400
4DA000
ENDCHAR
STARTCHAR uni1EDB.ss01
ENCODING -1
SWIDTH 451 0
DWIDTH 4 0
BBX 5 8 0 0
BITMAP
003200
00C300
037000
000B00
2CFD10
969B50
A5A400
4DA000
ENDCHAR
STARTCHAR uni1EE3.ss01
ENCODING -1
SWIDTH 451 0
DWIDTH 4 0
BBX 5 7 0 -2
BITMAP
000B00
2CFD10
969B50
A5A400
4DA000
000000
0B2000
ENDCHAR
STARTCHAR uni1EDD.ss01
ENCODING -1
SWIDTH 451 0
DWIDTH 4 0
BBX 5 8 0 0
BITMAP
330000
4B0000
082000
000B00
2CFD10
969B50
A5A400
4DA000
ENDCHAR
STARTCHAR uni1EDF.ss01
ENCODING -1
SWIDTH 451 0
DWIDTH 4 0
BBX 5 7 0 0
BITMAP
09C000
00A100
06AB00
2CFD10
969B50
A5A400
4DA000
ENDCHAR
STARTCHAR uni1EE1.ss01
ENCODING -1
SWIDTH 451 0
DWIDTH 4 0
BBX 5 7 0 0
BITMAP
051300
4DB500
316B00
2CFD10
969B50
A5A400
4DA000
ENDCHAR
STARTCHAR ohungarumlaut.ss01
ENCODING -1
SWIDTH 451 0
DWIDTH 4 0
BBX 5 8 0 0
BITMAP
023500
088D00
0A6400
000000
2CE910
969B50
A5A400
4DA000
ENDCHAR
STARTCHAR uni020F.ss01
ENCODING -1
SWIDTH 451 0
DWIDTH 4 0
BBX 5 7 0 0
BITMAP
1BD500
572A00
000000
2CE910
969B50
A5A400
4DA000
ENDCHAR
STARTCHAR omacron.ss01
ENCODING -1
SWIDTH 451 0
DWIDTH 4 0
BBX 5 5 0 0
BITMAP
1DE400
2CE910
969B50
A5A400
4DA000
ENDCHAR
STARTCHAR uni01EB.ss01
ENCODING -1
SWIDTH 451 0
DWIDTH 4 0
BBX 5 6 0 -2
BITMAP
2CE910
969A50
A6A400
3E9000
0C0000
0AB000
ENDCHAR
STARTCHAR oslash.ss01
ENCODING -1
SWIDTH 451 0
DWIDTH 4 0
BBX 5 6 0 -1
BITMAP
008000
2CFB20
9AC830
ADD300
3E8000
080000
ENDCHAR
STARTCHAR oslashacute.ss01
ENCODING -1
SWIDTH 451 0
DWIDTH 4 0
BBX 5 9 0 -1
BITMAP
005000
069000
091000
008000
2CFB20
9AC830
ADD300
3E8000
080000
ENDCHAR
STARTCHAR otilde.ss01
ENCODING -1
SWIDTH 451 0
DWIDTH 4 0
BBX 5 7 0 0
BITMAP
061400
68B900
000000
2CE910
969B50
A5A400
4DA000
ENDCHAR
STARTCHAR uni022D.ss01
ENCODING -1
SWIDTH 451 0
DWIDTH 4 0
BBX 5 7 0 0
BITMAP
0FFC00
68B900
000000
2CE910
969B50
A5A400
4DA000
ENDCHAR
STARTCHAR p.ss01
ENCODING -1
SWIDTH 500 0
DWIDTH 4 0
BBX 6 8 -1 -4
BITMAP
03B9A0
04FA90
05A879
0A86E5
4D6000
9A4000
9C1000
B90000
ENDCHAR
STARTCHAR t.ss01
ENCODING -1
SWIDTH 343 0
DWIDTH 3 0
BBX 4 7 0 0
BITMAP
0420
0C40
0F10
BFC1
5A00
6917
2DC3
ENDCHAR
STARTCHAR uni0163.ss01
ENCODING -1
SWIDTH 343 0
DWIDTH 3 0
BBX 4 9 0 -2
BITMAP
0420
0D30
1F10
BFD1
5A00
6917
2FD3
04B0
6D50
ENDCHAR
STARTCHAR uni021B.ss01
ENCODING -1
SWIDTH 343 0
DWIDTH 3 0
BBX 4 10 0 -3
BITMAP
0420
0C40
0F10
BFC1
5A00
6917
2DC3
0000
0940
0910
ENDCHAR
STARTCHAR z.ss01
ENCODING -1
SWIDTH 432 0
DWIDTH 3 0
BBX 6 8 -1 -3
BITMAP
045130
05BF50
01C400
07C4B3
00CC10
09B800
38B300
2C6000
ENDCHAR
STARTCHAR zacute.ss01
ENCODING -1
SWIDTH 432 0
DWIDTH 3 0
BBX 6 11 -1 -3
BITMAP
000330
000B50
001900
045130
05BF50
01C400
07C4B3
00CC10
09B800
38B300
2C6000
ENDCHAR
STARTCHAR zcaron.ss01
ENCODING -1
SWIDTH 432 0
DWIDTH 3 0
BBX 6 11 -1 -3
BITMAP
00B290
00BA40
007A00
045130
05BF50
01C400
07C4B3
00CC10
09B800
38B300
2C6000
ENDCHAR
STARTCHAR zdotaccent.ss01
ENCODING -1
SWIDTH 432 0
DWIDTH 3 0
BBX 6 9 -1 -3
BITMAP
005900
045130
05BF50
01C400
07C4B3
00CC10
09B800
38B300
2C6000
ENDCHAR
STARTCHAR f_f
ENCODING -1
SWIDTH 684 0
DWIDTH 5 0
BBX 7 11 0 -3
BITMAP
01D66D10
087AC930
0D6D8B10
2CCB6C00
5F7DD600
7DDF9000
8A7E9D30
998E9000
888E9000
7A7EA000
2D289000
ENDCHAR
STARTCHAR f_j
ENCODING -1
SWIDTH 633 0
DWIDTH 5 0
BBX 6 11 0 -3
BITMAP
00AB00
059C00
0B6BC1
0EC200
AFEEA0
4B25A0
59A688
5AA8E6
4BAA50
1C5D20
000C00
ENDCHAR
STARTCHAR lslash_lslash
ENCODING -1
SWIDTH 654 0
DWIDTH 5 0
BBX 8 9 0 0
BITMAP
03ACDDC2
0B710000
05E3AC00
0D7B9B00
4A8D5B00
69AC7600
8E3EB000
792E3620
2DC8E900
ENDCHAR
STARTCHAR t_t
ENCODING -1
SWIDTH 706 0
DWIDTH 6 0
BBX 7 8 0 0
BITMAP
01C46B00
0888BB00
0C7A8B00
0DB8B600
CFEFEC00
4B0C3000
3C1D5260
0BD7DC20
ENDCHAR
STARTCHAR f_j.fina
ENCODING -1
SWIDTH 624 0
DWIDTH 5 0
BBX 6 11 0 -3
BITMAP
00AB00
059C00
0B6BC1
0EC200
AFEEA0
4B25A0
59A680
5AA860
4BAA50
1C5D20
000B00
ENDCHAR
STARTCHAR fi.fina
ENCODING -1
SWIDTH 603 0
DWIDTH 5 0
BBX 6 11 0 -3
BITMAP
00AB00
059C00
0A6AC2
0EC200
AFEEB0
4B5790
5AA970
69AA40
5AA000
3B9000
0C5000
ENDCHAR
STARTCHAR fl.fina
ENCODING -1
SWIDTH 730 0
DWIDTH 6 0
BBX 7 11 0 -3
BITMAP
01C75E20
077AC840
0D5BB830
2D888B00
5D789800
7B0AD100
8BBD7100
9B53EB00
89700000
7A700000
2D200000
ENDCHAR
STARTCHAR f_ij.loclNLD.fina
ENCODING -1
SWIDTH 837 0
DWIDTH 7 0
BBX 7 12 0 -4
BITMAP
00AB0000
059C0000
0A6AC5C0
0EC20000
AFEEA480
4B469960
5AA78E40
69A5DC20
5AA04D00
3B94AB00
0C5B7600
000BC100
ENDCHAR
STARTCHAR i_j.loclNLD.fina
ENCODING -1
SWIDTH 451 0
DWIDTH 4 0
BBX 4 10 0 -4
BITMAP
1C5B
0000
3967
77B5
9AF3
6CD1
08D0
7990
B950
CB00
ENDCHAR
STARTCHAR t_t.ss01.fina
ENCODING -1
SWIDTH 666 0
DWIDTH 5 0
BBX 6 7 0 0
BITMAP
042240
0C4880
0F1B50
BFDFD5
5A1E00
695E01
3EABE4
ENDCHAR
STARTCHAR I_J.loclNLD
ENCODING -1
SWIDTH 776 0
DWIDTH 6 0
BBX 6 7 0 0
BITMAP
0A502C
0D504D
0F208B
1F23EA
0BFDA7
1322D2
1CED50
ENDCHAR
STARTCHAR f_ij.loclNLD
ENCODING -1
SWIDTH 865 0
DWIDTH 7 0
BBX 8 12 0 -4
BITMAP
00590000
056D0000
0A7AC5C0
0ED20000
AFEEA480
4B369970
5AA78E56
69A5DCC3
5AA04E10
3B94AB00
0C5B7600
000BB000
ENDCHAR
STARTCHAR i_j.loclNLD
ENCODING -1
SWIDTH 479 0
DWIDTH 4 0
BBX 5 10 0 -4
BITMAP
1C5B00
000000
396700
77B500
9AF780
6CDA10
08D000
799000
B94000
CB0000
ENDCHAR
STARTCHAR t_t.ss01
ENCODING -1
SWIDTH 632 0
DWIDTH 5 0
BBX 6 7 0 0
BITMAP
042240
0C4880
0F1B50
BFDFD5
5A1E00
695E08
3EABD6
ENDCHAR
STARTCHAR uni0410.ss01
ENCODING -1
SWIDTH 780 0
DWIDTH 6 0
BBX 7 7 0 0
BITMAP
005BED60
06D42800
1E306B00
6C00A800
8A00E600
6C07F400
1BE9D200
ENDCHAR
STARTCHAR uni0411.ss01
ENCODING -1
SWIDTH 881 0
DWIDTH 7 0
BBX 6 8 1 -1
BITMAP
3EFEE6
09A000
0A7000
3EEED5
4F206D
2F006C
4E28D4
142510
ENDCHAR
STARTCHAR uni0412.ss01
ENCODING -1
SWIDTH 826 0
DWIDTH 7 0
BBX 7 7 0 0
BITMAP
06DED910
04301D60
0A704E40
0D3DF500
1F106D00
3D019B00
3EEEA200
ENDCHAR
STARTCHAR uni0413.ss01
ENCODING -1
SWIDTH 634 0
DWIDTH 5 0
BBX 6 7 1 0
BITMAP
3EEEEA
089000
0B7000
0D4000
1F2000
3F0000
3C0000
ENDCHAR
STARTCHAR uni0403.ss01
ENCODING -1
SWIDTH 634 0
DWIDTH 5 0
BBX 6 10 1 0
BITMAP
0005C0
004A20
000000
3EEEEA
089000
0B7000
0D4000
1F2000
3F0000
3C0000
ENDCHAR
STARTCHAR uni0490.ss01
ENCODING -1
SWIDTH 639 0
DWIDTH 5 0
BBX 7 9 1 0
BITMAP
00000B10
00000E00
4FFFEA00
09A00000
0A700000
0D400000
0F200000
3F000000
3C000000
ENDCHAR
STARTCHAR uni0414.ss01
ENCODING -1
SWIDTH 836 0
DWIDTH 7 0
BBX 7 7 0 0
BITMAP
29DEC500
66405F30
07A00B70
0A600B70
0D401E40
1F22AB00
1EED8100
ENDCHAR
STARTCHAR uni0415.ss01
ENCODING -1
SWIDTH 720 0
DWIDTH 6 0
BBX 6 7 0 0
BITMAP
03CED3
0E507A
0E5056
08FA00
6C1000
9B0057
2BED91
ENDCHAR
STARTCHAR uni0400.ss01
ENCODING -1
SWIDTH 720 0
DWIDTH 6 0
BBX 6 10 0 0
BITMAP
05B100
007A00
000000
03CED3
0E507A
0E5056
08FA00
6C1000
9B0057
2BED91
ENDCHAR
STARTCHAR uni0401.ss01
ENCODING -1
SWIDTH 720 0
DWIDTH 6 0
BBX 6 9 0 0
BITMAP
0066A2
000000
03CED3
0E507A
0E5056
08FA00
6C1000
9B0057
2BED91
ENDCHAR
STARTCHAR uni0416.ss01
ENCODING -1
SWIDTH 1196 0
DWIDTH 10 0
BBX 10 7 0 0
BITMAP
0CD22C05D7
00885C1D20
002D7BA900
001CFFA000
00C7B6D400
15C0D37C10
BD20E11CE3
ENDCHAR
STARTCHAR uni0417.ss01
ENCODING -1
SWIDTH 725 0
DWIDTH 6 0
BBX 6 7 0 0
BITMAP
04CEB0
0D40E2
0503C0
00ABC2
3400B7
7A03E4
1BED60
ENDCHAR
STARTCHAR uni0418.ss01
ENCODING -1
SWIDTH 800 0
DWIDTH 6 0
BBX 7 7 0 0
BITMAP
07800D10
0A702F10
0C505E00
0E209C00
2F01EA00
3E2BC700
1DE6A400
ENDCHAR
STARTCHAR uni0419.ss01
ENCODING -1
SWIDTH 800 0
DWIDTH 6 0
BBX 7 9 0 0
BITMAP
00242400
003ED400
07800D10
0A702F10
0C505E00
0E209C00
2F01EA00
3E2BC700
1DE6A400
ENDCHAR
STARTCHAR uni040D.ss01
ENCODING -1
SWIDTH 800 0
DWIDTH 6 0
BBX 7 10 0 0
BITMAP
03C20000
005B0000
00000000
07800D10
0A702F10
0C505E00
0E209C00
2F01EA00
3E2BC700
1DE6A400
ENDCHAR
STARTCHAR uni048A.ss01
ENCODING -1
SWIDTH 815 0
DWIDTH 7 0
BBX 7 9 0 -2
BITMAP
07800D10
0A702F10
0C505E00
0E209C00
2F01EA00
3E3BC800
1DE6AF40
00008900
0000C100
ENDCHAR
STARTCHAR uni041A.ss01
ENCODING -1
SWIDTH 779 0
DWIDTH 6 0
BBX 7 7 0 0
BITMAP
06901D10
09808A00
0C65D100
5FFC1000
1F2E4000
3E08B000
4B01CD20
ENDCHAR
STARTCHAR uni040C.ss01
ENCODING -1
SWIDTH 779 0
DWIDTH 6 0
BBX 7 10 0 0
BITMAP
00004D00
0002B300
00000000
06901D10
09808A00
0C65D100
5FFC1000
1F2E4000
3E08B000
4B01CD20
ENDCHAR
STARTCHAR uni041B.ss01
ENCODING -1
SWIDTH 706 0
DWIDTH 6 0
BBX 7 7 -1 0
BITMAP
0000C500
0004F600
0009F500
000EC500
006BB600
02D48900
2E702D50
ENDCHAR
STARTCHAR uni041C.ss01
ENCODING -1
SWIDTH 967 0
DWIDTH 8 0
BBX 8 7 0 0
BITMAP
009906C0
00EA0DD0
03EB4DC0
06BBA9B0
0A7DE5B0
2E1FA3D0
D70B40C7
ENDCHAR
STARTCHAR uni041D.ss01
ENCODING -1
SWIDTH 846 0
DWIDTH 7 0
BBX 7 7 0 0
BITMAP
05A00A50
08900D40
0A700F20
6FEEEF80
0F205C00
2F007A00
3C008700
ENDCHAR
STARTCHAR uni041E.ss01
ENCODING -1
SWIDTH 816 0
DWIDTH 7 0
BBX 7 7 0 0
BITMAP
01AED500
0B804F20
3E000D50
6B000D50
7B001F20
3E20AA00
07ED9000
ENDCHAR
STARTCHAR uni041F.ss01
ENCODING -1
SWIDTH 847 0
DWIDTH 7 0
BBX 7 7 0 0
BITMAP
2EFEEFD0
08900F20
0A702E00
0C505C00
0E207A00
2F009800
2C00A500
ENDCHAR
STARTCHAR uni0420.ss01
ENCODING -1
SWIDTH 662 0
DWIDTH 5 0
BBX 6 7 0 0
BITMAP
1BED70
19A2E3
0980D4
0B66D1
6FC920
1F1000
2D0000
ENDCHAR
STARTCHAR uni0421.ss01
ENCODING -1
SWIDTH 704 0
DWIDTH 6 0
BBX 6 7 0 0
BITMAP
019ED3
0B8088
3E0055
6B0000
7B0000
3F3057
06DD91
ENDCHAR
STARTCHAR uni0422.ss01
ENCODING -1
SWIDTH 631 0
DWIDTH 5 0
BBX 6 7 0 0
BITMAP
4DEFEA
008900
00A700
00D400
00F200
02F000
03C000
ENDCHAR
STARTCHAR uni0423.ss01
ENCODING -1
SWIDTH 776 0
DWIDTH 6 0
BBX 6 7 0 0
BITMAP
0A502C
0D504D
0F208B
1F23EA
0BFDA7
1322D2
1CED50
ENDCHAR
STARTCHAR uni040E.ss01
ENCODING -1
SWIDTH 776 0
DWIDTH 6 0
BBX 6 9 0 0
BITMAP
004233
005EC2
0A502C
0D504D
0F208B
1F23EA
0BFDA7
1322D2
1CED50
ENDCHAR
STARTCHAR uni0424.ss01
ENCODING -1
SWIDTH 978 0
DWIDTH 8 0
BBX 8 8 0 -1
BITMAP
0000D000
05DCE8E4
1E36F77A
5C05C07A
7A097098
7A4F91E3
2DABCD70
000B2000
ENDCHAR
STARTCHAR uni0425.ss01
ENCODING -1
SWIDTH 677 0
DWIDTH 5 0
BBX 7 7 -1 0
BITMAP
00C405B0
007B3E30
001ED400
000CA000
009AE200
07C0A800
3D203D00
ENDCHAR
STARTCHAR uni0427.ss01
ENCODING -1
SWIDTH 773 0
DWIDTH 6 0
BBX 6 7 0 0
BITMAP
0A502C
0C505C
0E309A
1F23E9
0BFDA7
0010B5
0000B3
ENDCHAR
STARTCHAR uni0426.ss01
ENCODING -1
SWIDTH 822 0
DWIDTH 7 0
BBX 7 10 0 -3
BITMAP
07800D10
0A702F10
0C505D00
0E209B00
2F01E900
3E2BBB10
1DE66F40
00006D30
00078D00
0007D600
ENDCHAR
STARTCHAR uni0428.ss01
ENCODING -1
SWIDTH 1174 0
DWIDTH 9 0
BBX 10 7 0 0
BITMAP
07803B00D1
0A706B02F0
0C508805D0
0E20C50AB0
2F03F21E80
3E3BD4AC60
1DD49E6B30
ENDCHAR
STARTCHAR uni0429.ss01
ENCODING -1
SWIDTH 1194 0
DWIDTH 10 0
BBX 10 10 0 -3
BITMAP
07803B00D1
0A706B02F0
0C508805D0
0E20C50AB0
2F03F21E90
3E3BD4ABA1
1DD49E67F4
00000006D2
00000078D0
0000007D60
ENDCHAR
STARTCHAR uni040F.ss01
ENCODING -1
SWIDTH 800 0
DWIDTH 6 0
BBX 7 9 0 -2
BITMAP
07800D10
0A702F10
0C505E00
0E209C00
2F01EA00
3E3BB700
1DF6A400
00E20000
00600000
ENDCHAR
STARTCHAR uni042C.ss01
ENCODING -1
SWIDTH 721 0
DWIDTH 6 0
BBX 6 7 0 0
BITMAP
068000
0A6000
0ECDC2
9F10A9
2E0089
0E21D4
06DD60
ENDCHAR
STARTCHAR uni042A.ss01
ENCODING -1
SWIDTH 863 0
DWIDTH 7 0
BBX 7 7 0 0
BITMAP
1DEE3000
006B0000
01CDDC40
07F308B0
00F106B0
00D41C60
005DD800
ENDCHAR
STARTCHAR uni042B.ss01
ENCODING -1
SWIDTH 1078 0
DWIDTH 9 0
BBX 9 7 0 0
BITMAP
0680000A40
0A60000D40
0ECDC20F10
9F10A93E00
2E00895C00
0E21D47A00
06DD608700
ENDCHAR
STARTCHAR uni0409.ss01
ENCODING -1
SWIDTH 998 0
DWIDTH 8 0
BBX 9 7 -1 0
BITMAP
0000C50000
0004F60000
0008F50000
000EDBDD50
005CB606C0
01D59808A0
2E802CEB10
ENDCHAR
STARTCHAR uni040A.ss01
ENCODING -1
SWIDTH 1102 0
DWIDTH 9 0
BBX 9 7 0 0
BITMAP
05A0590000
0890A60000
0A96DDDC30
6F96F00AA0
0F11F008A0
2F00E21D50
3C006DD700
ENDCHAR
STARTCHAR uni0405.ss01
ENCODING -1
SWIDTH 693 0
DWIDTH 6 0
BBX 6 7 0 0
BITMAP
06CEB2
1F2098
1F5043
05DC40
5205F2
A601E2
3CED60
ENDCHAR
STARTCHAR uni0404.ss01
ENCODING -1
SWIDTH 704 0
DWIDTH 6 0
BBX 6 7 0 0
BITMAP
019ED3
0B9088
3E0054
6FED00
7B0000
3F3057
06DD91
ENDCHAR
STARTCHAR uni042D.ss01
ENCODING -1
SWIDTH 755 0
DWIDTH 6 0
BBX 6 7 0 0
BITMAP
07DEA1
2910B9
00005D
03EEED
32008A
9803E3
3CEC40
ENDCHAR
STARTCHAR uni0406.ss01
ENCODING -1
SWIDTH 357 0
DWIDTH 3 0
BBX 3 7 0 0
BITMAP
0780
0A70
0C50
0E20
2F00
4D00
5A00
ENDCHAR
STARTCHAR uni0407.ss01
ENCODING -1
SWIDTH 357 0
DWIDTH 3 0
BBX 4 9 0 0
BITMAP
1B57
0000
0780
0A70
0C50
0E20
2F00
4D00
5A00
ENDCHAR
STARTCHAR uni0408.ss01
ENCODING -1
SWIDTH 716 0
DWIDTH 6 0
BBX 6 7 0 0
BITMAP
08DDD8
4B00D4
3800F2
0002F0
0004C0
580970
1BEA10
ENDCHAR
STARTCHAR uni040B.ss01
ENCODING -1
SWIDTH 884 0
DWIDTH 7 0
BBX 7 7 0 0
BITMAP
4DEFEA00
008A0000
00B70000
00D9DE40
00F90990
02F10990
03C00960
ENDCHAR
STARTCHAR uni042E.ss01
ENCODING -1
SWIDTH 1166 0
DWIDTH 9 0
BBX 10 7 0 0
BITMAP
06A02BED30
0890D606D0
0A75B001F2
6FEF8000F2
0F2A8004D0
2F06D11C60
3C009ED700
ENDCHAR
STARTCHAR uni042F.ss01
ENCODING -1
SWIDTH 827 0
DWIDTH 7 0
BBX 7 7 0 0
BITMAP
009EDD40
06B00E30
07B05F10
01AEFE00
0007BD00
005D4C00
3DC23B00
ENDCHAR
STARTCHAR uni0402.ss01
ENCODING -1
SWIDTH 843 0
DWIDTH 7 0
BBX 7 11 0 -4
BITMAP
4DEFEA00
00890000
00A70000
00D8DE40
00F90990
02F10980
03C00C60
00009F30
0007BE00
000D7800
000BC100
ENDCHAR
STARTCHAR uni0462.ss01
ENCODING -1
SWIDTH 721 0
DWIDTH 6 0
BBX 6 7 0 0
BITMAP
068000
6EE700
0DDDC2
7F10A9
2E0089
0E21D4
06DD60
ENDCHAR
STARTCHAR uni046A.ss01
ENCODING -1
SWIDTH 1196 0
DWIDTH 10 0
BBX 10 7 0 0
BITMAP
0CFEEEEFE5
0089001E20
002D11A900
001CFFA000
00C7B6E400
05C0D37B00
AD30E11CD3
ENDCHAR
STARTCHAR uni0472.ss01
ENCODING -1
SWIDTH 816 0
DWIDTH 7 0
BBX 7 7 0 0
BITMAP
01AED500
0B904F20
3E000D50
6EDDEF50
7B002F20
3E20AA00
07EE9000
ENDCHAR
STARTCHAR uni0474.ss01
ENCODING -1
SWIDTH 797 0
DWIDTH 6 0
BBX 7 7 1 0
BITMAP
A5009EB0
D400E410
E302F100
F207A000
E30D4000
B98B0000
4EB10000
ENDCHAR
STARTCHAR uni0492.ss01
ENCODING -1
SWIDTH 634 0
DWIDTH 5 0
BBX 6 7 1 0
BITMAP
3EEEEA
089000
0B7000
9FE300
0F2000
3F0000
3C0000
ENDCHAR
STARTCHAR uni0494.ss01
ENCODING -1
SWIDTH 889 0
DWIDTH 7 0
BBX 6 11 1 -4
BITMAP
3EEEEA
089000
0B7000
0D8CE4
1F9099
3F1098
3C00C6
0009F3
007BE0
00D790
00BC10
ENDCHAR
STARTCHAR uni0496.ss01
ENCODING -1
SWIDTH 1186 0
DWIDTH 9 0
BBX 10 10 0 -3
BITMAP
0CD22C05D7
00885C1D20
002D7BA900
001CFFA000
00C7B6D400
15C0D37C20
BD20E10AF1
0000003CE0
000000C7A0
000000AD30
ENDCHAR
STARTCHAR uni0498.ss01
ENCODING -1
SWIDTH 725 0
DWIDTH 6 0
BBX 6 10 0 -3
BITMAP
04CEB0
0D40E2
0503C0
00ABC2
3400B7
7A03E5
1CEF80
02CE20
0A7D00
07E500
ENDCHAR
STARTCHAR uni049A.ss01
ENCODING -1
SWIDTH 779 0
DWIDTH 6 0
BBX 7 10 0 -3
BITMAP
06901D10
09808A00
0C65D200
5FFC1000
1F2E4000
3E08B200
4B01DA00
0007E800
003D9500
002DA000
ENDCHAR
STARTCHAR uni049C.ss01
ENCODING -1
SWIDTH 779 0
DWIDTH 6 0
BBX 7 7 0 0
BITMAP
06901D10
09818A00
0C9BD100
5FFC1000
1F8F4000
3E89B000
4B01CD20
ENDCHAR
STARTCHAR uni049E.ss01
ENCODING -1
SWIDTH 779 0
DWIDTH 6 0
BBX 7 7 0 0
BITMAP
06901D10
2DD68A00
0B65D100
5FFC1000
1F2E4000
3E08B000
4B01CD20
ENDCHAR
STARTCHAR uni04A0.ss01
ENCODING -1
SWIDTH 964 0
DWIDTH 8 0
BBX 7 7 1 0
BITMAP
DDF40870
02F01E30
04C2B700
0CFF5000
0988B000
0B61E400
0B306E70
ENDCHAR
STARTCHAR uni04A2.ss01
ENCODING -1
SWIDTH 846 0
DWIDTH 7 0
BBX 7 10 0 -3
BITMAP
05A00A50
08900D40
0A700F20
6FEEEF80
0F205C00
2F007C20
3C003D70
00009E50
0006AC20
0004E800
ENDCHAR
STARTCHAR uni04A4.ss01
ENCODING -1
SWIDTH 1026 0
DWIDTH 8 0
BBX 9 7 0 0
BITMAP
06A00AED60
08900D4000
0A700F2000
6FEEEF8000
0F205C0000
2F007A0000
3C00870000
ENDCHAR
STARTCHAR uni0524.ss01
ENCODING -1
SWIDTH 892 0
DWIDTH 7 0
BBX 7 10 0 -3
BITMAP
2EFEEFD0
08900F20
0A702E00
0C505C00
0E208900
2F009B20
2C002D50
0001BE30
00088D00
0006E600
ENDCHAR
STARTCHAR uni04A8.ss01
ENCODING -1
SWIDTH 997 0
DWIDTH 8 0
BBX 9 7 0 0
BITMAP
01BD6DC300
0B94E38C00
3E09802F00
6B0B703F00
7C09908A00
3F54F9D480
05DFDCEC60
ENDCHAR
STARTCHAR uni04AA.ss01
ENCODING -1
SWIDTH 704 0
DWIDTH 6 0
BBX 6 11 0 -4
BITMAP
019ED3
0B8088
3E0055
6B0000
7B0000
3F3057
06DED7
0003E5
002AC1
0076B0
006E40
ENDCHAR
STARTCHAR uni04AC.ss01
ENCODING -1
SWIDTH 697 0
DWIDTH 6 0
BBX 6 10 1 -3
BITMAP
8DEED6
00C500
00F200
02E000
05C000
07A000
08E300
1BE300
98D000
7E6000
ENDCHAR
STARTCHAR uni04AE.ss01
ENCODING -1
SWIDTH 677 0
DWIDTH 5 0
BBX 5 7 1 0
BITMAP
C405B0
8A1D40
2F9A00
0BE200
07A000
079000
077000
ENDCHAR
STARTCHAR uni04B0.ss01
ENCODING -1
SWIDTH 677 0
DWIDTH 5 0
BBX 5 7 1 0
BITMAP
C405B0
8A1D40
2F9A00
0AE100
5EF700
079000
077000
ENDCHAR
STARTCHAR uni04B2.ss01
ENCODING -1
SWIDTH 677 0
DWIDTH 5 0
BBX 7 10 -1 -3
BITMAP
00C405B0
007B3E30
001ED400
000CA000
00AAE200
08C0A910
3D202E80
00009E60
0005BB30
0004D900
ENDCHAR
STARTCHAR uni04B4.ss01
ENCODING -1
SWIDTH 965 0
DWIDTH 8 0
BBX 8 10 0 -3
BITMAP
4DEFD3B3
008900F3
00A702F1
00D407E0
00F20CC0
01F17CB1
00BE84F7
000004C5
00005AC2
00005D80
ENDCHAR
STARTCHAR uni04B6.ss01
ENCODING -1
SWIDTH 804 0
DWIDTH 6 0
BBX 7 10 0 -3
BITMAP
0A502C00
0C505D00
0E309B00
1F23E900
0CFDA700
0020A700
00009F20
00007E10
00098C00
0009D400
ENDCHAR
STARTCHAR uni04B8.ss01
ENCODING -1
SWIDTH 773 0
DWIDTH 6 0
BBX 6 7 0 0
BITMAP
0A502C
0C505C
0F579A
1F7AE9
0AFB97
0072B5
0000B3
ENDCHAR
STARTCHAR uni04BA.ss01
ENCODING -1
SWIDTH 744 0
DWIDTH 6 0
BBX 6 7 0 0
BITMAP
078000
0A7000
0C5000
0E8DE3
2F80A7
4E00B7
5A00A5
ENDCHAR
STARTCHAR uni0526.ss01
ENCODING -1
SWIDTH 818 0
DWIDTH 7 0
BBX 7 10 0 -3
BITMAP
05A00000
09900000
0C600000
0E8DE300
2F90A800
4E00B910
4B00AF40
00019E20
00098D00
0007D600
ENDCHAR
STARTCHAR uni0528.ss01
ENCODING -1
SWIDTH 846 0
DWIDTH 7 0
BBX 9 10 -2 -3
BITMAP
0005A00A50
0008900D40
000A700F20
006FEEEF80
000F205C00
002F007A00
004D008700
007A000000
35C5000000
3EA0000000
ENDCHAR
STARTCHAR uni052E.ss01
ENCODING -1
SWIDTH 706 0
DWIDTH 6 0
BBX 7 10 -1 -3
BITMAP
0000C500
0004F600
0008F500
000EC500
005BB500
01D49810
2D703E90
00008E70
0004BA30
0003D900
ENDCHAR
STARTCHAR uni04BC.ss01
ENCODING -1
SWIDTH 824 0
DWIDTH 7 0
BBX 7 7 0 0
BITMAP
002AEC20
00C80980
36E00880
5EFEED40
07B00000
03F40110
005DED40
ENDCHAR
STARTCHAR uni04BE.ss01
ENCODING -1
SWIDTH 824 0
DWIDTH 7 0
BBX 7 9 0 -2
BITMAP
002AEC20
00C80980
36E00880
5EFEED40
07B00000
03F40110
006FED40
00580000
003D8000
ENDCHAR
STARTCHAR uni04C0.ss01
ENCODING -1
SWIDTH 357 0
DWIDTH 3 0
BBX 3 7 0 0
BITMAP
0780
0A70
0C50
0E20
2F00
4D00
5A00
ENDCHAR
STARTCHAR uni04C1.ss01
ENCODING -1
SWIDTH 1196 0
DWIDTH 10 0
BBX 10 9 0 0
BITMAP
0000515100
00009EA000
0CD22C05D7
00885C1D20
002D7BA900
001CFFA000
00C7B6D400
15C0D37C10
BD20E11CE3
ENDCHAR
STARTCHAR uni04C3.ss01
ENCODING -1
SWIDTH 779 0
DWIDTH 6 0
BBX 7 10 0 -3
BITMAP
06901D10
09808A00
0C65D200
5FFC1000
1F2E4000
3E08B200
4B01DA00
0007E800
003D9500
002DA000
ENDCHAR
STARTCHAR uni04C5.ss01
ENCODING -1
SWIDTH 706 0
DWIDTH 6 0
BBX 7 9 -1 -2
BITMAP
0000C500
0004F600
0008F500
000EC500
005BB600
01D49900
2E703E80
00003E20
00008500
ENDCHAR
STARTCHAR uni04C7.ss01
ENCODING -1
SWIDTH 846 0
DWIDTH 7 0
BBX 7 10 0 -3
BITMAP
05A00A50
08900D40
0A700F20
6FEEEF80
0F205C00
2F007C20
3C003D70
00009E50
0006AC20
0004E800
ENDCHAR
STARTCHAR uni04C9.ss01
ENCODING -1
SWIDTH 873 0
DWIDTH 7 0
BBX 7 9 0 -2
BITMAP
05A00A50
08900D40
0A700F20
6FEEEF80
0F205C00
2F007A10
3C008F60
00005C00
0000A300
ENDCHAR
STARTCHAR uni04CB.ss01
ENCODING -1
SWIDTH 773 0
DWIDTH 6 0
BBX 6 10 0 -3
BITMAP
0A502C
0C505C
0E309A
1F23E9
0BFDA7
0010B5
0007E3
00AD50
069C10
04E800
ENDCHAR
STARTCHAR uni04CD.ss01
ENCODING -1
SWIDTH 967 0
DWIDTH 8 0
BBX 8 9 0 -2
BITMAP
009906C0
00EA0DD0
03EB4DC0
06BBA9B0
0A7DD5B0
2E1EA3D1
D70B40DA
000002E2
00000760
ENDCHAR
STARTCHAR uni04D0.ss01
ENCODING -1
SWIDTH 780 0
DWIDTH 6 0
BBX 7 9 0 0
BITMAP
00033330
0004ED30
005BED60
06D42800
1E306B00
6C00A800
8A00E600
6C07F400
1BE9D200
ENDCHAR
STARTCHAR uni04D2.ss01
ENCODING -1
SWIDTH 780 0
DWIDTH 6 0
BBX 7 9 0 0
BITMAP
00057A30
00000000
005BED60
06D42800
1E306B00
6C00A800
8A00E600
6C07F400
1BE9D200
ENDCHAR
STARTCHAR uni04D4.ss01
ENCODING -1
SWIDTH 1057 0
DWIDTH 8 0
BBX 9 7 0 0
BITMAP
006CAAEE70
07D42F0000
2E205C0000
6B009EED00
8A00E70000
6C07EA0110
0AEA2BED40
ENDCHAR
STARTCHAR uni04D6.ss01
ENCODING -1
SWIDTH 720 0
DWIDTH 6 0
BBX 6 9 0 0
BITMAP
004233
005EC2
03CED3
0E507A
0E5056
08FA00
6C1000
9B0057
2BED91
ENDCHAR
STARTCHAR uni04D8.ss01
ENCODING -1
SWIDTH 792 0
DWIDTH 6 0
BBX 7 7 0 0
BITMAP
04CEC300
08206D00
00000F20
5EEEEF20
7B005E00
4E21C700
07ED7000
ENDCHAR
STARTCHAR uni04DA.ss01
ENCODING -1
SWIDTH 792 0
DWIDTH 6 0
BBX 7 9 0 0
BITMAP
0075B100
00000000
04CEC300
08206D00
00000F20
5EEEEF20
7B005E00
4E21C700
07ED7000
ENDCHAR
STARTCHAR uni04DC.ss01
ENCODING -1
SWIDTH 1196 0
DWIDTH 10 0
BBX 10 9 0 0
BITMAP
0000A4A000
0000000000
0CD22C05D7
00885C1D20
002D7BA900
001CFFA000
00C7B6D400
15C0D37C10
BD20E11CE3
ENDCHAR
STARTCHAR uni04DE.ss01
ENCODING -1
SWIDTH 725 0
DWIDTH 6 0
BBX 6 9 0 0
BITMAP
0085B1
000000
04CEB0
0D40E2
0503C0
00ABC2
3400B7
7A03E4
1BED60
ENDCHAR
STARTCHAR uni04E0.ss01
ENCODING -1
SWIDTH 744 0
DWIDTH 6 0
BBX 7 7 0 0
BITMAP
06DEEB10
0D20A800
0415C100
00ABC200
3400B700
7A03E400
1BED6000
ENDCHAR
STARTCHAR uni04E2.ss01
ENCODING -1
SWIDTH 800 0
DWIDTH 6 0
BBX 7 8 0 0
BITMAP
003ED200
07800D10
0A702F10
0C505E00
0E209C00
2F01EA00
3E2BC700
1DE6A400
ENDCHAR
STARTCHAR uni04E4.ss01
ENCODING -1
SWIDTH 800 0
DWIDTH 6 0
BBX 7 9 0 0
BITMAP
00488400
00000000
07800D10
0A702F10
0C505E00
0E209C00
2F01EA00
3E2BC700
1DE6A400
ENDCHAR
STARTCHAR uni04E6.ss01
ENCODING -1
SWIDTH 816 0
DWIDTH 7 0
BBX 7 9 0 0
BITMAP
00488400
00000000
01AED500
0B804F20
3E000D50
6B000D50
7B001F20
3E20AA00
07ED9000
ENDCHAR
STARTCHAR uni04E8.ss01
ENCODING -1
SWIDTH 816 0
DWIDTH 7 0
BBX 7 7 0 0
BITMAP
01AED500
0B803F20
3E000D50
6FEEEF50
7B001F20
3E20AA00
07EE9000
ENDCHAR
STARTCHAR uni04EA.ss01
ENCODING -1
SWIDTH 816 0
DWIDTH 7 0
BBX 7 9 0 0
BITMAP
00488400
00000000
01AED500
0B803F20
3E000D50
6FEEEF50
7B001F20
3E20AA00
07EE9000
ENDCHAR
STARTCHAR uni04EC.ss01
ENCODING -1
SWIDTH 755 0
DWIDTH 6 0
BBX 6 9 0 0
BITMAP
0084B0
000000
07DEA1
2910B9
00005D
03EEED
32008A
9803E3
3CEC40
ENDCHAR
STARTCHAR uni04EE.ss01
ENCODING -1
SWIDTH 776 0
DWIDTH 6 0
BBX 6 8 0 0
BITMAP
006EC0
0A502C
0D504D
0F208B
1F23EA
0BFDA7
1322D2
1CED50
ENDCHAR
STARTCHAR uni04F0.ss01
ENCODING -1
SWIDTH 776 0
DWIDTH 6 0
BBX 6 9 0 0
BITMAP
0075B1
000000
0A502C
0D504D
0F208B
1F23EA
0BFDA7
1322D2
1CED50
ENDCHAR
STARTCHAR uni04F2.ss01
ENCODING -1
SWIDTH 776 0
DWIDTH 6 0
BBX 6 10 0 0
BITMAP
001C84
0037A1
000000
0A502C
0D504D
0F208B
1F23EA
0BFDA7
1322D2
1CED50
ENDCHAR
STARTCHAR uni04F4.ss01
ENCODING -1
SWIDTH 773 0
DWIDTH 6 0
BBX 6 9 0 0
BITMAP
0085B1
000000
0A502C
0C505C
0E309A
1F23E9
0BFDA7
0010B5
0000B3
ENDCHAR
STARTCHAR uni04F6.ss01
ENCODING -1
SWIDTH 600 0
DWIDTH 5 0
BBX 7 10 0 -3
BITMAP
03EEEEA0
00890000
00A70000
00D40000
00F20000
02F00000
04F60000
08D70000
4BA30000
3DA00000
ENDCHAR
STARTCHAR uni04F8.ss01
ENCODING -1
SWIDTH 1078 0
DWIDTH 9 0
BBX 9 9 0 0
BITMAP
0001B57000
0000000000
0680000A40
0A60000D40
0ECDC20F10
9F10A93E00
2E00895C00
0E21D47A00
06DD608700
ENDCHAR
STARTCHAR uni04FA.ss01
ENCODING -1
SWIDTH 634 0
DWIDTH 5 0
BBX 8 10 -1 -3
BITMAP
003EEEEA
00099000
000B6000
009FE300
000F2000
002F0000
005C0000
00890000
34C40000
4E900000
ENDCHAR
STARTCHAR uni04FC.ss01
ENCODING -1
SWIDTH 846 0
DWIDTH 7 0
BBX 7 10 0 -3
BITMAP
05A00A50
08900D40
0A700F20
6FEEEF80
0F205C00
2F007C20
3C003D70
00009E50
0006AC20
0004E800
ENDCHAR
STARTCHAR uni04FE.ss01
ENCODING -1
SWIDTH 677 0
DWIDTH 5 0
BBX 7 7 -1 0
BITMAP
00C405C0
008B2E30
001ED600
00AFE800
008CE100
06D1A800
3D203D00
ENDCHAR
STARTCHAR uni0510.ss01
ENCODING -1
SWIDTH 706 0
DWIDTH 6 0
BBX 6 7 0 0
BITMAP
03CEA1
0B60C5
097041
2CBC00
8A0053
7D11D4
1AED70
ENDCHAR
STARTCHAR uni0512.ss01
ENCODING -1
SWIDTH 706 0
DWIDTH 6 0
BBX 7 10 -1 -3
BITMAP
0000C500
0004F600
0008F500
000EC500
005BB500
01D49810
2D703E90
00008E70
0004BA30
0003D900
ENDCHAR
STARTCHAR uni051A.ss01
ENCODING -1
SWIDTH 816 0
DWIDTH 7 0
BBX 7 10 0 -3
BITMAP
019ED500
0B804F20
3E000D50
6B000D50
7B001F20
4E209B00
09FEB100
002D6000
0005E100
00004000
ENDCHAR
STARTCHAR uni051C.ss01
ENCODING -1
SWIDTH 1236 0
DWIDTH 10 0
BBX 9 7 1 0
BITMAP
A401E102E0
D404F006C0
F207E00980
F20CD00E30
E23CE04C00
C7B5E4C500
4E807E7000
ENDCHAR
STARTCHAR uni048C.ss01
ENCODING -1
SWIDTH 721 0
DWIDTH 6 0
BBX 6 7 0 0
BITMAP
068000
6EE700
0DDDC2
7F10A9
2E0089
0E21D4
06DD60
ENDCHAR
STARTCHAR uni048E.ss01
ENCODING -1
SWIDTH 662 0
DWIDTH 5 0
BBX 6 7 0 0
BITMAP
1BED70
19A2E3
0986E4
0B68E9
6FD920
1F1000
2D0000
ENDCHAR
STARTCHAR uni0430.fina
ENCODING -1
SWIDTH 458 0
DWIDTH 4 0
BBX 4 4 0 0
BITMAP
0AE6
7A95
A5D4
7DC2
ENDCHAR
STARTCHAR uni0431.fina
ENCODING -1
SWIDTH 473 0
DWIDTH 4 0
BBX 4 8 0 0
BITMAP
04AA
0E51
0C50
02D2
2DE7
8878
A6B5
5EB0
ENDCHAR
STARTCHAR uni0432.fina
ENCODING -1
SWIDTH 475 0
DWIDTH 4 0
BBX 4 8 0 0
BITMAP
04E3
0C76
2C83
5AA0
7ED3
8979
7877
2DC1
ENDCHAR
STARTCHAR uni0433.fina
ENCODING -1
SWIDTH 382 0
DWIDTH 3 0
BBX 4 4 0 0
BITMAP
5EC0
16A0
8841
7EA0
ENDCHAR
STARTCHAR uni0453.fina
ENCODING -1
SWIDTH 382 0
DWIDTH 3 0
BBX 4 8 0 0
BITMAP
0051
01D1
0640
0000
5EC0
16A0
8841
7EA0
ENDCHAR
STARTCHAR uni0491.fina
ENCODING -1
SWIDTH 394 0
DWIDTH 3 0
BBX 4 6 0 0
BITMAP
0022
0076
4EC2
8700
9500
7400
ENDCHAR
STARTCHAR uni0434.fina
ENCODING -1
SWIDTH 449 0
DWIDTH 4 0
BBX 4 8 0 -4
BITMAP
0AD4
7A95
A5D3
6DE1
08D0
79A0
B850
CB00
ENDCHAR
STARTCHAR uni0435.fina
ENCODING -1
SWIDTH 411 0
DWIDTH 3 0
BBX 4 4 0 0
BITMAP
2CD0
97C0
AC54
4EC2
ENDCHAR
STARTCHAR uni0450.fina
ENCODING -1
SWIDTH 411 0
DWIDTH 3 0
BBX 4 8 0 0
BITMAP
1400
2D00
0650
0000
2CD0
97C0
AC54
4EC2
ENDCHAR
STARTCHAR uni0451.fina
ENCODING -1
SWIDTH 411 0
DWIDTH 3 0
BBX 4 6 0 0
BITMAP
1A57
0000
2CD0
97C0
AC54
4EC2
ENDCHAR
STARTCHAR uni0436.fina
ENCODING -1
SWIDTH 783 0
DWIDTH 6 0
BBX 7 4 0 0
BITMAP
3E7ABC00
14FD8800
A5DE7240
AD68CC20
ENDCHAR
STARTCHAR uni0437.fina
ENCODING -1
SWIDTH 395 0
DWIDTH 3 0
BBX 5 8 -1 -4
BITMAP
03DD10
011B10
03B600
04C200
02D800
0B9700
48C300
3E8000
ENDCHAR
STARTCHAR uni0438.fina
ENCODING -1
SWIDTH 460 0
DWIDTH 4 0
BBX 4 4 0 0
BITMAP
3967
77B6
99F4
6CB3
ENDCHAR
STARTCHAR uni0439.fina
ENCODING -1
SWIDTH 460 0
DWIDTH 4 0
BBX 4 6 0 0
BITMAP
161A
0CD4
3967
77B6
99F4
6CB3
ENDCHAR
STARTCHAR uni045D.fina
ENCODING -1
SWIDTH 460 0
DWIDTH 4 0
BBX 4 8 0 0
BITMAP
0500
0D30
0380
0000
3967
77B6
99F4
6CB3
ENDCHAR
STARTCHAR uni048B.fina
ENCODING -1
SWIDTH 460 0
DWIDTH 4 0
BBX 4 9 0 -2
BITMAP
0003
1A2A
0BD3
3967
77B6
99F4
6CC7
03C0
0320
ENDCHAR
STARTCHAR uni043A.fina
ENCODING -1
SWIDTH 541 0
DWIDTH 4 0
BBX 5 4 0 0
BITMAP
49BC00
8D8900
9F7240
78DC20
ENDCHAR
STARTCHAR uni045C.fina
ENCODING -1
SWIDTH 541 0
DWIDTH 4 0
BBX 5 8 0 0
BITMAP
001500
007900
00A100
000000
49BC00
8D8900
9F7240
78DC20
ENDCHAR
STARTCHAR uni043B.fina
ENCODING -1
SWIDTH 463 0
DWIDTH 4 0
BBX 5 4 -1 0
BITMAP
005D00
00BE00
03BE00
1D3A60
ENDCHAR
STARTCHAR uni043C.fina
ENCODING -1
SWIDTH 669 0
DWIDTH 5 0
BBX 7 4 -1 0
BITMAP
00888900
00DADA00
04AF9A00
1D3C2E20
ENDCHAR
STARTCHAR uni043D.fina
ENCODING -1
SWIDTH 462 0
DWIDTH 4 0
BBX 4 4 0 0
BITMAP
4858
8EE6
95B4
74B2
ENDCHAR
STARTCHAR uni043E.fina
ENCODING -1
SWIDTH 453 0
DWIDTH 4 0
BBX 4 4 0 0
BITMAP
2DC1
9696
A5A5
4DB0
ENDCHAR
STARTCHAR uni043F.fina
ENCODING -1
SWIDTH 484 0
DWIDTH 4 0
BBX 4 4 0 0
BITMAP
49A9
8DB9
9C87
7685
ENDCHAR
STARTCHAR uni0440.fina
ENCODING -1
SWIDTH 457 0
DWIDTH 4 0
BBX 5 8 -1 -4
BITMAP
06BE40
079880
098B40
2EE800
7B6000
A94000
BB1000
B90000
ENDCHAR
STARTCHAR uni0441.fina
ENCODING -1
SWIDTH 404 0
DWIDTH 3 0
BBX 4 4 0 0
BITMAP
2DB0
9690
B633
4EC1
ENDCHAR
STARTCHAR uni0442.fina
ENCODING -1
SWIDTH 732 0
DWIDTH 6 0
BBX 6 4 0 0
BITMAP
49A8A9
8DBDB8
9C8C87
767685
ENDCHAR
STARTCHAR uni0443.fina
ENCODING -1
SWIDTH 449 0
DWIDTH 4 0
BBX 4 8 0 -4
BITMAP
3967
77B5
9AF3
6CD1
08D0
7990
B950
CB00
ENDCHAR
STARTCHAR uni045E.fina
ENCODING -1
SWIDTH 449 0
DWIDTH 4 0
BBX 4 10 0 -4
BITMAP
161A
0CD4
3967
77B5
9AF3
6CD1
08D0
7990
B950
CB00
ENDCHAR
STARTCHAR uni0444.fina
ENCODING -1
SWIDTH 721 0
DWIDTH 6 0
BBX 6 10 0 -3
BITMAP
000600
001D00
004A00
0AECD3
7A9996
A5D6D3
6DCE70
00B200
00C200
00B100
ENDCHAR
STARTCHAR uni0445.fina
ENCODING -1
SWIDTH 580 0
DWIDTH 5 0
BBX 5 4 0 0
BITMAP
3E9D40
25F410
A5F160
ADAE60
ENDCHAR
STARTCHAR uni0447.fina
ENCODING -1
SWIDTH 422 0
DWIDTH 3 0
BBX 4 5 0 0
BITMAP
2300
3DF1
1B40
6924
4EC2
ENDCHAR
STARTCHAR uni0446.fina
ENCODING -1
SWIDTH 468 0
DWIDTH 4 0
BBX 4 7 0 -3
BITMAP
3967
77B4
99F3
6C97
03D5
0CA2
0C80
ENDCHAR
STARTCHAR uni0448.fina
ENCODING -1
SWIDTH 693 0
DWIDTH 6 0
BBX 6 4 0 0
BITMAP
396685
77B5D4
99F9F2
6D9BD1
ENDCHAR
STARTCHAR uni0449.fina
ENCODING -1
SWIDTH 699 0
DWIDTH 6 0
BBX 6 7 0 -3
BITMAP
396684
77B5D2
99F9E1
6D9BB4
0005E3
001BB0
001D60
ENDCHAR
STARTCHAR uni045F.fina
ENCODING -1
SWIDTH 462 0
DWIDTH 4 0
BBX 4 5 0 -1
BITMAP
3967
77B6
99F4
6DB3
2800
ENDCHAR
STARTCHAR uni044C.fina
ENCODING -1
SWIDTH 517 0
DWIDTH 4 0
BBX 4 4 0 0
BITMAP
4A00
8DD6
8969
3DD3
ENDCHAR
ENDFONT
